<svg id="svg" version="1.1" width="400" height="101.33333333333334" xmlns="http://www.w3.org/2000/svg" xmlns:xlink="http://www.w3.org/1999/xlink" style="display: block;"><g id="svgg"><path id="path0" d="M317.017 18.398 C 316.690 18.747,316.679 18.993,316.632 27.503 L 316.583 36.250 316.083 37.250 C 315.481 38.455,314.788 38.897,312.871 39.300 C 311.691 39.547,299.780 39.578,170.333 39.660 C 92.646 39.709,28.990 39.811,28.875 39.885 C 28.570 40.082,28.570 61.251,28.875 61.448 C 28.990 61.523,92.646 61.624,170.333 61.673 C 299.780 61.756,311.691 61.786,312.871 62.034 C 314.788 62.436,315.481 62.878,316.083 64.083 L 316.583 65.083 316.632 73.808 C 316.688 83.843,316.632 83.454,317.987 83.245 C 318.407 83.181,319.686 83.043,320.829 82.939 L 322.908 82.750 323.206 81.614 C 323.976 78.671,324.955 78.198,331.496 77.605 L 333.575 77.417 333.872 76.280 C 334.643 73.337,335.621 72.864,342.162 72.272 L 344.241 72.083 344.539 70.947 C 345.309 68.004,346.288 67.531,352.829 66.938 L 354.908 66.750 355.206 65.614 C 355.976 62.671,356.955 62.198,363.496 61.605 L 365.575 61.417 365.872 60.280 C 366.643 57.337,367.621 56.864,374.162 56.272 L 376.241 56.083 376.539 54.947 C 377.148 52.620,378.029 51.870,380.667 51.434 C 381.558 51.287,383.333 50.767,383.333 50.653 C 383.333 50.598,382.602 50.425,381.708 50.269 C 380.815 50.113,379.675 49.913,379.176 49.825 C 377.732 49.570,376.894 49.081,376.381 48.192 C 376.135 47.766,375.817 47.348,375.675 47.264 C 375.316 47.051,374.254 45.975,374.069 45.635 C 373.953 45.424,373.357 45.268,371.666 45.006 C 366.913 44.271,366.428 44.096,365.714 42.859 C 365.468 42.432,365.150 42.015,365.008 41.931 C 364.649 41.718,363.588 40.642,363.402 40.302 C 363.286 40.091,362.690 39.934,360.999 39.673 C 356.223 38.934,355.736 38.757,355.037 37.504 C 354.795 37.071,354.348 36.553,354.043 36.353 C 353.739 36.154,353.286 35.702,353.037 35.350 C 352.549 34.660,352.563 34.664,347.750 33.815 C 345.616 33.439,344.762 32.733,344.245 30.917 C 343.853 29.535,343.673 29.376,342.360 29.250 C 341.212 29.140,338.828 28.793,337.083 28.483 C 334.947 28.104,334.095 27.399,333.579 25.583 C 333.186 24.202,333.006 24.043,331.693 23.917 C 330.546 23.806,328.161 23.460,326.417 23.150 C 324.279 22.770,323.426 22.064,322.914 20.250 C 322.508 18.810,322.372 18.718,320.333 18.499 C 319.371 18.396,318.307 18.251,317.969 18.176 C 317.450 18.061,317.301 18.096,317.017 18.398 " stroke="none" fill="#000000" fill-rule="evenodd"></path><path id="path1" d="M316.535 17.881 L 315.833 18.596 315.833 26.673 L 315.833 34.750 315.354 35.750 C 314.565 37.398,313.439 38.152,310.833 38.777 C 309.637 39.064,303.618 39.080,169.417 39.163 L 29.250 39.250 28.583 39.600 L 27.917 39.949 27.917 50.667 L 27.917 61.384 28.583 61.734 L 29.250 62.083 169.417 62.170 C 303.618 62.253,309.637 62.269,310.833 62.557 C 313.439 63.182,314.565 63.935,315.354 65.583 L 315.833 66.583 315.833 74.692 L 315.833 82.801 316.551 83.594 L 317.269 84.387 318.593 84.035 C 319.321 83.842,320.547 83.600,321.317 83.497 C 323.370 83.224,323.935 82.951,324.415 82.002 C 325.498 79.866,327.462 78.835,331.583 78.237 C 334.045 77.881,334.592 77.636,335.079 76.675 C 336.165 74.532,338.124 73.502,342.250 72.904 C 344.711 72.547,345.259 72.303,345.746 71.341 C 346.832 69.199,348.791 68.169,352.917 67.571 C 355.378 67.214,355.925 66.969,356.413 66.008 C 357.498 63.866,359.458 62.835,363.583 62.237 C 366.045 61.881,366.592 61.636,367.079 60.675 C 368.165 58.532,370.124 57.502,374.250 56.904 C 376.816 56.532,377.225 56.332,377.860 55.141 C 378.841 53.302,381.378 51.913,385.297 51.071 C 387.027 50.699,387.012 50.630,385.125 50.271 C 379.743 49.247,377.205 47.905,376.753 45.848 C 376.621 45.247,376.219 45.058,374.583 44.824 C 369.416 44.085,366.552 42.632,366.086 40.514 C 365.955 39.914,365.553 39.724,363.917 39.491 C 358.749 38.752,355.885 37.299,355.420 35.181 C 355.289 34.585,354.929 34.420,353.066 34.098 C 351.576 33.841,348.993 33.113,347.805 32.617 C 346.893 32.236,345.861 31.211,345.330 30.159 C 344.779 29.068,344.535 28.936,342.583 28.664 C 338.006 28.027,335.719 26.919,334.663 24.826 C 334.112 23.735,333.868 23.602,331.917 23.331 C 327.340 22.694,325.053 21.586,323.996 19.493 C 323.446 18.402,323.203 18.270,321.250 17.996 C 320.517 17.893,319.342 17.664,318.639 17.487 C 317.936 17.311,317.333 17.167,317.299 17.167 C 317.264 17.167,316.920 17.488,316.535 17.881 M320.333 18.499 C 322.372 18.718,322.508 18.810,322.914 20.250 C 323.426 22.064,324.279 22.770,326.417 23.150 C 328.161 23.460,330.546 23.806,331.693 23.917 C 333.006 24.043,333.186 24.202,333.579 25.583 C 334.095 27.399,334.947 28.104,337.083 28.483 C 338.828 28.793,341.212 29.140,342.360 29.250 C 343.673 29.376,343.853 29.535,344.245 30.917 C 344.762 32.733,345.616 33.439,347.750 33.815 C 352.563 34.664,352.549 34.660,353.037 35.350 C 353.286 35.702,353.739 36.154,354.043 36.353 C 354.348 36.553,354.795 37.071,355.037 37.504 C 355.736 38.757,356.223 38.934,360.999 39.673 C 362.690 39.934,363.286 40.091,363.402 40.302 C 363.588 40.642,364.649 41.718,365.008 41.931 C 365.150 42.015,365.468 42.432,365.714 42.859 C 366.428 44.096,366.913 44.271,371.666 45.006 C 373.357 45.268,373.953 45.424,374.069 45.635 C 374.254 45.975,375.316 47.051,375.675 47.264 C 375.817 47.348,376.135 47.766,376.381 48.192 C 376.894 49.081,377.732 49.570,379.176 49.825 C 379.675 49.913,380.815 50.113,381.708 50.269 C 382.602 50.425,383.333 50.598,383.333 50.653 C 383.333 50.767,381.558 51.287,380.667 51.434 C 378.029 51.870,377.148 52.620,376.539 54.947 L 376.241 56.083 374.162 56.272 C 367.621 56.864,366.643 57.337,365.872 60.280 L 365.575 61.417 363.496 61.605 C 356.955 62.198,355.976 62.671,355.206 65.614 L 354.908 66.750 352.829 66.938 C 346.288 67.531,345.309 68.004,344.539 70.947 L 344.241 72.083 342.162 72.272 C 335.621 72.864,334.643 73.337,333.872 76.280 L 333.575 77.417 331.496 77.605 C 324.955 78.198,323.976 78.671,323.206 81.614 L 322.908 82.750 320.829 82.939 C 319.686 83.043,318.407 83.181,317.987 83.245 C 316.632 83.454,316.688 83.843,316.632 73.808 L 316.583 65.083 316.083 64.083 C 315.481 62.878,314.788 62.436,312.871 62.034 C 311.691 61.786,299.780 61.756,170.333 61.673 C 92.646 61.624,28.990 61.523,28.875 61.448 C 28.570 61.251,28.570 40.082,28.875 39.885 C 28.990 39.811,92.646 39.709,170.333 39.660 C 299.780 39.578,311.691 39.547,312.871 39.300 C 314.788 38.897,315.481 38.455,316.083 37.250 L 316.583 36.250 316.632 27.503 C 316.688 17.546,316.639 17.882,317.969 18.176 C 318.307 18.251,319.371 18.396,320.333 18.499 " stroke="none" fill="#1c1c1c" fill-rule="evenodd"></path><path id="path2" d="M316.140 17.473 L 315.167 18.447 315.167 26.607 L 315.167 34.768 314.693 35.515 C 313.737 37.023,312.436 37.814,309.833 38.471 C 308.835 38.723,297.823 38.751,168.917 38.831 L 29.083 38.917 28.167 39.417 L 27.250 39.917 27.250 50.667 L 27.250 61.417 28.167 61.917 L 29.083 62.417 168.917 62.503 C 297.823 62.582,308.835 62.610,309.833 62.862 C 312.436 63.519,313.737 64.310,314.693 65.818 L 315.167 66.565 315.167 74.674 L 315.167 82.783 315.646 83.433 C 316.674 84.827,317.235 85.226,317.775 84.947 C 318.456 84.595,319.871 84.203,321.492 83.918 C 322.881 83.674,325.000 82.831,325.000 82.522 C 325.000 82.433,325.387 81.936,325.861 81.418 C 327.184 79.971,329.049 79.131,332.159 78.585 C 333.548 78.340,335.667 77.497,335.667 77.189 C 335.667 77.100,336.054 76.603,336.527 76.085 C 337.851 74.637,339.716 73.798,342.825 73.251 C 344.215 73.007,346.333 72.164,346.333 71.856 C 346.333 71.766,346.721 71.270,347.194 70.752 C 348.517 69.304,350.383 68.465,353.492 67.918 C 354.881 67.674,357.000 66.831,357.000 66.522 C 357.000 66.433,357.387 65.936,357.861 65.418 C 359.184 63.971,361.049 63.131,364.159 62.585 C 365.548 62.340,367.667 61.497,367.667 61.189 C 367.667 59.880,371.315 57.869,374.804 57.255 C 376.618 56.936,378.069 56.280,378.499 55.584 C 379.454 54.040,382.253 52.362,385.157 51.591 C 387.829 50.882,387.809 50.412,385.083 49.824 C 380.906 48.922,378.271 47.508,377.463 45.736 C 377.185 45.126,376.347 44.757,374.293 44.341 C 370.015 43.477,367.625 42.221,366.797 40.403 C 366.519 39.792,365.680 39.423,363.626 39.008 C 359.310 38.136,357.103 36.972,356.106 35.043 C 355.850 34.548,354.539 33.834,353.886 33.833 C 351.549 33.830,346.919 31.504,346.072 29.909 C 345.647 29.108,344.643 28.609,342.749 28.257 C 338.781 27.521,336.312 26.283,335.406 24.576 C 334.980 23.774,333.977 23.275,332.082 22.924 C 328.114 22.188,325.645 20.950,324.739 19.243 C 324.308 18.430,323.292 17.934,321.326 17.575 C 320.459 17.417,319.204 17.110,318.537 16.894 C 317.869 16.677,317.276 16.500,317.218 16.500 C 317.161 16.500,316.675 16.938,316.140 17.473 M318.639 17.487 C 319.342 17.664,320.517 17.893,321.250 17.996 C 323.203 18.270,323.446 18.402,323.996 19.493 C 325.053 21.586,327.340 22.694,331.917 23.331 C 333.868 23.602,334.112 23.735,334.663 24.826 C 335.719 26.919,338.006 28.027,342.583 28.664 C 344.535 28.936,344.779 29.068,345.330 30.159 C 345.861 31.211,346.893 32.236,347.805 32.617 C 348.993 33.113,351.576 33.841,353.066 34.098 C 354.929 34.420,355.289 34.585,355.420 35.181 C 355.885 37.299,358.749 38.752,363.917 39.491 C 365.553 39.724,365.955 39.914,366.086 40.514 C 366.552 42.632,369.416 44.085,374.583 44.824 C 376.219 45.058,376.621 45.247,376.753 45.848 C 377.205 47.905,379.743 49.247,385.125 50.271 C 387.012 50.630,387.027 50.699,385.297 51.071 C 381.378 51.913,378.841 53.302,377.860 55.141 C 377.225 56.332,376.816 56.532,374.250 56.904 C 370.124 57.502,368.165 58.532,367.079 60.675 C 366.592 61.636,366.045 61.881,363.583 62.237 C 359.458 62.835,357.498 63.866,356.413 66.008 C 355.925 66.969,355.378 67.214,352.917 67.571 C 348.791 68.169,346.832 69.199,345.746 71.341 C 345.259 72.303,344.711 72.547,342.250 72.904 C 338.124 73.502,336.165 74.532,335.079 76.675 C 334.592 77.636,334.045 77.881,331.583 78.237 C 327.462 78.835,325.498 79.866,324.415 82.002 C 323.935 82.951,323.370 83.224,321.317 83.497 C 320.547 83.600,319.321 83.842,318.593 84.035 L 317.269 84.387 316.551 83.594 L 315.833 82.801 315.833 74.692 L 315.833 66.583 315.354 65.583 C 314.565 63.935,313.439 63.182,310.833 62.557 C 309.637 62.269,303.618 62.253,169.417 62.170 L 29.250 62.083 28.583 61.734 L 27.917 61.384 27.917 50.667 L 27.917 39.949 28.583 39.600 L 29.250 39.250 169.417 39.163 C 303.618 39.080,309.637 39.064,310.833 38.777 C 313.439 38.152,314.565 37.398,315.354 35.750 L 315.833 34.750 315.833 26.673 L 315.833 18.596 316.535 17.881 C 316.920 17.488,317.264 17.167,317.299 17.167 C 317.333 17.167,317.936 17.311,318.639 17.487 " stroke="none" fill="#2c2c2c" fill-rule="evenodd"></path><path id="path3" d="M316.496 16.140 C 314.270 17.571,314.335 17.258,314.334 26.612 L 314.333 34.641 313.784 35.361 C 312.695 36.789,311.020 37.638,308.083 38.251 C 307.066 38.463,289.174 38.495,168.006 38.497 L 29.096 38.500 27.715 39.184 L 26.333 39.868 26.333 50.667 L 26.333 61.465 27.715 62.149 L 29.096 62.833 168.006 62.836 C 289.174 62.839,307.066 62.870,308.083 63.083 C 311.020 63.695,312.695 64.544,313.784 65.972 L 314.333 66.693 314.333 74.820 L 314.333 82.948 314.975 83.942 C 316.212 85.855,316.969 86.199,318.396 85.500 C 318.957 85.225,320.299 84.776,321.378 84.501 C 323.564 83.943,325.772 82.926,326.326 82.221 C 327.381 80.880,329.249 79.886,332.066 79.164 C 334.230 78.610,336.442 77.588,336.993 76.888 C 338.048 75.547,339.915 74.552,342.733 73.831 C 344.897 73.277,347.109 72.255,347.660 71.554 C 348.714 70.214,350.582 69.219,353.399 68.497 C 355.563 67.943,357.776 66.921,358.326 66.221 C 359.381 64.880,361.249 63.886,364.066 63.164 C 366.230 62.610,368.442 61.588,368.993 60.888 C 370.048 59.547,371.915 58.552,374.733 57.831 C 377.023 57.244,379.004 56.290,379.864 55.358 C 381.052 54.073,383.207 52.812,385.333 52.157 C 386.177 51.897,386.772 51.592,387.164 51.219 L 387.744 50.667 387.247 50.181 C 386.874 49.816,386.343 49.588,385.113 49.265 C 381.793 48.393,379.743 47.343,378.574 45.916 C 377.793 44.964,376.548 44.314,374.750 43.920 C 371.488 43.207,369.105 42.044,367.907 40.583 C 367.127 39.630,365.881 38.980,364.083 38.587 C 360.807 37.870,358.538 36.766,357.256 35.265 C 356.395 34.258,355.354 33.727,353.000 33.093 C 350.705 32.476,348.557 31.339,347.393 30.128 C 346.255 28.943,344.784 28.163,342.917 27.753 C 339.971 27.107,338.044 26.178,336.673 24.741 C 335.599 23.616,334.088 22.823,332.250 22.420 C 329.304 21.774,327.377 20.844,326.006 19.408 C 324.932 18.282,323.420 17.489,321.583 17.087 C 320.480 16.846,318.747 16.286,317.496 15.766 C 317.351 15.705,316.923 15.866,316.496 16.140 M318.537 16.894 C 319.204 17.110,320.459 17.417,321.326 17.575 C 323.292 17.934,324.308 18.430,324.739 19.243 C 325.645 20.950,328.114 22.188,332.082 22.924 C 333.977 23.275,334.980 23.774,335.406 24.576 C 336.312 26.283,338.781 27.521,342.749 28.257 C 344.643 28.609,345.647 29.108,346.072 29.909 C 346.919 31.504,351.549 33.830,353.886 33.833 C 354.539 33.834,355.850 34.548,356.106 35.043 C 357.103 36.972,359.310 38.136,363.626 39.008 C 365.680 39.423,366.519 39.792,366.797 40.403 C 367.625 42.221,370.015 43.477,374.293 44.341 C 376.347 44.757,377.185 45.126,377.463 45.736 C 378.271 47.508,380.906 48.922,385.083 49.824 C 387.809 50.412,387.829 50.882,385.157 51.591 C 382.253 52.362,379.454 54.040,378.499 55.584 C 378.069 56.280,376.618 56.936,374.804 57.255 C 371.315 57.869,367.667 59.880,367.667 61.189 C 367.667 61.497,365.548 62.340,364.159 62.585 C 361.049 63.131,359.184 63.971,357.861 65.418 C 357.387 65.936,357.000 66.433,357.000 66.522 C 357.000 66.831,354.881 67.674,353.492 67.918 C 350.383 68.465,348.517 69.304,347.194 70.752 C 346.721 71.270,346.333 71.766,346.333 71.856 C 346.333 72.164,344.215 73.007,342.825 73.251 C 339.716 73.798,337.851 74.637,336.527 76.085 C 336.054 76.603,335.667 77.100,335.667 77.189 C 335.667 77.497,333.548 78.340,332.159 78.585 C 329.049 79.131,327.184 79.971,325.861 81.418 C 325.387 81.936,325.000 82.433,325.000 82.522 C 325.000 82.831,322.881 83.674,321.492 83.918 C 319.871 84.203,318.456 84.595,317.775 84.947 C 317.235 85.226,316.674 84.827,315.646 83.433 L 315.167 82.783 315.167 74.674 L 315.167 66.565 314.693 65.818 C 313.737 64.310,312.436 63.519,309.833 62.862 C 308.835 62.610,297.823 62.582,168.917 62.503 L 29.083 62.417 28.167 61.917 L 27.250 61.417 27.250 50.667 L 27.250 39.917 28.167 39.417 L 29.083 38.917 168.917 38.831 C 297.823 38.751,308.835 38.723,309.833 38.471 C 312.436 37.814,313.737 37.023,314.693 35.515 L 315.167 34.768 315.167 26.607 L 315.167 18.447 316.140 17.473 C 316.675 16.938,317.161 16.500,317.218 16.500 C 317.276 16.500,317.869 16.677,318.537 16.894 " stroke="none" fill="#3c3c3c" fill-rule="evenodd"></path><path id="path4" d="M316.083 14.583 C 314.786 15.113,313.681 16.247,313.194 17.549 C 312.842 18.488,312.833 18.716,312.833 26.609 L 312.833 34.705 312.125 35.361 C 311.222 36.197,309.460 37.048,307.722 37.488 L 306.361 37.833 167.684 37.833 L 29.008 37.833 27.895 38.252 C 26.692 38.705,25.801 39.193,25.208 39.723 L 24.833 40.058 24.833 50.667 L 24.833 61.275 25.208 61.611 C 25.801 62.141,26.692 62.628,27.895 63.081 L 29.008 63.500 167.684 63.500 L 306.361 63.500 307.722 63.845 C 309.354 64.258,311.170 65.118,312.083 65.909 L 312.750 66.486 312.833 75.035 C 312.917 83.572,312.917 83.585,313.316 84.573 C 313.866 85.940,314.964 87.011,316.263 87.450 L 317.264 87.788 317.924 87.232 C 318.831 86.466,320.238 85.805,322.500 85.081 C 325.103 84.249,326.874 83.369,328.167 82.266 C 329.485 81.141,330.656 80.551,333.167 79.748 C 335.770 78.915,337.541 78.035,338.833 76.932 C 340.152 75.808,341.322 75.218,343.833 74.415 C 346.436 73.582,348.207 72.702,349.500 71.599 C 350.818 70.474,351.989 69.885,354.500 69.081 C 357.103 68.249,358.874 67.369,360.167 66.266 C 361.485 65.141,362.656 64.551,365.167 63.748 C 367.770 62.915,369.541 62.035,370.833 60.932 C 372.152 59.808,373.322 59.218,375.833 58.415 C 378.519 57.556,380.201 56.700,381.723 55.421 C 382.977 54.366,384.878 53.275,386.218 52.840 C 387.170 52.531,388.744 51.007,388.595 50.538 C 388.373 49.838,387.090 48.997,385.334 48.401 C 383.045 47.624,381.173 46.653,380.115 45.695 C 378.647 44.366,377.745 43.930,374.000 42.742 C 372.052 42.124,370.495 41.310,369.447 40.361 C 367.980 39.033,367.078 38.597,363.333 37.409 C 361.385 36.791,359.828 35.976,358.781 35.028 C 357.562 33.925,356.418 33.309,354.110 32.515 C 351.633 31.663,350.214 30.916,348.833 29.739 C 347.464 28.572,345.698 27.684,343.206 26.909 C 340.858 26.179,339.390 25.439,338.068 24.318 C 336.789 23.233,334.972 22.332,332.540 21.576 C 330.191 20.846,328.724 20.106,327.402 18.985 C 326.125 17.902,324.309 17.000,321.873 16.240 C 319.941 15.637,318.669 15.086,317.808 14.479 C 317.258 14.091,317.293 14.089,316.083 14.583 M319.000 16.333 C 319.688 16.588,320.850 16.927,321.583 17.087 C 323.420 17.489,324.932 18.282,326.006 19.408 C 327.377 20.844,329.304 21.774,332.250 22.420 C 334.088 22.823,335.599 23.616,336.673 24.741 C 338.044 26.178,339.971 27.107,342.917 27.753 C 344.784 28.163,346.255 28.943,347.393 30.128 C 348.557 31.339,350.705 32.476,353.000 33.093 C 355.354 33.727,356.395 34.258,357.256 35.265 C 358.538 36.766,360.807 37.870,364.083 38.587 C 365.881 38.980,367.127 39.630,367.907 40.583 C 369.105 42.044,371.488 43.207,374.750 43.920 C 376.548 44.314,377.793 44.964,378.574 45.916 C 379.743 47.343,381.793 48.393,385.113 49.265 C 386.343 49.588,386.874 49.816,387.247 50.181 L 387.744 50.667 387.164 51.219 C 386.772 51.592,386.177 51.897,385.333 52.157 C 383.207 52.812,381.052 54.073,379.864 55.358 C 379.004 56.290,377.023 57.244,374.733 57.831 C 371.915 58.552,370.048 59.547,368.993 60.888 C 368.442 61.588,366.230 62.610,364.066 63.164 C 361.249 63.886,359.381 64.880,358.326 66.221 C 357.776 66.921,355.563 67.943,353.399 68.497 C 350.582 69.219,348.714 70.214,347.660 71.554 C 347.109 72.255,344.897 73.277,342.733 73.831 C 339.915 74.552,338.048 75.547,336.993 76.888 C 336.442 77.588,334.230 78.610,332.066 79.164 C 329.249 79.886,327.381 80.880,326.326 82.221 C 325.772 82.926,323.564 83.943,321.378 84.501 C 320.299 84.776,318.957 85.225,318.396 85.500 C 316.969 86.199,316.212 85.855,314.975 83.942 L 314.333 82.948 314.333 74.820 L 314.333 66.693 313.784 65.972 C 312.695 64.544,311.020 63.695,308.083 63.083 C 307.066 62.870,289.174 62.839,168.006 62.836 L 29.096 62.833 27.715 62.149 L 26.333 61.465 26.333 50.667 L 26.333 39.868 27.715 39.184 L 29.096 38.500 168.006 38.497 C 289.174 38.495,307.066 38.463,308.083 38.251 C 311.020 37.638,312.695 36.789,313.784 35.361 L 314.333 34.641 314.334 26.612 C 314.335 18.751,314.342 18.571,314.685 18.000 C 315.401 16.808,316.981 15.551,317.496 15.766 C 317.636 15.824,318.313 16.079,319.000 16.333 " stroke="none" fill="#545454" fill-rule="evenodd"></path><path id="path5" d="M314.286 12.996 C 313.114 13.157,312.114 13.331,312.063 13.381 C 311.634 13.810,311.439 17.184,311.347 25.744 L 311.250 34.738 310.350 35.366 C 309.855 35.712,308.864 36.221,308.147 36.497 L 306.844 37.000 168.044 37.000 L 29.243 37.000 28.025 37.338 C 26.552 37.746,24.999 38.503,24.042 39.281 L 23.333 39.856 23.333 50.667 L 23.333 61.478 24.042 62.053 C 24.999 62.830,26.552 63.588,28.025 63.996 L 29.243 64.333 168.044 64.333 L 306.844 64.333 308.147 64.836 C 308.864 65.112,309.855 65.621,310.350 65.967 L 311.250 66.595 311.354 76.756 C 311.465 87.495,311.502 88.106,312.066 88.343 C 312.360 88.467,316.794 89.167,317.284 89.167 C 317.371 89.167,317.908 88.763,318.477 88.270 C 319.891 87.046,321.027 86.476,323.985 85.510 C 326.765 84.603,327.904 84.026,329.261 82.838 C 330.531 81.726,331.751 81.124,334.652 80.177 C 337.431 79.269,338.570 78.692,339.927 77.505 C 341.198 76.393,342.418 75.791,345.318 74.844 C 348.098 73.936,349.237 73.359,350.594 72.171 C 351.865 71.060,353.084 70.458,355.985 69.510 C 358.765 68.603,359.904 68.026,361.261 66.838 C 362.531 65.726,363.751 65.124,366.652 64.177 C 369.431 63.269,370.570 62.692,371.927 61.505 C 373.198 60.393,374.418 59.791,377.318 58.844 C 380.063 57.947,381.341 57.306,382.500 56.243 C 383.564 55.268,384.552 54.631,386.261 53.819 C 387.852 53.063,389.399 51.712,389.602 50.901 C 389.819 50.038,388.125 48.495,386.137 47.744 C 384.003 46.939,382.228 45.981,380.982 44.963 C 379.459 43.719,378.782 43.378,375.973 42.444 C 373.150 41.506,371.739 40.801,370.265 39.590 C 368.804 38.391,368.101 38.040,365.306 37.111 C 362.483 36.173,361.072 35.467,359.598 34.257 C 358.186 33.099,357.420 32.702,355.075 31.918 C 352.752 31.141,351.350 30.402,350.052 29.269 C 348.467 27.887,346.963 27.131,344.215 26.337 C 342.585 25.866,340.270 24.680,339.211 23.774 C 337.769 22.540,336.187 21.766,333.549 21.004 C 331.919 20.533,329.604 19.347,328.544 18.440 C 327.102 17.207,325.520 16.433,322.882 15.671 C 321.355 15.229,318.955 14.031,318.057 13.261 C 317.261 12.579,317.299 12.581,314.286 12.996 M317.808 14.479 C 318.669 15.086,319.941 15.637,321.873 16.240 C 324.309 17.000,326.125 17.902,327.402 18.985 C 328.724 20.106,330.191 20.846,332.540 21.576 C 334.972 22.332,336.789 23.233,338.068 24.318 C 339.390 25.439,340.858 26.179,343.206 26.909 C 345.698 27.684,347.464 28.572,348.833 29.739 C 350.214 30.916,351.633 31.663,354.110 32.515 C 356.418 33.309,357.562 33.925,358.781 35.028 C 359.828 35.976,361.385 36.791,363.333 37.409 C 367.078 38.597,367.980 39.033,369.447 40.361 C 370.495 41.310,372.052 42.124,374.000 42.742 C 377.745 43.930,378.647 44.366,380.115 45.695 C 381.173 46.653,383.045 47.624,385.334 48.401 C 387.090 48.997,388.373 49.838,388.595 50.538 C 388.744 51.007,387.170 52.531,386.218 52.840 C 384.878 53.275,382.977 54.366,381.723 55.421 C 380.201 56.700,378.519 57.556,375.833 58.415 C 373.322 59.218,372.152 59.808,370.833 60.932 C 369.541 62.035,367.770 62.915,365.167 63.748 C 362.656 64.551,361.485 65.141,360.167 66.266 C 358.874 67.369,357.103 68.249,354.500 69.081 C 351.989 69.885,350.818 70.474,349.500 71.599 C 348.207 72.702,346.436 73.582,343.833 74.415 C 341.322 75.218,340.152 75.808,338.833 76.932 C 337.541 78.035,335.770 78.915,333.167 79.748 C 330.656 80.551,329.485 81.141,328.167 82.266 C 326.874 83.369,325.103 84.249,322.500 85.081 C 320.238 85.805,318.831 86.466,317.924 87.232 L 317.264 87.788 316.263 87.450 C 314.964 87.011,313.866 85.940,313.316 84.573 C 312.917 83.585,312.917 83.572,312.833 75.035 L 312.750 66.486 312.083 65.909 C 311.170 65.118,309.354 64.258,307.722 63.845 L 306.361 63.500 167.684 63.500 L 29.008 63.500 27.895 63.081 C 26.692 62.628,25.801 62.141,25.208 61.611 L 24.833 61.275 24.833 50.667 L 24.833 40.058 25.208 39.723 C 25.801 39.193,26.692 38.705,27.895 38.252 L 29.008 37.833 167.684 37.833 L 306.361 37.833 307.722 37.488 C 309.460 37.048,311.222 36.197,312.125 35.361 L 312.833 34.705 312.833 26.609 C 312.833 18.716,312.842 18.488,313.194 17.549 C 313.681 16.247,314.786 15.113,316.083 14.583 C 317.293 14.089,317.258 14.091,317.808 14.479 " stroke="none" fill="#838383" fill-rule="evenodd"></path><path id="path6" d="M314.250 12.098 C 312.032 12.350,311.632 12.475,311.269 13.034 C 310.721 13.876,310.500 17.717,310.500 26.398 L 310.500 34.644 310.042 34.968 C 309.790 35.146,309.096 35.544,308.500 35.854 L 307.417 36.417 168.083 36.500 L 28.750 36.583 27.439 36.966 C 25.677 37.479,24.293 38.202,23.312 39.119 L 22.500 39.879 22.500 50.667 L 22.500 61.454 23.312 62.214 C 24.293 63.131,25.677 63.854,27.439 64.368 L 28.750 64.750 168.083 64.833 L 307.417 64.917 308.500 65.479 C 309.096 65.789,309.781 66.182,310.024 66.353 L 310.464 66.664 310.527 77.207 C 310.606 90.235,310.227 89.112,314.714 89.614 C 317.719 89.950,317.669 89.962,319.160 88.530 C 320.343 87.394,321.769 86.677,324.167 86.014 C 326.753 85.298,328.598 84.387,329.794 83.233 C 331.007 82.062,332.413 81.350,334.833 80.681 C 337.420 79.965,339.264 79.053,340.461 77.899 C 341.673 76.729,343.080 76.017,345.500 75.347 C 348.087 74.632,349.931 73.720,351.127 72.566 C 352.340 71.396,353.746 70.684,356.167 70.014 C 358.753 69.298,360.598 68.387,361.794 67.233 C 363.007 66.062,364.413 65.350,366.833 64.681 C 369.420 63.965,371.264 63.053,372.461 61.899 C 373.673 60.729,375.080 60.017,377.500 59.347 C 380.021 58.650,381.992 57.690,383.024 56.658 C 384.085 55.598,384.963 55.006,386.706 54.178 C 388.288 53.426,389.438 52.435,389.996 51.341 L 390.352 50.644 389.917 49.902 C 389.328 48.897,388.095 47.961,386.632 47.409 C 384.548 46.622,382.964 45.744,381.667 44.656 C 380.248 43.466,378.789 42.742,376.509 42.098 C 374.258 41.461,372.450 40.552,371.000 39.329 C 369.585 38.135,368.130 37.411,365.843 36.764 C 363.591 36.127,361.783 35.219,360.333 33.995 C 358.946 32.825,357.420 32.051,355.426 31.510 C 353.562 31.003,351.720 29.997,350.527 28.833 C 349.303 27.639,347.451 26.699,345.083 26.070 C 342.948 25.503,341.127 24.584,339.809 23.408 C 338.527 22.264,336.632 21.326,334.417 20.737 C 332.282 20.170,330.460 19.250,329.142 18.074 C 327.860 16.931,325.966 15.992,323.750 15.404 C 321.621 14.838,319.794 13.918,318.489 12.753 C 317.314 11.704,317.489 11.732,314.250 12.098 M318.057 13.261 C 318.955 14.031,321.355 15.229,322.882 15.671 C 325.520 16.433,327.102 17.207,328.544 18.440 C 329.604 19.347,331.919 20.533,333.549 21.004 C 336.187 21.766,337.769 22.540,339.211 23.774 C 340.270 24.680,342.585 25.866,344.215 26.337 C 346.963 27.131,348.467 27.887,350.052 29.269 C 351.350 30.402,352.752 31.141,355.075 31.918 C 357.420 32.702,358.186 33.099,359.598 34.257 C 361.072 35.467,362.483 36.173,365.306 37.111 C 368.101 38.040,368.804 38.391,370.265 39.590 C 371.739 40.801,373.150 41.506,375.973 42.444 C 378.782 43.378,379.459 43.719,380.982 44.963 C 382.228 45.981,384.003 46.939,386.137 47.744 C 388.125 48.495,389.819 50.038,389.602 50.901 C 389.399 51.712,387.852 53.063,386.261 53.819 C 384.552 54.631,383.564 55.268,382.500 56.243 C 381.341 57.306,380.063 57.947,377.318 58.844 C 374.418 59.791,373.198 60.393,371.927 61.505 C 370.570 62.692,369.431 63.269,366.652 64.177 C 363.751 65.124,362.531 65.726,361.261 66.838 C 359.904 68.026,358.765 68.603,355.985 69.510 C 353.084 70.458,351.865 71.060,350.594 72.171 C 349.237 73.359,348.098 73.936,345.318 74.844 C 342.418 75.791,341.198 76.393,339.927 77.505 C 338.570 78.692,337.431 79.269,334.652 80.177 C 331.751 81.124,330.531 81.726,329.261 82.838 C 327.904 84.026,326.765 84.603,323.985 85.510 C 321.027 86.476,319.891 87.046,318.477 88.270 C 317.908 88.763,317.371 89.167,317.284 89.167 C 316.794 89.167,312.360 88.467,312.066 88.343 C 311.502 88.106,311.465 87.495,311.354 76.756 L 311.250 66.595 310.350 65.967 C 309.855 65.621,308.864 65.112,308.147 64.836 L 306.844 64.333 168.044 64.333 L 29.243 64.333 28.025 63.996 C 26.552 63.588,24.999 62.830,24.042 62.053 L 23.333 61.478 23.333 50.667 L 23.333 39.856 24.042 39.281 C 24.999 38.503,26.552 37.746,28.025 37.338 L 29.243 37.000 168.044 37.000 L 306.844 37.000 308.147 36.497 C 308.864 36.221,309.855 35.712,310.350 35.366 L 311.250 34.738 311.347 25.744 C 311.439 17.184,311.634 13.810,312.063 13.381 C 312.162 13.283,316.097 12.715,316.890 12.685 C 317.209 12.673,317.589 12.860,318.057 13.261 " stroke="none" fill="#9b9b9b" fill-rule="evenodd"></path><path id="path7" d="M313.877 11.231 L 311.837 11.417 310.964 12.290 C 309.815 13.439,309.843 13.163,309.699 25.083 L 309.583 34.750 308.188 35.458 L 306.793 36.167 167.893 36.167 L 28.994 36.167 27.372 36.518 C 24.754 37.084,22.998 38.013,22.102 39.306 L 21.667 39.935 21.667 50.667 L 21.667 61.399 22.102 62.027 C 22.998 63.320,24.754 64.249,27.372 64.816 L 28.994 65.167 167.893 65.167 L 306.793 65.167 308.188 65.875 L 309.583 66.583 309.667 77.276 L 309.750 87.969 310.260 88.599 C 311.427 90.041,311.633 90.128,314.622 90.423 L 317.328 90.691 318.167 90.234 C 318.629 89.983,319.441 89.311,319.972 88.741 C 321.047 87.586,322.089 86.992,323.583 86.681 C 327.022 85.966,329.182 84.970,330.601 83.447 C 331.715 82.251,332.739 81.662,334.250 81.348 C 337.688 80.633,339.849 79.637,341.268 78.114 C 342.382 76.918,343.406 76.329,344.917 76.014 C 348.355 75.299,350.516 74.304,351.934 72.780 C 353.049 71.584,354.073 70.995,355.583 70.681 C 359.022 69.966,361.182 68.970,362.601 67.447 C 363.715 66.251,364.739 65.662,366.250 65.348 C 369.688 64.633,371.849 63.637,373.268 62.114 C 374.382 60.918,375.406 60.329,376.917 60.014 C 380.418 59.286,382.585 58.278,383.948 56.743 C 384.802 55.780,385.156 55.534,386.946 54.657 C 392.065 52.149,392.008 48.902,386.810 46.945 C 384.867 46.214,383.662 45.503,382.695 44.520 C 381.477 43.279,379.595 42.325,377.384 41.826 C 375.010 41.290,373.244 40.424,372.054 39.212 C 370.809 37.945,368.947 36.996,366.717 36.492 C 364.356 35.959,362.579 35.090,361.387 33.885 C 360.116 32.601,358.520 31.784,356.045 31.150 C 353.613 30.528,352.372 29.853,351.204 28.517 C 350.049 27.197,348.361 26.348,345.500 25.647 C 342.958 25.024,341.794 24.433,340.766 23.243 C 339.706 22.015,337.659 21.004,334.833 20.313 C 332.291 19.691,331.127 19.100,330.099 17.909 C 329.039 16.681,326.993 15.671,324.167 14.980 C 321.702 14.377,320.399 13.734,319.556 12.705 C 318.162 11.004,317.695 10.883,313.877 11.231 M318.489 12.753 C 319.794 13.918,321.621 14.838,323.750 15.404 C 325.966 15.992,327.860 16.931,329.142 18.074 C 330.460 19.250,332.282 20.170,334.417 20.737 C 336.632 21.326,338.527 22.264,339.809 23.408 C 341.127 24.584,342.948 25.503,345.083 26.070 C 347.451 26.699,349.303 27.639,350.527 28.833 C 351.720 29.997,353.562 31.003,355.426 31.510 C 357.420 32.051,358.946 32.825,360.333 33.995 C 361.783 35.219,363.591 36.127,365.843 36.764 C 368.130 37.411,369.585 38.135,371.000 39.329 C 372.450 40.552,374.258 41.461,376.509 42.098 C 378.789 42.742,380.248 43.466,381.667 44.656 C 382.964 45.744,384.548 46.622,386.632 47.409 C 388.095 47.961,389.328 48.897,389.917 49.902 L 390.352 50.644 389.996 51.341 C 389.438 52.435,388.288 53.426,386.706 54.178 C 384.963 55.006,384.085 55.598,383.024 56.658 C 381.992 57.690,380.021 58.650,377.500 59.347 C 375.080 60.017,373.673 60.729,372.461 61.899 C 371.264 63.053,369.420 63.965,366.833 64.681 C 364.413 65.350,363.007 66.062,361.794 67.233 C 360.598 68.387,358.753 69.298,356.167 70.014 C 353.746 70.684,352.340 71.396,351.127 72.566 C 349.931 73.720,348.087 74.632,345.500 75.347 C 343.080 76.017,341.673 76.729,340.461 77.899 C 339.264 79.053,337.420 79.965,334.833 80.681 C 332.413 81.350,331.007 82.062,329.794 83.233 C 328.598 84.387,326.753 85.298,324.167 86.014 C 321.769 86.677,320.343 87.394,319.160 88.530 C 317.669 89.962,317.719 89.950,314.714 89.614 C 310.227 89.112,310.606 90.235,310.527 77.207 L 310.464 66.664 310.024 66.353 C 309.781 66.182,309.096 65.789,308.500 65.479 L 307.417 64.917 168.083 64.833 L 28.750 64.750 27.439 64.368 C 25.677 63.854,24.293 63.131,23.312 62.214 L 22.500 61.454 22.500 50.667 L 22.500 39.879 23.312 39.119 C 24.293 38.202,25.677 37.479,27.439 36.966 L 28.750 36.583 168.083 36.500 L 307.417 36.417 308.500 35.854 C 309.096 35.544,309.790 35.146,310.042 34.968 L 310.500 34.644 310.500 26.398 C 310.500 17.717,310.721 13.876,311.269 13.034 C 311.632 12.475,312.032 12.350,314.250 12.098 C 317.489 11.732,317.314 11.704,318.489 12.753 " stroke="none" fill="#ababab" fill-rule="evenodd"></path><path id="path8" d="M313.662 10.333 C 311.445 10.480,310.492 11.019,309.431 12.727 C 308.975 13.461,308.846 16.348,308.840 26.035 L 308.833 34.653 308.042 35.118 L 307.250 35.583 167.750 35.668 C 34.382 35.748,28.185 35.765,26.775 36.051 C 23.944 36.626,22.425 37.411,21.463 38.796 L 20.917 39.583 20.917 50.667 L 20.917 61.750 21.463 62.537 C 22.425 63.923,23.944 64.708,26.775 65.282 C 28.185 65.568,34.382 65.585,167.750 65.666 L 307.250 65.750 308.031 66.209 L 308.811 66.668 308.864 77.395 L 308.917 88.121 309.500 88.983 C 310.755 90.835,312.181 91.312,316.500 91.326 C 318.498 91.332,320.061 90.440,321.015 88.748 C 321.590 87.730,322.068 87.477,324.167 87.081 C 328.505 86.262,330.672 85.205,331.682 83.415 C 332.257 82.396,332.735 82.144,334.833 81.747 C 339.172 80.929,341.339 79.872,342.349 78.082 C 342.924 77.063,343.401 76.810,345.500 76.414 C 349.839 75.595,352.005 74.538,353.015 72.748 C 353.590 71.730,354.068 71.477,356.167 71.081 C 360.505 70.262,362.672 69.205,363.682 67.415 C 364.257 66.396,364.735 66.144,366.833 65.747 C 371.172 64.929,373.339 63.872,374.349 62.082 C 374.924 61.063,375.401 60.810,377.500 60.414 C 381.798 59.603,383.993 58.542,384.991 56.795 C 385.532 55.848,386.120 55.440,387.603 54.982 C 389.397 54.428,390.476 53.392,391.158 51.568 L 391.495 50.667 391.163 49.778 C 390.551 48.143,389.117 46.948,387.333 46.586 C 386.025 46.321,384.443 45.374,383.917 44.541 C 382.951 43.013,380.616 41.856,377.257 41.240 C 375.172 40.858,373.887 40.205,373.250 39.203 C 372.281 37.678,369.943 36.521,366.590 35.907 C 364.505 35.525,363.220 34.872,362.583 33.870 C 361.612 32.342,359.266 31.183,355.917 30.575 C 354.115 30.248,352.809 29.579,352.496 28.823 C 351.766 27.061,349.720 25.970,345.523 25.101 C 343.157 24.612,342.561 24.301,341.839 23.175 C 340.760 21.493,338.965 20.618,334.856 19.768 C 332.490 19.279,331.894 18.967,331.172 17.841 C 330.093 16.160,328.299 15.285,324.189 14.435 C 321.823 13.945,321.228 13.634,320.505 12.508 C 319.939 11.625,319.313 11.083,318.215 10.524 C 317.456 10.138,316.941 10.116,313.662 10.333 M318.188 11.478 C 318.602 11.740,319.218 12.293,319.556 12.705 C 320.399 13.734,321.702 14.377,324.167 14.980 C 326.993 15.671,329.039 16.681,330.099 17.909 C 331.127 19.100,332.291 19.691,334.833 20.313 C 337.659 21.004,339.706 22.015,340.766 23.243 C 341.794 24.433,342.958 25.024,345.500 25.647 C 348.361 26.348,350.049 27.197,351.204 28.517 C 352.372 29.853,353.613 30.528,356.045 31.150 C 358.520 31.784,360.116 32.601,361.387 33.885 C 362.579 35.090,364.356 35.959,366.717 36.492 C 368.947 36.996,370.809 37.945,372.054 39.212 C 373.244 40.424,375.010 41.290,377.384 41.826 C 379.595 42.325,381.477 43.279,382.695 44.520 C 383.662 45.503,384.867 46.214,386.810 46.945 C 392.008 48.902,392.065 52.149,386.946 54.657 C 385.156 55.534,384.802 55.780,383.948 56.743 C 382.585 58.278,380.418 59.286,376.917 60.014 C 375.406 60.329,374.382 60.918,373.268 62.114 C 371.849 63.637,369.688 64.633,366.250 65.348 C 364.739 65.662,363.715 66.251,362.601 67.447 C 361.182 68.970,359.022 69.966,355.583 70.681 C 354.073 70.995,353.049 71.584,351.934 72.780 C 350.516 74.304,348.355 75.299,344.917 76.014 C 343.406 76.329,342.382 76.918,341.268 78.114 C 339.849 79.637,337.688 80.633,334.250 81.348 C 332.739 81.662,331.715 82.251,330.601 83.447 C 329.182 84.970,327.022 85.966,323.583 86.681 C 322.089 86.992,321.047 87.586,319.972 88.741 C 319.441 89.311,318.629 89.983,318.167 90.234 L 317.328 90.691 314.622 90.423 C 311.633 90.128,311.427 90.041,310.260 88.599 L 309.750 87.969 309.667 77.276 L 309.583 66.583 308.188 65.875 L 306.793 65.167 167.893 65.167 L 28.994 65.167 27.372 64.816 C 24.754 64.249,22.998 63.320,22.102 62.027 L 21.667 61.399 21.667 50.667 L 21.667 39.935 22.102 39.306 C 22.998 38.013,24.754 37.084,27.372 36.518 L 28.994 36.167 167.893 36.167 L 306.793 36.167 308.188 35.458 L 309.583 34.750 309.699 25.083 C 309.843 13.163,309.815 13.439,310.964 12.290 L 311.837 11.417 313.877 11.231 C 317.175 10.930,317.340 10.940,318.188 11.478 " stroke="none" fill="#c3c3c3" fill-rule="evenodd"></path><path id="path9" d="M313.083 9.651 C 310.844 9.822,309.486 10.717,308.637 12.583 L 308.258 13.417 308.196 24.046 L 308.134 34.675 307.609 34.963 C 307.113 35.234,299.253 35.255,167.417 35.335 C 33.899 35.417,27.674 35.434,26.021 35.721 C 22.821 36.275,21.530 36.992,20.686 38.680 L 20.167 39.720 20.167 50.667 L 20.167 61.613 20.686 62.653 C 21.530 64.341,22.821 65.058,26.021 65.613 C 27.674 65.900,33.899 65.917,167.417 65.998 C 300.796 66.079,307.108 66.097,307.625 66.379 L 308.167 66.675 308.167 77.248 C 308.167 89.325,308.124 88.931,309.596 90.404 C 310.714 91.521,311.565 91.767,314.793 91.908 C 318.868 92.086,320.476 91.431,321.667 89.111 C 322.356 87.768,322.362 87.764,324.110 87.514 C 329.159 86.792,331.483 85.716,332.398 83.678 C 332.934 82.485,333.015 82.434,334.777 82.181 C 339.830 81.457,342.150 80.383,343.065 78.345 C 343.600 77.151,343.681 77.100,345.444 76.848 C 350.497 76.123,352.817 75.050,353.731 73.012 C 354.267 71.818,354.348 71.767,356.110 71.514 C 361.164 70.790,363.483 69.716,364.398 67.678 C 364.934 66.485,365.015 66.434,366.777 66.181 C 371.830 65.457,374.150 64.383,375.065 62.345 C 375.603 61.146,375.676 61.101,377.500 60.840 C 382.482 60.125,384.727 59.085,385.726 57.029 C 386.318 55.810,386.331 55.800,387.890 55.408 C 391.421 54.520,392.913 50.731,390.853 47.886 C 390.297 47.119,389.403 46.633,387.833 46.245 C 385.730 45.725,385.360 45.525,385.003 44.718 C 384.069 42.607,381.945 41.474,377.839 40.899 C 375.831 40.618,374.570 40.134,374.434 39.593 C 373.936 37.610,371.290 36.142,367.173 35.566 C 365.165 35.285,363.903 34.801,363.767 34.260 C 363.263 32.250,360.690 30.843,356.327 30.192 C 354.076 29.856,353.649 29.635,353.170 28.553 C 352.193 26.342,350.371 25.392,345.833 24.727 C 343.419 24.373,343.248 24.291,342.778 23.265 C 341.767 21.056,339.549 19.958,334.833 19.331 C 332.806 19.061,332.574 18.942,332.112 17.932 C 331.100 15.723,328.882 14.624,324.167 13.997 C 322.139 13.728,321.908 13.609,321.445 12.599 C 320.215 9.911,318.340 9.251,313.083 9.651 M318.215 10.524 C 319.313 11.083,319.939 11.625,320.505 12.508 C 321.228 13.634,321.823 13.945,324.189 14.435 C 328.299 15.285,330.093 16.160,331.172 17.841 C 331.894 18.967,332.490 19.279,334.856 19.768 C 338.965 20.618,340.760 21.493,341.839 23.175 C 342.561 24.301,343.157 24.612,345.523 25.101 C 349.720 25.970,351.766 27.061,352.496 28.823 C 352.809 29.579,354.115 30.248,355.917 30.575 C 359.266 31.183,361.612 32.342,362.583 33.870 C 363.220 34.872,364.505 35.525,366.590 35.907 C 369.943 36.521,372.281 37.678,373.250 39.203 C 373.887 40.205,375.172 40.858,377.257 41.240 C 380.616 41.856,382.951 43.013,383.917 44.541 C 384.443 45.374,386.025 46.321,387.333 46.586 C 389.117 46.948,390.551 48.143,391.163 49.778 L 391.495 50.667 391.158 51.568 C 390.476 53.392,389.397 54.428,387.603 54.982 C 386.120 55.440,385.532 55.848,384.991 56.795 C 383.993 58.542,381.798 59.603,377.500 60.414 C 375.401 60.810,374.924 61.063,374.349 62.082 C 373.339 63.872,371.172 64.929,366.833 65.747 C 364.735 66.144,364.257 66.396,363.682 67.415 C 362.672 69.205,360.505 70.262,356.167 71.081 C 354.068 71.477,353.590 71.730,353.015 72.748 C 352.005 74.538,349.839 75.595,345.500 76.414 C 343.401 76.810,342.924 77.063,342.349 78.082 C 341.339 79.872,339.172 80.929,334.833 81.747 C 332.735 82.144,332.257 82.396,331.682 83.415 C 330.672 85.205,328.505 86.262,324.167 87.081 C 322.068 87.477,321.590 87.730,321.015 88.748 C 320.061 90.440,318.498 91.332,316.500 91.326 C 312.181 91.312,310.755 90.835,309.500 88.983 L 308.917 88.121 308.864 77.395 L 308.811 66.668 308.031 66.209 L 307.250 65.750 167.750 65.666 C 34.382 65.585,28.185 65.568,26.775 65.282 C 23.944 64.708,22.425 63.923,21.463 62.537 L 20.917 61.750 20.917 50.667 L 20.917 39.583 21.463 38.796 C 22.425 37.411,23.944 36.626,26.775 36.051 C 28.185 35.765,34.382 35.748,167.750 35.668 L 307.250 35.583 308.042 35.118 L 308.833 34.653 308.840 26.035 C 308.846 16.348,308.975 13.461,309.431 12.727 C 310.492 11.019,311.445 10.480,313.662 10.333 C 316.941 10.116,317.456 10.138,318.215 10.524 " stroke="none" fill="#d3d3d3" fill-rule="evenodd"></path><path id="path10" d="M313.333 8.653 C 307.138 8.924,307.204 8.734,307.179 26.369 C 307.167 34.384,307.156 34.661,306.844 34.827 C 306.623 34.946,262.718 35.000,166.553 35.000 C 71.753 35.000,25.992 35.056,24.750 35.172 C 19.057 35.706,19.250 35.162,19.250 50.667 C 19.250 66.171,19.057 65.628,24.750 66.161 C 25.992 66.278,71.766 66.333,166.593 66.333 C 278.346 66.333,306.657 66.375,306.872 66.542 C 307.113 66.729,307.148 67.880,307.215 77.750 C 307.319 93.349,306.986 92.715,315.083 92.739 C 320.193 92.754,321.239 92.487,322.404 90.872 C 322.686 90.481,323.167 89.981,323.473 89.760 C 323.779 89.540,324.248 89.061,324.516 88.697 C 325.055 87.965,325.089 87.955,328.851 87.418 C 331.357 87.061,331.818 86.897,332.539 86.107 C 333.791 84.737,333.946 84.577,334.428 84.167 C 334.697 83.937,335.104 83.506,335.333 83.208 C 335.737 82.684,335.822 82.655,338.000 82.328 C 342.455 81.659,342.775 81.540,343.737 80.206 C 344.019 79.814,344.500 79.314,344.806 79.094 C 345.112 78.873,345.582 78.395,345.850 78.030 C 346.388 77.298,346.422 77.288,350.184 76.751 C 352.690 76.394,353.151 76.230,353.873 75.440 C 355.124 74.070,355.280 73.910,355.761 73.500 C 356.030 73.271,356.438 72.839,356.667 72.541 C 357.070 72.017,357.156 71.989,359.333 71.661 C 363.788 70.992,364.108 70.873,365.071 69.539 C 365.353 69.148,365.834 68.647,366.139 68.427 C 366.445 68.207,366.915 67.728,367.183 67.363 C 367.721 66.632,367.756 66.621,371.518 66.085 C 374.024 65.727,374.484 65.564,375.206 64.773 C 376.458 63.403,376.613 63.244,377.094 62.833 C 377.363 62.604,377.771 62.173,378.000 61.875 C 378.403 61.350,378.489 61.322,380.667 60.995 C 385.122 60.325,385.442 60.207,386.404 58.872 C 386.686 58.481,387.167 57.981,387.473 57.760 C 387.779 57.540,388.253 57.055,388.526 56.683 C 388.890 56.189,389.212 55.956,389.720 55.821 C 390.614 55.583,391.451 54.947,391.781 54.254 C 391.925 53.952,392.284 53.593,392.585 53.450 C 393.416 53.053,394.238 52.258,394.682 51.422 L 395.083 50.667 394.682 49.911 C 394.235 49.068,393.415 48.280,392.564 47.874 C 392.254 47.726,392.000 47.550,392.000 47.482 C 392.000 46.659,390.460 45.884,388.344 45.643 C 387.467 45.542,386.666 45.438,386.563 45.410 C 386.459 45.382,386.323 44.998,386.259 44.555 C 385.816 41.488,384.537 40.819,378.091 40.276 L 375.764 40.080 375.555 39.045 C 374.946 36.037,373.848 35.483,367.424 34.943 L 365.098 34.747 364.888 33.712 C 364.280 30.704,363.181 30.150,356.761 29.610 L 354.439 29.414 354.241 28.240 C 353.745 25.299,352.840 24.848,345.892 24.084 C 344.670 23.950,344.135 23.494,343.835 22.333 C 343.459 20.875,342.541 19.940,341.167 19.616 C 340.637 19.490,336.575 18.899,335.226 18.751 C 334.004 18.616,333.468 18.161,333.169 17.000 C 332.792 15.542,331.874 14.607,330.500 14.282 C 329.970 14.157,325.909 13.566,324.559 13.417 C 323.337 13.283,322.802 12.827,322.502 11.667 C 321.815 9.003,319.880 8.367,313.333 8.653 M319.030 10.057 C 320.132 10.588,320.890 11.386,321.445 12.599 C 321.908 13.609,322.139 13.728,324.167 13.997 C 328.882 14.624,331.100 15.723,332.112 17.932 C 332.574 18.942,332.806 19.061,334.833 19.331 C 339.549 19.958,341.767 21.056,342.778 23.265 C 343.248 24.291,343.419 24.373,345.833 24.727 C 350.371 25.392,352.193 26.342,353.170 28.553 C 353.649 29.635,354.076 29.856,356.327 30.192 C 360.690 30.843,363.263 32.250,363.767 34.260 C 363.903 34.801,365.165 35.285,367.173 35.566 C 371.290 36.142,373.936 37.610,374.434 39.593 C 374.570 40.134,375.831 40.618,377.839 40.899 C 381.945 41.474,384.069 42.607,385.003 44.718 C 385.360 45.525,385.730 45.725,387.833 46.245 C 393.145 47.558,393.186 54.077,387.890 55.408 C 386.331 55.800,386.318 55.810,385.726 57.029 C 384.727 59.085,382.482 60.125,377.500 60.840 C 375.676 61.101,375.603 61.146,375.065 62.345 C 374.150 64.383,371.830 65.457,366.777 66.181 C 365.015 66.434,364.934 66.485,364.398 67.678 C 363.483 69.716,361.164 70.790,356.110 71.514 C 354.348 71.767,354.267 71.818,353.731 73.012 C 352.817 75.050,350.497 76.123,345.444 76.848 C 343.681 77.100,343.600 77.151,343.065 78.345 C 342.150 80.383,339.830 81.457,334.777 82.181 C 333.015 82.434,332.934 82.485,332.398 83.678 C 331.483 85.716,329.159 86.792,324.110 87.514 C 322.362 87.764,322.356 87.768,321.667 89.111 C 320.476 91.431,318.868 92.086,314.793 91.908 C 311.565 91.767,310.714 91.521,309.596 90.404 C 308.124 88.931,308.167 89.325,308.167 77.248 L 308.167 66.675 307.625 66.379 C 307.108 66.097,300.796 66.079,167.417 65.998 C 33.899 65.917,27.674 65.900,26.021 65.613 C 22.821 65.058,21.530 64.341,20.686 62.653 L 20.167 61.613 20.167 50.667 L 20.167 39.720 20.686 38.680 C 21.530 36.992,22.821 36.275,26.021 35.721 C 27.674 35.434,33.899 35.417,167.417 35.335 C 299.253 35.255,307.113 35.234,307.609 34.963 L 308.134 34.675 308.196 24.046 L 308.258 13.417 308.637 12.583 C 309.486 10.717,310.844 9.822,313.083 9.651 C 316.107 9.421,317.976 9.548,319.030 10.057 " stroke="none" fill="#e3e3e3" fill-rule="evenodd"></path><path id="path11" d="M0.000 50.667 L 0.000 101.333 200.000 101.333 L 400.000 101.333 400.000 50.667 L 400.000 0.000 200.000 0.000 L 0.000 0.000 0.000 50.667 M319.391 8.859 C 321.189 9.240,322.084 10.048,322.502 11.667 C 322.802 12.827,323.337 13.283,324.559 13.417 C 325.909 13.566,329.970 14.157,330.500 14.282 C 331.874 14.607,332.792 15.542,333.169 17.000 C 333.468 18.161,334.004 18.616,335.226 18.751 C 336.575 18.899,340.637 19.490,341.167 19.616 C 342.541 19.940,343.459 20.875,343.835 22.333 C 344.135 23.494,344.670 23.950,345.892 24.084 C 352.840 24.848,353.745 25.299,354.241 28.240 L 354.439 29.414 356.761 29.610 C 363.181 30.150,364.280 30.704,364.888 33.712 L 365.098 34.747 367.424 34.943 C 373.848 35.483,374.946 36.037,375.555 39.045 L 375.764 40.080 378.091 40.276 C 384.537 40.819,385.816 41.488,386.259 44.555 C 386.323 44.998,386.459 45.382,386.563 45.410 C 386.666 45.438,387.467 45.542,388.344 45.643 C 390.460 45.884,392.000 46.659,392.000 47.482 C 392.000 47.550,392.254 47.726,392.564 47.874 C 393.415 48.280,394.235 49.068,394.682 49.911 L 395.083 50.667 394.682 51.422 C 394.238 52.258,393.416 53.053,392.585 53.450 C 392.284 53.593,391.925 53.952,391.781 54.254 C 391.451 54.947,390.614 55.583,389.720 55.821 C 389.212 55.956,388.890 56.189,388.526 56.683 C 388.253 57.055,387.779 57.540,387.473 57.760 C 387.167 57.981,386.686 58.481,386.404 58.872 C 385.442 60.207,385.122 60.325,380.667 60.995 C 378.489 61.322,378.403 61.350,378.000 61.875 C 377.771 62.173,377.363 62.604,377.094 62.833 C 376.613 63.244,376.458 63.403,375.206 64.773 C 374.484 65.564,374.024 65.727,371.518 66.085 C 367.756 66.621,367.721 66.632,367.183 67.363 C 366.915 67.728,366.445 68.207,366.139 68.427 C 365.834 68.647,365.353 69.148,365.071 69.539 C 364.108 70.873,363.788 70.992,359.333 71.661 C 357.156 71.989,357.070 72.017,356.667 72.541 C 356.438 72.839,356.030 73.271,355.761 73.500 C 355.280 73.910,355.124 74.070,353.873 75.440 C 353.151 76.230,352.690 76.394,350.184 76.751 C 346.422 77.288,346.388 77.298,345.850 78.030 C 345.582 78.395,345.112 78.873,344.806 79.094 C 344.500 79.314,344.019 79.814,343.737 80.206 C 342.775 81.540,342.455 81.659,338.000 82.328 C 335.822 82.655,335.737 82.684,335.333 83.208 C 335.104 83.506,334.697 83.937,334.428 84.167 C 333.946 84.577,333.791 84.737,332.539 86.107 C 331.818 86.897,331.357 87.061,328.851 87.418 C 325.089 87.955,325.055 87.965,324.516 88.697 C 324.248 89.061,323.779 89.540,323.473 89.760 C 323.167 89.981,322.686 90.481,322.404 90.872 C 321.239 92.487,320.193 92.754,315.083 92.739 C 306.986 92.715,307.319 93.349,307.215 77.750 C 307.148 67.880,307.113 66.729,306.872 66.542 C 306.657 66.375,278.346 66.333,166.593 66.333 C 71.766 66.333,25.992 66.278,24.750 66.161 C 19.057 65.628,19.250 66.171,19.250 50.667 C 19.250 35.162,19.057 35.706,24.750 35.172 C 25.992 35.056,71.753 35.000,166.553 35.000 C 262.718 35.000,306.623 34.946,306.844 34.827 C 307.156 34.661,307.167 34.384,307.179 26.369 C 307.201 10.894,307.372 9.841,310.000 9.005 C 311.444 8.545,317.469 8.452,319.391 8.859 " stroke="none" fill="#ffffff" fill-rule="evenodd"></path></g></svg>