<svg id="svg" version="1.1" width="400" height="135.84905660377356" xmlns="http://www.w3.org/2000/svg" xmlns:xlink="http://www.w3.org/1999/xlink" style="display: block;"><g id="svgg"><path id="path0" d="M305.398 33.863 C 304.921 34.635,304.513 41.606,304.507 49.102 C 304.503 53.329,304.430 57.157,304.344 57.608 C 303.780 60.584,302.526 61.965,299.688 62.733 L 298.417 63.078 166.000 63.164 L 33.583 63.250 32.756 63.688 L 31.929 64.125 32.840 64.604 L 33.750 65.083 166.250 65.167 L 298.750 65.250 299.966 65.628 C 304.145 66.926,304.494 67.966,304.514 79.177 C 304.521 83.526,304.578 88.714,304.640 90.706 L 304.753 94.329 305.198 94.774 L 305.644 95.219 306.600 94.735 C 307.452 94.302,307.588 94.160,307.860 93.417 C 308.989 90.324,312.449 88.601,319.083 87.829 C 321.501 87.548,322.520 87.057,322.904 85.991 C 323.463 84.436,324.420 83.355,326.167 82.302 C 327.340 81.596,331.169 80.621,333.917 80.328 C 335.829 80.125,337.831 79.429,337.835 78.967 C 337.839 78.460,338.708 76.941,339.447 76.151 C 341.004 74.487,344.297 73.328,349.091 72.758 C 351.902 72.423,352.539 72.088,353.237 70.577 C 354.114 68.679,356.721 66.500,358.114 66.500 C 358.209 66.500,358.773 66.280,359.366 66.011 C 360.568 65.466,362.852 64.787,364.500 64.485 C 365.799 64.247,366.323 64.014,365.583 64.002 C 365.308 63.998,363.921 63.735,362.500 63.419 C 354.807 61.703,353.107 60.782,351.926 57.691 C 351.401 56.317,351.476 56.356,348.424 55.905 C 340.903 54.795,337.905 53.250,336.729 49.880 C 336.363 48.831,336.347 48.824,333.320 48.345 C 325.878 47.167,322.891 45.727,321.837 42.807 C 321.334 41.413,321.111 41.244,319.465 41.014 C 316.752 40.634,313.163 39.838,311.039 39.145 C 308.852 38.432,307.341 36.994,306.593 34.917 C 306.208 33.848,305.690 33.391,305.398 33.863 " stroke="none" fill="#000000" fill-rule="evenodd"></path><path id="path1" d="M305.068 31.815 C 303.613 32.702,302.882 33.723,302.767 35.029 C 302.424 38.921,302.336 41.720,302.335 48.849 L 302.333 56.782 301.696 57.767 C 300.957 58.911,299.856 59.933,298.815 60.442 C 297.315 61.175,298.900 61.166,163.229 61.171 C 37.796 61.175,34.057 61.184,33.167 61.485 C 31.739 61.967,30.505 62.553,29.259 63.340 L 28.115 64.063 28.669 64.526 C 29.370 65.111,31.151 66.050,32.576 66.587 L 33.674 67.000 161.879 67.004 C 300.760 67.007,297.171 66.985,298.861 67.848 C 299.830 68.342,301.358 69.835,301.874 70.792 L 302.302 71.583 302.360 82.930 L 302.418 94.277 302.872 94.872 C 304.473 96.972,305.472 97.506,306.856 97.003 C 309.062 96.200,311.690 94.781,312.752 93.819 C 314.824 91.941,316.472 91.069,319.786 90.097 C 324.064 88.842,325.767 87.976,328.759 85.532 C 330.336 84.244,331.716 83.534,334.000 82.838 C 338.986 81.317,340.923 80.410,343.086 78.579 C 345.231 76.765,347.494 75.596,350.028 74.996 C 353.127 74.261,356.643 72.497,358.514 70.737 C 360.174 69.177,362.679 67.769,365.318 66.914 C 366.021 66.687,366.499 66.351,367.485 65.391 L 368.750 64.160 367.630 63.102 C 367.014 62.521,366.302 61.969,366.047 61.877 C 365.792 61.786,364.613 61.399,363.426 61.019 C 360.192 59.982,358.077 58.882,356.519 57.424 C 354.544 55.578,352.473 54.477,349.583 53.740 C 345.513 52.700,342.758 51.329,340.878 49.406 C 339.558 48.057,337.266 46.913,334.351 46.150 C 330.461 45.132,327.992 43.930,326.029 42.099 C 324.262 40.452,322.173 39.346,319.577 38.685 C 315.603 37.673,313.080 36.491,311.202 34.762 C 308.730 32.487,306.066 31.207,305.068 31.815 M306.031 33.875 C 306.175 33.990,306.428 34.458,306.593 34.917 C 307.341 36.994,308.852 38.432,311.039 39.145 C 313.163 39.838,316.752 40.634,319.465 41.014 C 321.111 41.244,321.334 41.413,321.837 42.807 C 322.891 45.727,325.878 47.167,333.320 48.345 C 336.347 48.824,336.363 48.831,336.729 49.880 C 337.905 53.250,340.903 54.795,348.424 55.905 C 351.476 56.356,351.401 56.317,351.926 57.691 C 353.107 60.782,354.807 61.703,362.500 63.419 C 363.921 63.735,365.308 63.998,365.583 64.002 C 366.323 64.014,365.799 64.247,364.500 64.485 C 362.852 64.787,360.568 65.466,359.366 66.011 C 358.773 66.280,358.209 66.500,358.114 66.500 C 356.721 66.500,354.114 68.679,353.237 70.577 C 352.539 72.088,351.902 72.423,349.091 72.758 C 344.297 73.328,341.004 74.487,339.447 76.151 C 338.708 76.941,337.839 78.460,337.835 78.967 C 337.831 79.429,335.829 80.125,333.917 80.328 C 331.169 80.621,327.340 81.596,326.167 82.302 C 324.420 83.355,323.463 84.436,322.904 85.991 C 322.520 87.057,321.501 87.548,319.083 87.829 C 312.449 88.601,308.989 90.324,307.860 93.417 C 307.588 94.160,307.452 94.302,306.600 94.735 L 305.644 95.219 305.198 94.774 L 304.753 94.329 304.640 90.706 C 304.578 88.714,304.521 83.526,304.514 79.177 C 304.494 67.966,304.145 66.926,299.966 65.628 L 298.750 65.250 166.250 65.167 L 33.750 65.083 32.840 64.604 L 31.929 64.125 32.756 63.688 L 33.583 63.250 166.000 63.164 L 298.417 63.078 299.688 62.733 C 302.526 61.965,303.780 60.584,304.344 57.608 C 304.430 57.157,304.503 53.329,304.507 49.102 C 304.513 42.305,304.558 40.992,304.895 37.738 C 305.332 33.529,305.382 33.358,306.031 33.875 " stroke="none" fill="#424242" fill-rule="evenodd"></path><path id="path2" d="M304.417 30.316 C 303.242 30.993,302.130 32.018,301.491 33.015 L 300.943 33.868 300.816 36.809 C 300.746 38.426,300.683 43.538,300.677 48.167 L 300.667 56.585 300.042 57.350 C 299.698 57.771,299.117 58.343,298.750 58.622 C 297.280 59.738,306.469 59.667,163.083 59.668 C 36.174 59.669,34.230 59.674,32.917 59.992 C 29.614 60.792,27.181 61.994,25.675 63.567 L 25.100 64.168 26.060 65.069 C 27.507 66.426,29.548 67.420,32.406 68.158 L 33.729 68.500 162.073 68.501 C 287.948 68.502,290.490 68.508,294.231 68.827 C 298.717 69.210,298.718 69.210,300.292 71.231 L 300.667 71.712 300.667 82.944 L 300.667 94.176 301.189 95.210 C 302.238 97.290,304.763 99.160,306.210 98.930 C 308.706 98.533,312.879 96.665,314.583 95.181 C 316.696 93.342,318.478 92.311,320.784 91.594 C 321.499 91.372,322.833 90.956,323.750 90.670 C 326.299 89.873,328.604 88.673,329.945 87.444 C 331.947 85.607,333.682 84.673,336.784 83.764 C 341.155 82.482,343.206 81.510,345.081 79.830 C 347.151 77.974,348.954 77.040,352.318 76.081 C 356.139 74.992,358.640 73.770,360.333 72.166 C 361.535 71.027,363.619 69.660,365.403 68.839 C 367.753 67.759,369.035 66.726,370.114 65.044 L 370.674 64.171 370.259 63.515 C 369.148 61.754,367.685 60.699,364.915 59.659 C 363.908 59.281,362.371 58.604,361.500 58.155 C 359.991 57.376,359.606 57.109,357.405 55.308 C 356.271 54.380,354.451 53.465,352.604 52.895 C 347.361 51.277,345.147 50.219,343.064 48.336 C 341.749 47.147,337.979 45.167,337.030 45.167 C 336.740 45.167,333.843 44.172,332.583 43.640 C 330.992 42.968,329.071 41.821,328.167 41.002 C 326.356 39.362,324.670 38.478,321.500 37.506 C 317.219 36.193,314.826 35.015,312.770 33.205 C 311.415 32.013,309.619 31.022,307.540 30.319 C 305.760 29.717,305.458 29.717,304.417 30.316 M306.819 31.911 C 308.455 32.599,309.810 33.481,311.202 34.762 C 313.080 36.491,315.603 37.673,319.577 38.685 C 322.173 39.346,324.262 40.452,326.029 42.099 C 327.992 43.930,330.461 45.132,334.351 46.150 C 337.266 46.913,339.558 48.057,340.878 49.406 C 342.758 51.329,345.513 52.700,349.583 53.740 C 352.473 54.477,354.544 55.578,356.519 57.424 C 358.077 58.882,360.192 59.982,363.426 61.019 C 364.613 61.399,365.792 61.786,366.047 61.877 C 366.302 61.969,367.014 62.521,367.630 63.102 L 368.750 64.160 367.485 65.391 C 366.499 66.351,366.021 66.687,365.318 66.914 C 362.679 67.769,360.174 69.177,358.514 70.737 C 356.643 72.497,353.127 74.261,350.028 74.996 C 347.494 75.596,345.231 76.765,343.086 78.579 C 340.923 80.410,338.986 81.317,334.000 82.838 C 331.716 83.534,330.336 84.244,328.759 85.532 C 325.767 87.976,324.064 88.842,319.786 90.097 C 316.472 91.069,314.824 91.941,312.752 93.819 C 311.690 94.781,309.062 96.200,306.856 97.003 C 305.472 97.506,304.473 96.972,302.872 94.872 L 302.418 94.277 302.360 82.930 L 302.302 71.583 301.874 70.792 C 301.358 69.835,299.830 68.342,298.861 67.848 C 297.171 66.985,300.760 67.007,161.879 67.004 L 33.674 67.000 32.576 66.587 C 31.151 66.050,29.370 65.111,28.669 64.526 L 28.115 64.063 29.259 63.340 C 30.505 62.553,31.739 61.967,33.167 61.485 C 34.057 61.184,37.796 61.175,163.229 61.171 C 298.900 61.166,297.315 61.175,298.815 60.442 C 299.856 59.933,300.957 58.911,301.696 57.767 L 302.333 56.782 302.335 48.849 C 302.336 41.720,302.424 38.921,302.767 35.029 C 302.872 33.837,302.895 33.787,303.714 32.969 C 305.256 31.427,305.484 31.349,306.819 31.911 " stroke="none" fill="#838383" fill-rule="evenodd"></path><path id="path3" d="M304.136 27.912 C 301.255 28.505,299.842 29.711,298.955 32.333 C 298.594 33.402,298.588 33.575,298.537 45.027 C 298.493 54.851,298.449 56.669,298.247 56.836 C 298.116 56.945,296.938 57.192,295.629 57.385 L 293.250 57.736 163.000 57.831 C 41.235 57.919,32.630 57.944,30.911 58.210 C 25.663 59.023,23.458 60.193,22.063 62.903 L 21.442 64.110 21.952 65.200 C 23.262 67.999,25.584 69.256,30.833 70.006 C 33.041 70.322,35.516 70.328,161.672 70.331 C 302.083 70.334,289.749 70.264,296.917 71.096 C 298.666 71.299,298.480 69.893,298.542 83.377 C 298.594 94.836,298.608 95.285,298.938 96.250 C 300.688 101.370,304.742 102.240,313.611 99.397 C 316.591 98.442,318.167 97.231,319.026 95.236 C 319.443 94.269,320.525 93.505,321.491 93.496 C 322.313 93.489,326.017 92.680,328.039 92.066 C 331.447 91.033,332.939 89.988,334.067 87.844 C 334.799 86.452,335.188 86.229,337.599 85.817 C 344.697 84.602,347.764 83.124,349.189 80.230 C 349.828 78.931,350.294 78.644,352.250 78.344 C 359.350 77.253,362.910 75.568,364.298 72.642 C 364.738 71.714,365.775 70.833,366.427 70.833 C 367.538 70.833,370.149 69.501,371.135 68.431 C 374.721 64.541,372.717 59.435,367.083 58.107 C 364.888 57.590,363.477 56.777,362.917 55.707 C 361.494 52.989,357.922 51.216,352.417 50.493 C 350.046 50.181,348.449 49.382,347.881 48.222 C 346.563 45.531,342.415 43.504,337.000 42.906 C 335.183 42.705,333.351 41.756,332.833 40.749 C 331.397 37.951,328.224 36.341,322.306 35.406 C 319.703 34.995,318.388 34.335,317.683 33.086 C 315.781 29.717,308.633 26.987,304.136 27.912 M307.540 30.319 C 309.619 31.022,311.415 32.013,312.770 33.205 C 314.826 35.015,317.219 36.193,321.500 37.506 C 324.670 38.478,326.356 39.362,328.167 41.002 C 329.071 41.821,330.992 42.968,332.583 43.640 C 333.843 44.172,336.740 45.167,337.030 45.167 C 337.979 45.167,341.749 47.147,343.064 48.336 C 345.147 50.219,347.361 51.277,352.604 52.895 C 354.451 53.465,356.271 54.380,357.405 55.308 C 359.606 57.109,359.991 57.376,361.500 58.155 C 362.371 58.604,363.908 59.281,364.915 59.659 C 367.685 60.699,369.148 61.754,370.259 63.515 L 370.674 64.171 370.114 65.044 C 369.035 66.726,367.753 67.759,365.403 68.839 C 363.619 69.660,361.535 71.027,360.333 72.166 C 358.640 73.770,356.139 74.992,352.318 76.081 C 348.954 77.040,347.151 77.974,345.081 79.830 C 343.206 81.510,341.155 82.482,336.784 83.764 C 333.682 84.673,331.947 85.607,329.945 87.444 C 328.604 88.673,326.299 89.873,323.750 90.670 C 322.833 90.956,321.499 91.372,320.784 91.594 C 318.478 92.311,316.696 93.342,314.583 95.181 C 312.879 96.665,308.706 98.533,306.210 98.930 C 304.763 99.160,302.238 97.290,301.189 95.210 L 300.667 94.176 300.667 82.944 L 300.667 71.712 300.292 71.231 C 298.718 69.210,298.717 69.210,294.231 68.827 C 290.490 68.508,287.948 68.502,162.073 68.501 L 33.729 68.500 32.406 68.158 C 29.548 67.420,27.507 66.426,26.060 65.069 L 25.100 64.168 25.675 63.567 C 27.181 61.994,29.614 60.792,32.917 59.992 C 34.230 59.674,36.174 59.669,163.083 59.668 C 306.469 59.667,297.280 59.738,298.750 58.622 C 299.117 58.343,299.698 57.771,300.042 57.350 L 300.667 56.585 300.677 48.167 C 300.683 43.538,300.746 38.426,300.816 36.809 L 300.943 33.868 301.491 33.015 C 302.424 31.561,304.691 29.839,305.677 29.835 C 305.912 29.834,306.750 30.052,307.540 30.319 " stroke="none" fill="#a5a5a5" fill-rule="evenodd"></path><path id="path4" d="M0.000 67.917 L 0.000 135.833 200.000 135.833 L 400.000 135.833 400.000 67.917 L 400.000 0.000 200.000 0.000 L 0.000 0.000 0.000 67.917 M309.083 28.185 C 313.581 29.069,316.286 30.612,317.683 33.086 C 318.388 34.335,319.703 34.995,322.306 35.406 C 328.224 36.341,331.397 37.951,332.833 40.749 C 333.351 41.756,335.183 42.705,337.000 42.906 C 342.415 43.504,346.563 45.531,347.881 48.222 C 348.449 49.382,350.046 50.181,352.417 50.493 C 357.922 51.216,361.494 52.989,362.917 55.707 C 363.477 56.777,364.888 57.590,367.083 58.107 C 372.717 59.435,374.721 64.541,371.135 68.431 C 370.149 69.501,367.538 70.833,366.427 70.833 C 365.775 70.833,364.738 71.714,364.298 72.642 C 362.910 75.568,359.350 77.253,352.250 78.344 C 350.294 78.644,349.828 78.931,349.189 80.230 C 347.764 83.124,344.697 84.602,337.599 85.817 C 335.188 86.229,334.799 86.452,334.067 87.844 C 332.939 89.988,331.447 91.033,328.039 92.066 C 326.017 92.680,322.313 93.489,321.491 93.496 C 320.525 93.505,319.443 94.269,319.026 95.236 C 318.167 97.231,316.591 98.442,313.611 99.397 C 304.742 102.240,300.688 101.370,298.938 96.250 C 298.608 95.285,298.594 94.836,298.542 83.377 C 298.480 69.893,298.666 71.299,296.917 71.096 C 289.749 70.264,302.083 70.334,161.672 70.331 C 35.516 70.328,33.041 70.322,30.833 70.006 C 25.584 69.256,23.262 67.999,21.952 65.200 L 21.442 64.110 22.063 62.903 C 23.458 60.193,25.663 59.023,30.911 58.210 C 32.630 57.944,41.235 57.919,163.000 57.831 L 293.250 57.736 295.629 57.385 C 296.938 57.192,298.116 56.945,298.247 56.836 C 298.449 56.669,298.493 54.851,298.537 45.027 C 298.588 33.575,298.594 33.402,298.955 32.333 C 300.298 28.363,303.444 27.075,309.083 28.185 " stroke="none" fill="#ffffff" fill-rule="evenodd"></path></g></svg>