<svg id="svg" version="1.1" width="400" height="94.73684210526315" xmlns="http://www.w3.org/2000/svg" xmlns:xlink="http://www.w3.org/1999/xlink" style="display: block;"><g id="svgg"><path id="path0" d="M69.289 12.943 L 67.662 13.178 66.671 14.203 C 66.125 14.767,65.632 15.444,65.574 15.708 C 65.429 16.368,64.527 17.222,63.719 17.465 C 62.957 17.693,58.418 18.333,57.561 18.333 C 57.252 18.333,57.000 18.397,57.000 18.475 C 57.000 18.552,56.590 19.018,56.089 19.510 C 55.582 20.007,55.131 20.615,55.073 20.881 C 54.812 22.069,53.577 22.826,51.500 23.071 C 51.087 23.120,49.820 23.284,48.684 23.437 L 46.619 23.715 45.679 24.654 C 45.121 25.212,44.623 25.901,44.451 26.351 C 43.906 27.778,40.646 28.823,36.714 28.832 C 36.024 28.834,34.337 30.507,33.917 31.605 C 33.374 33.028,32.613 33.323,27.931 33.925 L 25.611 34.223 24.664 35.156 C 24.143 35.669,23.566 36.425,23.381 36.836 C 22.986 37.716,22.471 38.212,21.667 38.486 C 21.053 38.696,16.610 39.331,15.746 39.332 C 15.090 39.334,13.296 41.021,13.001 41.914 C 12.547 43.290,11.559 43.832,8.887 44.170 C 8.198 44.258,7.323 44.416,6.942 44.522 L 6.250 44.714 6.750 44.861 C 7.025 44.942,7.888 45.087,8.667 45.182 C 11.407 45.519,12.280 45.960,12.878 47.311 C 13.450 48.605,14.916 49.923,15.917 50.045 C 22.382 50.833,22.932 51.027,23.493 52.730 C 23.791 53.630,25.601 55.333,26.260 55.333 C 27.587 55.333,31.898 56.029,32.591 56.354 C 33.305 56.690,33.832 57.323,34.081 58.141 C 34.146 58.357,34.629 58.963,35.155 59.488 L 36.110 60.443 38.430 60.735 C 43.168 61.330,44.127 61.724,44.532 63.238 C 44.651 63.682,44.905 64.071,45.244 64.329 C 45.534 64.549,45.954 64.975,46.177 65.276 C 46.499 65.711,46.704 65.825,47.167 65.830 C 47.962 65.838,52.459 66.455,53.104 66.645 C 54.135 66.948,55.167 68.042,55.167 68.831 C 55.167 68.928,55.615 69.447,56.163 69.983 L 57.159 70.958 59.121 71.222 C 60.200 71.368,61.496 71.532,62.000 71.588 C 64.026 71.812,65.314 72.600,65.607 73.795 C 65.668 74.045,66.176 74.703,66.734 75.258 L 67.750 76.265 69.409 76.458 C 71.726 76.727,71.500 77.632,71.500 68.094 C 71.500 56.793,71.562 56.561,74.750 55.797 C 75.863 55.531,310.062 55.396,313.000 55.660 C 317.991 56.109,317.887 55.861,317.955 67.500 C 318.011 77.201,317.964 76.842,319.160 76.653 C 319.599 76.583,320.822 76.473,321.877 76.409 L 323.795 76.290 323.986 75.104 C 324.404 72.524,325.140 71.986,328.930 71.495 C 330.298 71.318,331.839 71.172,332.354 71.170 C 334.193 71.164,334.280 71.111,334.495 69.874 C 335.016 66.883,336.314 66.269,342.905 65.893 L 344.808 65.784 344.993 64.722 C 345.492 61.852,346.208 61.377,350.733 60.911 C 352.117 60.768,353.738 60.598,354.333 60.534 L 355.417 60.417 355.536 59.453 C 355.912 56.425,356.863 55.936,363.322 55.445 L 365.895 55.250 366.093 54.069 C 366.600 51.063,367.667 50.578,374.855 50.082 L 376.460 49.972 376.570 49.003 C 376.833 46.679,377.873 45.694,380.454 45.328 C 381.210 45.221,382.146 45.039,382.533 44.925 L 383.237 44.717 382.410 44.531 C 381.956 44.428,380.900 44.267,380.065 44.172 C 378.068 43.944,377.548 43.757,376.750 42.977 C 376.383 42.619,375.717 42.089,375.268 41.798 C 374.809 41.501,374.248 40.939,373.982 40.510 C 373.282 39.380,373.323 39.402,371.643 39.185 C 370.785 39.075,369.537 38.913,368.868 38.825 C 367.485 38.645,366.465 38.190,366.061 37.573 C 365.909 37.340,365.565 37.037,365.299 36.899 C 364.542 36.508,363.508 35.502,363.159 34.819 C 362.809 34.132,362.574 34.065,359.083 33.662 C 356.864 33.406,355.658 32.925,355.428 32.204 C 355.378 32.046,354.996 31.736,354.579 31.515 C 353.746 31.074,352.948 30.251,352.556 29.429 C 352.305 28.903,352.281 28.894,350.276 28.605 C 346.143 28.008,344.833 27.342,344.833 25.836 C 344.833 25.738,344.385 25.220,343.837 24.684 L 342.841 23.709 340.879 23.445 C 339.800 23.299,338.504 23.135,338.000 23.079 C 335.974 22.855,334.686 22.067,334.393 20.872 C 334.332 20.622,333.824 19.963,333.266 19.409 L 332.250 18.402 329.583 18.094 C 325.423 17.615,324.466 17.216,323.942 15.745 C 323.808 15.367,323.295 14.673,322.745 14.125 L 321.783 13.167 320.267 12.984 C 319.433 12.883,318.690 12.763,318.618 12.719 C 318.037 12.364,318.000 12.871,317.999 21.145 C 317.997 33.856,318.210 33.460,311.167 33.841 C 306.121 34.113,77.196 33.971,75.417 33.694 C 71.556 33.094,71.507 32.939,71.503 21.325 C 71.500 13.290,71.460 12.584,71.008 12.688 C 70.958 12.699,70.184 12.814,69.289 12.943 " stroke="none" fill="#000000" fill-rule="evenodd"></path><path id="path1" d="M70.083 12.179 C 69.808 12.262,68.721 12.449,67.667 12.594 C 65.398 12.906,65.176 13.026,64.784 14.147 C 64.069 16.193,61.287 17.478,56.583 17.933 C 54.986 18.087,54.645 18.294,54.284 19.321 C 53.531 21.462,51.616 22.411,46.679 23.091 C 44.642 23.371,44.000 23.577,44.000 23.951 C 44.000 26.050,41.138 27.686,36.333 28.335 C 33.783 28.679,33.589 28.759,33.376 29.555 C 32.771 31.819,30.348 33.047,25.250 33.672 C 23.178 33.926,23.146 33.944,22.759 35.021 C 21.966 37.226,19.969 38.215,14.870 38.925 C 12.751 39.221,12.500 39.289,12.500 39.568 C 12.500 40.136,11.436 41.851,10.789 42.327 C 10.058 42.865,7.500 43.737,4.799 44.370 L 3.250 44.733 4.589 45.002 C 5.855 45.257,8.005 45.870,9.667 46.451 C 10.686 46.807,11.879 48.050,12.237 49.128 C 12.552 50.075,12.832 50.247,14.333 50.416 C 19.745 51.026,22.114 52.200,22.844 54.637 C 23.084 55.437,23.036 55.416,25.365 55.741 C 30.479 56.454,32.495 57.450,33.276 59.650 C 33.629 60.643,33.799 60.730,35.917 61.008 C 40.872 61.658,42.980 62.708,43.828 64.949 C 44.187 65.896,44.474 66.031,46.750 66.325 C 51.464 66.933,53.732 68.094,54.370 70.223 C 54.627 71.081,54.977 71.267,56.750 71.491 C 61.829 72.132,64.181 73.286,64.915 75.496 C 65.235 76.459,65.436 76.555,67.683 76.825 C 68.562 76.930,69.686 77.123,70.180 77.254 L 71.079 77.491 71.706 76.878 L 72.333 76.266 72.333 68.222 C 72.333 57.256,72.445 57.018,78.019 56.137 C 80.476 55.749,309.889 55.817,311.947 56.206 C 314.233 56.639,315.209 57.057,315.982 57.936 C 317.172 59.287,317.167 59.244,317.167 68.258 L 317.167 76.290 317.792 76.974 L 318.417 77.659 319.274 77.427 C 319.746 77.299,320.871 77.107,321.774 76.999 C 324.251 76.704,324.694 76.506,325.037 75.539 C 325.824 73.324,328.114 72.162,332.667 71.668 C 334.880 71.428,335.095 71.315,335.654 70.101 C 336.665 67.906,338.524 66.968,342.833 66.478 C 345.273 66.201,345.757 65.983,346.079 65.014 C 346.809 62.817,349.069 61.678,353.746 61.152 C 355.882 60.911,356.315 60.675,356.710 59.539 C 357.422 57.492,359.771 56.389,364.584 55.843 C 366.445 55.631,366.711 55.480,367.170 54.374 C 368.068 52.206,370.120 51.191,374.697 50.653 C 376.931 50.390,377.207 50.241,377.767 48.991 C 378.320 47.759,379.284 46.865,380.518 46.439 C 381.012 46.269,381.894 45.944,382.477 45.719 C 383.060 45.493,384.148 45.175,384.894 45.012 L 386.250 44.716 385.250 44.513 C 379.123 43.268,377.507 42.451,376.818 40.250 C 376.531 39.335,376.615 39.382,374.724 39.099 C 369.094 38.259,366.933 37.226,366.335 35.088 C 366.064 34.122,366.006 34.085,364.366 33.861 C 358.662 33.082,355.689 31.580,355.664 29.464 C 355.658 28.987,355.335 28.840,353.722 28.584 C 348.644 27.777,346.040 26.411,345.579 24.315 C 345.426 23.618,344.963 23.392,343.250 23.176 C 338.171 22.535,335.819 21.381,335.085 19.170 C 334.766 18.210,334.567 18.114,332.333 17.843 C 327.554 17.262,325.630 16.299,324.601 13.972 C 324.129 12.905,324.140 12.911,322.303 12.672 C 321.540 12.572,320.332 12.369,319.618 12.220 L 318.319 11.949 317.743 12.507 L 317.167 13.065 317.167 21.110 C 317.167 31.795,317.078 32.028,312.629 33.113 C 311.182 33.466,82.076 33.688,78.784 33.339 C 75.167 32.956,73.776 32.292,72.875 30.516 L 72.333 29.448 72.333 21.291 L 72.333 13.133 71.767 12.567 C 71.180 11.980,70.932 11.923,70.083 12.179 M71.300 12.867 C 71.450 13.017,71.501 15.127,71.503 21.325 C 71.507 32.939,71.556 33.094,75.417 33.694 C 77.196 33.971,306.121 34.113,311.167 33.841 C 318.210 33.460,317.997 33.856,317.999 21.145 C 318.000 12.871,318.037 12.364,318.618 12.719 C 318.690 12.763,319.433 12.883,320.267 12.984 L 321.783 13.167 322.745 14.125 C 323.295 14.673,323.808 15.367,323.942 15.745 C 324.466 17.216,325.423 17.615,329.583 18.094 L 332.250 18.402 333.266 19.409 C 333.824 19.963,334.332 20.622,334.393 20.872 C 334.686 22.067,335.974 22.855,338.000 23.079 C 338.504 23.135,339.800 23.299,340.879 23.445 L 342.841 23.709 343.837 24.684 C 344.385 25.220,344.833 25.738,344.833 25.836 C 344.833 27.342,346.143 28.008,350.276 28.605 C 352.281 28.894,352.305 28.903,352.556 29.429 C 352.948 30.251,353.746 31.074,354.579 31.515 C 354.996 31.736,355.378 32.046,355.428 32.204 C 355.658 32.925,356.864 33.406,359.083 33.662 C 362.574 34.065,362.809 34.132,363.159 34.819 C 363.508 35.502,364.542 36.508,365.299 36.899 C 365.565 37.037,365.909 37.340,366.061 37.573 C 366.465 38.190,367.485 38.645,368.868 38.825 C 369.537 38.913,370.785 39.075,371.643 39.185 C 373.323 39.402,373.282 39.380,373.982 40.510 C 374.248 40.939,374.809 41.501,375.268 41.798 C 375.717 42.089,376.383 42.619,376.750 42.977 C 377.548 43.757,378.068 43.944,380.065 44.172 C 380.900 44.267,381.956 44.428,382.410 44.531 L 383.237 44.717 382.533 44.925 C 382.146 45.039,381.210 45.221,380.454 45.328 C 377.873 45.694,376.833 46.679,376.570 49.003 L 376.460 49.972 374.855 50.082 C 367.667 50.578,366.600 51.063,366.093 54.069 L 365.895 55.250 363.322 55.445 C 356.863 55.936,355.912 56.425,355.536 59.453 L 355.417 60.417 354.333 60.534 C 353.738 60.598,352.117 60.768,350.733 60.911 C 346.208 61.377,345.492 61.852,344.993 64.722 L 344.808 65.784 342.905 65.893 C 336.314 66.269,335.016 66.883,334.495 69.874 C 334.280 71.111,334.193 71.164,332.354 71.170 C 331.839 71.172,330.298 71.318,328.930 71.495 C 325.140 71.986,324.404 72.524,323.986 75.104 L 323.795 76.290 321.877 76.409 C 320.822 76.473,319.599 76.583,319.160 76.653 C 317.964 76.842,318.011 77.201,317.955 67.500 C 317.887 55.861,317.991 56.109,313.000 55.660 C 310.062 55.396,75.863 55.531,74.750 55.797 C 71.562 56.561,71.500 56.793,71.500 68.094 C 71.500 77.632,71.726 76.727,69.409 76.458 L 67.750 76.265 66.734 75.258 C 66.176 74.703,65.668 74.045,65.607 73.795 C 65.314 72.600,64.026 71.812,62.000 71.588 C 61.496 71.532,60.200 71.368,59.121 71.222 L 57.159 70.958 56.163 69.983 C 55.615 69.447,55.167 68.928,55.167 68.831 C 55.167 68.042,54.135 66.948,53.104 66.645 C 52.459 66.455,47.962 65.838,47.167 65.830 C 46.704 65.825,46.499 65.711,46.177 65.276 C 45.954 64.975,45.534 64.549,45.244 64.329 C 44.905 64.071,44.651 63.682,44.532 63.238 C 44.127 61.724,43.168 61.330,38.430 60.735 L 36.110 60.443 35.155 59.488 C 34.629 58.963,34.146 58.357,34.081 58.141 C 33.832 57.323,33.305 56.690,32.591 56.354 C 31.898 56.029,27.587 55.333,26.260 55.333 C 25.601 55.333,23.791 53.630,23.493 52.730 C 22.932 51.027,22.382 50.833,15.917 50.045 C 14.916 49.923,13.450 48.605,12.878 47.311 C 12.280 45.960,11.407 45.519,8.667 45.182 C 7.888 45.087,7.025 44.942,6.750 44.861 L 6.250 44.714 6.942 44.522 C 7.323 44.416,8.198 44.258,8.887 44.170 C 11.559 43.832,12.547 43.290,13.001 41.914 C 13.296 41.021,15.090 39.334,15.746 39.332 C 16.610 39.331,21.053 38.696,21.667 38.486 C 22.471 38.212,22.986 37.716,23.381 36.836 C 23.566 36.425,24.143 35.669,24.664 35.156 L 25.611 34.223 27.931 33.925 C 32.613 33.323,33.374 33.028,33.917 31.605 C 34.337 30.507,36.024 28.834,36.714 28.832 C 40.646 28.823,43.906 27.778,44.451 26.351 C 44.623 25.901,45.121 25.212,45.679 24.654 L 46.619 23.715 48.684 23.437 C 49.820 23.284,51.087 23.120,51.500 23.071 C 53.577 22.826,54.812 22.069,55.073 20.881 C 55.131 20.615,55.582 20.007,56.089 19.510 C 56.590 19.018,57.000 18.552,57.000 18.475 C 57.000 18.397,57.252 18.333,57.561 18.333 C 58.418 18.333,62.957 17.693,63.719 17.465 C 64.527 17.222,65.429 16.368,65.574 15.708 C 65.632 15.444,66.125 14.767,66.671 14.203 L 67.662 13.178 69.289 12.943 C 70.184 12.814,70.958 12.699,71.008 12.688 C 71.059 12.676,71.190 12.757,71.300 12.867 " stroke="none" fill="#151515" fill-rule="evenodd"></path><path id="path2" d="M70.211 11.345 C 69.731 11.510,68.531 11.802,67.544 11.995 C 65.352 12.423,64.226 12.901,63.893 13.545 C 62.942 15.385,60.294 16.760,56.583 17.340 C 54.722 17.632,53.828 18.116,53.084 19.239 C 52.047 20.800,49.946 21.852,46.562 22.504 C 44.140 22.970,43.276 23.368,42.755 24.256 C 41.747 25.976,39.511 27.133,35.991 27.756 C 34.116 28.087,32.607 28.717,32.353 29.273 C 31.527 31.085,28.752 32.512,24.750 33.181 C 23.093 33.459,22.190 33.959,21.541 34.962 C 20.443 36.656,18.548 37.593,14.724 38.331 C 12.621 38.737,11.466 39.277,11.169 39.995 C 10.370 41.924,5.161 44.167,1.479 44.167 L 0.000 44.167 0.000 44.648 L 0.000 45.129 1.708 45.208 C 5.421 45.379,9.768 47.241,11.041 49.205 C 11.660 50.160,12.636 50.740,13.922 50.915 C 17.770 51.440,21.025 53.076,21.858 54.903 C 22.082 55.395,23.573 56.085,24.750 56.242 C 28.219 56.705,31.125 58.100,32.106 59.774 C 32.676 60.746,33.416 61.106,35.861 61.602 C 39.724 62.386,42.149 63.682,42.830 65.325 C 43.099 65.975,44.163 66.423,46.603 66.917 C 50.116 67.629,52.034 68.608,53.138 70.256 C 53.849 71.316,54.414 71.596,56.853 72.101 C 60.651 72.886,62.546 73.822,63.622 75.442 C 64.386 76.592,64.984 76.904,67.280 77.347 C 68.266 77.537,69.540 77.846,70.112 78.034 L 71.152 78.375 71.701 77.923 C 72.003 77.675,72.456 77.202,72.708 76.873 L 73.167 76.274 73.167 68.380 C 73.167 60.807,73.180 60.460,73.501 59.831 C 74.277 58.311,75.720 57.378,78.224 56.781 L 79.750 56.417 194.667 56.417 C 306.114 56.417,309.626 56.426,310.996 56.727 C 313.561 57.290,314.815 58.047,315.855 59.658 L 316.333 60.399 316.333 68.434 L 316.333 76.470 317.002 77.316 C 318.070 78.667,318.240 78.733,319.427 78.254 C 319.977 78.031,321.212 77.705,322.172 77.528 C 324.348 77.126,325.671 76.551,326.136 75.803 C 327.248 74.012,329.710 72.739,333.167 72.167 C 334.447 71.955,336.500 71.149,336.500 70.859 C 336.500 69.638,339.735 67.712,342.750 67.136 C 345.415 66.627,346.785 66.010,347.417 65.032 C 348.433 63.458,350.429 62.425,353.750 61.754 C 356.360 61.227,357.156 60.844,357.906 59.754 C 358.962 58.221,360.931 57.175,363.788 56.629 C 366.284 56.152,367.839 55.491,368.247 54.734 C 369.134 53.086,371.767 51.729,375.167 51.167 C 376.917 50.877,378.348 50.202,378.816 49.445 C 379.726 47.972,382.467 46.349,385.324 45.591 C 387.842 44.923,387.869 44.445,385.417 43.927 C 381.060 43.007,378.630 41.731,377.811 39.934 C 377.521 39.298,376.668 38.908,374.684 38.504 C 370.364 37.623,368.433 36.666,367.391 34.887 C 366.909 34.066,366.152 33.602,365.000 33.424 C 360.755 32.765,357.762 31.369,356.831 29.614 C 356.433 28.863,355.398 28.167,354.680 28.167 C 352.249 28.167,347.729 25.935,346.739 24.245 C 346.224 23.367,345.445 23.011,342.973 22.521 C 339.406 21.815,337.470 20.840,336.346 19.185 C 335.693 18.224,334.569 17.503,333.719 17.498 C 330.931 17.485,326.565 15.399,325.662 13.649 C 325.277 12.904,324.344 12.475,322.266 12.089 C 321.450 11.937,320.216 11.633,319.524 11.413 L 318.266 11.014 317.300 11.980 L 316.333 12.947 316.332 20.932 L 316.330 28.917 315.842 29.769 C 314.786 31.608,312.884 32.506,309.000 32.998 C 307.997 33.125,274.364 33.163,193.833 33.128 L 80.083 33.079 78.507 32.712 C 75.828 32.089,74.347 31.160,73.517 29.586 C 73.175 28.938,73.167 28.726,73.167 20.991 L 73.167 13.060 72.575 12.369 C 71.498 11.111,71.230 10.995,70.211 11.345 M71.767 12.567 L 72.333 13.133 72.333 21.291 L 72.333 29.448 72.875 30.516 C 73.776 32.292,75.167 32.956,78.784 33.339 C 82.076 33.688,311.182 33.466,312.629 33.113 C 317.078 32.028,317.167 31.795,317.167 21.110 L 317.167 13.065 317.743 12.507 L 318.319 11.949 319.618 12.220 C 320.332 12.369,321.540 12.572,322.303 12.672 C 324.140 12.911,324.129 12.905,324.601 13.972 C 325.630 16.299,327.554 17.262,332.333 17.843 C 334.567 18.114,334.766 18.210,335.085 19.170 C 335.819 21.381,338.171 22.535,343.250 23.176 C 344.963 23.392,345.426 23.618,345.579 24.315 C 346.040 26.411,348.644 27.777,353.722 28.584 C 355.335 28.840,355.658 28.987,355.664 29.464 C 355.689 31.580,358.662 33.082,364.366 33.861 C 366.006 34.085,366.064 34.122,366.335 35.088 C 366.933 37.226,369.094 38.259,374.724 39.099 C 376.615 39.382,376.531 39.335,376.818 40.250 C 377.507 42.451,379.123 43.268,385.250 44.513 L 386.250 44.716 384.894 45.012 C 384.148 45.175,383.060 45.493,382.477 45.719 C 381.894 45.944,381.012 46.269,380.518 46.439 C 379.284 46.865,378.320 47.759,377.767 48.991 C 377.207 50.241,376.931 50.390,374.697 50.653 C 370.120 51.191,368.068 52.206,367.170 54.374 C 366.711 55.480,366.445 55.631,364.584 55.843 C 359.771 56.389,357.422 57.492,356.710 59.539 C 356.315 60.675,355.882 60.911,353.746 61.152 C 349.069 61.678,346.809 62.817,346.079 65.014 C 345.757 65.983,345.273 66.201,342.833 66.478 C 338.524 66.968,336.665 67.906,335.654 70.101 C 335.095 71.315,334.880 71.428,332.667 71.668 C 328.114 72.162,325.824 73.324,325.037 75.539 C 324.694 76.506,324.251 76.704,321.774 76.999 C 320.871 77.107,319.746 77.299,319.274 77.427 L 318.417 77.659 317.792 76.974 L 317.167 76.290 317.167 68.258 C 317.167 57.393,317.073 57.177,311.947 56.206 C 309.889 55.817,80.476 55.749,78.019 56.137 C 74.757 56.653,73.342 57.482,72.673 59.272 C 72.349 60.139,72.333 60.539,72.333 68.222 L 72.333 76.266 71.706 76.878 L 71.079 77.491 70.180 77.254 C 69.686 77.123,68.562 76.930,67.683 76.825 C 65.436 76.555,65.235 76.459,64.915 75.496 C 64.181 73.286,61.829 72.132,56.750 71.491 C 54.977 71.267,54.627 71.081,54.370 70.223 C 53.732 68.094,51.464 66.933,46.750 66.325 C 44.474 66.031,44.187 65.896,43.828 64.949 C 42.980 62.708,40.872 61.658,35.917 61.008 C 33.799 60.730,33.629 60.643,33.276 59.650 C 32.495 57.450,30.479 56.454,25.365 55.741 C 23.036 55.416,23.084 55.437,22.844 54.637 C 22.114 52.200,19.745 51.026,14.333 50.416 C 12.832 50.247,12.552 50.075,12.237 49.128 C 11.879 48.050,10.686 46.807,9.667 46.451 C 8.005 45.870,5.855 45.257,4.589 45.002 L 3.250 44.733 4.799 44.370 C 7.500 43.737,10.058 42.865,10.789 42.327 C 11.436 41.851,12.500 40.136,12.500 39.568 C 12.500 39.289,12.751 39.221,14.870 38.925 C 19.969 38.215,21.966 37.226,22.759 35.021 C 23.146 33.944,23.178 33.926,25.250 33.672 C 30.348 33.047,32.771 31.819,33.376 29.555 C 33.589 28.759,33.783 28.679,36.333 28.335 C 41.138 27.686,44.000 26.050,44.000 23.951 C 44.000 23.577,44.642 23.371,46.679 23.091 C 51.616 22.411,53.531 21.462,54.284 19.321 C 54.645 18.294,54.986 18.087,56.583 17.933 C 61.287 17.478,64.069 16.193,64.784 14.147 C 65.176 13.026,65.398 12.906,67.667 12.594 C 68.721 12.449,69.808 12.262,70.083 12.179 C 70.932 11.923,71.180 11.980,71.767 12.567 " stroke="none" fill="#252525" fill-rule="evenodd"></path><path id="path3" d="M69.854 10.371 C 69.270 10.652,67.980 11.093,66.988 11.351 C 64.742 11.935,63.371 12.617,62.177 13.746 C 60.605 15.232,59.003 16.022,56.232 16.680 C 54.309 17.137,52.780 17.927,51.631 19.058 C 50.456 20.215,48.257 21.300,45.872 21.900 C 43.664 22.456,42.332 23.135,41.055 24.354 C 39.773 25.578,37.901 26.505,35.500 27.105 C 33.283 27.660,31.745 28.430,30.628 29.543 C 29.270 30.896,27.469 31.746,24.180 32.584 C 22.597 32.988,21.211 33.750,20.055 34.854 C 18.773 36.078,16.901 37.005,14.500 37.605 C 12.255 38.167,10.674 38.960,9.417 40.157 C 7.464 42.014,3.881 43.500,1.354 43.500 C 0.111 43.500,0.000 43.527,0.000 43.833 C 0.000 44.142,0.111 44.167,1.479 44.167 C 5.161 44.167,10.370 41.924,11.169 39.995 C 11.466 39.277,12.621 38.737,14.724 38.331 C 18.548 37.593,20.443 36.656,21.541 34.962 C 22.190 33.959,23.093 33.459,24.750 33.181 C 28.752 32.512,31.527 31.085,32.353 29.273 C 32.607 28.717,34.116 28.087,35.991 27.756 C 39.511 27.133,41.747 25.976,42.755 24.256 C 43.276 23.368,44.140 22.970,46.562 22.504 C 49.946 21.852,52.047 20.800,53.084 19.239 C 53.828 18.116,54.722 17.632,56.583 17.340 C 60.294 16.760,62.942 15.385,63.893 13.545 C 64.227 12.900,65.352 12.423,67.552 11.993 C 68.543 11.800,69.769 11.499,70.277 11.324 L 71.200 11.007 72.183 11.990 L 73.167 12.973 73.167 20.947 C 73.167 28.726,73.175 28.938,73.517 29.586 C 74.347 31.160,75.828 32.089,78.507 32.712 L 80.083 33.079 193.833 33.128 C 274.364 33.163,307.997 33.125,309.000 32.998 C 312.884 32.506,314.786 31.608,315.842 29.769 L 316.330 28.917 316.332 20.932 L 316.333 12.947 317.300 11.980 L 318.266 11.014 319.524 11.413 C 320.216 11.633,321.450 11.937,322.266 12.089 C 324.344 12.475,325.277 12.904,325.662 13.649 C 326.565 15.399,330.931 17.485,333.719 17.498 C 334.569 17.503,335.693 18.224,336.346 19.185 C 337.470 20.840,339.406 21.815,342.973 22.521 C 345.445 23.011,346.224 23.367,346.739 24.245 C 347.729 25.935,352.249 28.167,354.680 28.167 C 355.398 28.167,356.433 28.863,356.831 29.614 C 357.762 31.369,360.755 32.765,365.000 33.424 C 366.152 33.602,366.909 34.066,367.391 34.887 C 368.433 36.666,370.364 37.623,374.684 38.504 C 376.668 38.908,377.521 39.298,377.811 39.934 C 378.630 41.731,381.060 43.007,385.417 43.927 C 387.869 44.445,387.842 44.923,385.324 45.591 C 382.467 46.349,379.726 47.972,378.816 49.445 C 378.348 50.202,376.917 50.877,375.167 51.167 C 371.767 51.729,369.134 53.086,368.247 54.734 C 367.839 55.491,366.284 56.152,363.788 56.629 C 360.931 57.175,358.962 58.221,357.906 59.754 C 357.156 60.844,356.360 61.227,353.750 61.754 C 350.429 62.425,348.433 63.458,347.417 65.032 C 346.785 66.010,345.415 66.627,342.750 67.136 C 339.735 67.712,336.500 69.638,336.500 70.859 C 336.500 71.149,334.447 71.955,333.167 72.167 C 329.710 72.739,327.248 74.012,326.136 75.803 C 325.671 76.551,324.348 77.126,322.172 77.528 C 321.212 77.705,319.977 78.031,319.427 78.254 C 318.240 78.733,318.070 78.667,317.002 77.316 L 316.333 76.470 316.333 68.434 L 316.333 60.399 315.855 59.658 C 314.815 58.047,313.561 57.290,310.996 56.727 C 309.626 56.426,306.114 56.417,194.667 56.417 L 79.750 56.417 78.224 56.781 C 75.720 57.378,74.277 58.311,73.501 59.831 C 73.180 60.460,73.167 60.807,73.167 68.380 L 73.167 76.274 72.708 76.873 C 72.456 77.202,72.003 77.675,71.701 77.923 L 71.152 78.375 70.112 78.034 C 69.540 77.846,68.266 77.537,67.280 77.347 C 64.984 76.904,64.386 76.592,63.622 75.442 C 62.546 73.822,60.651 72.886,56.853 72.101 C 54.414 71.596,53.849 71.316,53.138 70.256 C 52.034 68.608,50.116 67.629,46.603 66.917 C 44.163 66.423,43.099 65.975,42.830 65.325 C 42.149 63.682,39.724 62.386,35.861 61.602 C 33.416 61.106,32.676 60.746,32.106 59.774 C 31.125 58.100,28.219 56.705,24.750 56.242 C 23.573 56.085,22.082 55.395,21.858 54.903 C 21.025 53.076,17.770 51.440,13.922 50.915 C 12.636 50.740,11.660 50.160,11.041 49.205 C 9.768 47.241,5.421 45.379,1.708 45.208 L 0.000 45.129 0.000 45.564 L 0.000 46.000 1.517 46.000 C 4.129 46.000,7.552 47.413,9.486 49.290 C 10.677 50.445,12.181 51.206,14.355 51.751 C 16.743 52.350,18.861 53.402,20.064 54.586 C 21.225 55.729,22.772 56.497,25.083 57.080 C 27.428 57.671,29.290 58.604,30.560 59.824 C 31.810 61.024,33.101 61.661,35.688 62.353 C 38.065 62.990,39.963 63.959,41.148 65.142 C 42.245 66.238,43.795 67.003,46.083 67.580 C 48.414 68.168,50.238 69.081,51.590 70.339 C 52.908 71.566,54.350 72.273,56.806 72.899 C 59.142 73.494,60.844 74.348,62.083 75.548 C 63.289 76.716,64.894 77.549,66.822 78.008 C 67.594 78.192,68.882 78.608,69.683 78.932 C 71.374 79.617,71.618 79.568,72.972 78.274 C 74.398 76.911,74.333 77.375,74.333 68.474 L 74.333 60.601 74.774 59.965 C 75.687 58.648,78.166 57.444,80.869 57.006 C 82.841 56.686,307.327 56.776,309.023 57.098 C 311.273 57.524,312.857 58.218,314.006 59.282 L 315.000 60.203 315.000 68.190 L 315.000 76.178 315.440 77.047 C 316.076 78.303,316.588 78.915,317.482 79.489 L 318.272 79.995 319.594 79.330 C 320.322 78.964,321.667 78.470,322.583 78.233 C 324.965 77.617,326.820 76.706,328.064 75.544 C 329.413 74.284,330.680 73.631,333.002 72.999 C 335.457 72.332,337.373 71.429,338.344 70.481 C 339.842 69.020,341.240 68.305,343.917 67.633 C 345.781 67.165,347.933 66.129,348.833 65.266 C 350.379 63.784,351.679 63.104,354.301 62.408 C 356.439 61.841,358.732 60.724,359.583 59.836 C 360.807 58.560,362.630 57.655,365.167 57.063 C 366.669 56.713,369.241 55.468,369.775 54.833 C 370.815 53.598,372.703 52.593,375.249 51.919 C 377.698 51.271,379.453 50.389,380.874 49.092 C 382.186 47.895,383.927 46.913,385.789 46.320 C 386.652 46.045,387.162 45.765,387.582 45.335 L 388.169 44.734 387.605 44.188 C 387.168 43.764,386.653 43.530,385.312 43.144 C 382.758 42.409,380.426 41.228,379.434 40.168 C 378.433 39.098,376.942 38.262,375.416 37.917 C 372.273 37.205,370.163 36.218,368.801 34.821 C 367.614 33.604,366.600 33.087,364.230 32.488 C 361.105 31.699,359.648 30.975,358.300 29.541 C 357.376 28.559,355.713 27.694,353.750 27.177 C 351.718 26.641,349.872 25.664,348.484 24.391 C 347.064 23.088,345.679 22.401,343.194 21.768 C 340.858 21.173,339.156 20.319,337.917 19.118 C 336.713 17.953,335.107 17.118,333.189 16.661 C 330.456 16.011,327.921 14.710,327.026 13.499 C 326.525 12.821,324.293 11.791,322.218 11.279 C 321.284 11.048,320.024 10.623,319.419 10.335 L 318.320 9.810 317.604 10.229 C 316.747 10.731,315.807 11.737,315.341 12.653 C 315.012 13.297,315.000 13.593,315.000 21.251 L 315.000 29.183 314.198 29.984 C 313.197 30.986,311.717 31.695,309.667 32.155 L 308.083 32.511 194.250 32.464 C 83.767 32.418,80.385 32.408,79.333 32.106 C 77.553 31.596,76.164 30.852,75.213 29.901 L 74.333 29.022 74.333 21.000 C 74.333 12.444,74.365 12.777,73.453 11.614 C 72.955 10.979,71.404 9.821,71.086 9.847 C 70.993 9.854,70.439 10.090,69.854 10.371 " stroke="none" fill="#424242" fill-rule="evenodd"></path><path id="path4" d="M70.742 8.950 C 69.986 9.517,68.085 10.354,66.476 10.827 C 64.230 11.488,62.611 12.293,61.121 13.489 C 59.593 14.716,58.410 15.309,55.969 16.071 C 53.546 16.827,52.080 17.561,50.602 18.757 C 49.202 19.889,47.631 20.700,45.798 21.233 C 42.955 22.062,41.394 22.832,39.909 24.138 C 38.857 25.065,37.220 25.874,35.000 26.564 C 32.467 27.352,31.000 28.078,29.583 29.243 C 28.177 30.400,26.652 31.193,24.798 31.733 C 21.925 32.570,20.621 33.217,18.782 34.716 C 17.494 35.766,16.319 36.338,13.917 37.083 C 11.642 37.788,9.675 38.744,8.631 39.652 C 6.321 41.660,3.619 42.833,1.304 42.833 C 0.111 42.833,0.000 42.862,0.000 43.167 C 0.000 43.473,0.111 43.500,1.354 43.500 C 3.881 43.500,7.464 42.014,9.417 40.157 C 10.674 38.960,12.255 38.167,14.500 37.605 C 16.901 37.005,18.773 36.078,20.055 34.854 C 21.211 33.750,22.597 32.988,24.180 32.584 C 27.469 31.746,29.270 30.896,30.628 29.543 C 31.745 28.430,33.283 27.660,35.500 27.105 C 37.901 26.505,39.773 25.578,41.055 24.354 C 42.332 23.135,43.664 22.456,45.872 21.900 C 48.257 21.300,50.456 20.215,51.631 19.058 C 52.780 17.927,54.309 17.137,56.232 16.680 C 59.003 16.022,60.605 15.232,62.177 13.746 C 63.370 12.618,64.742 11.935,66.979 11.353 C 67.967 11.097,69.310 10.640,69.964 10.338 L 71.153 9.790 72.000 10.333 C 72.814 10.855,73.748 11.849,74.145 12.614 C 74.277 12.870,74.333 15.353,74.333 21.000 L 74.333 29.022 75.213 29.901 C 76.164 30.852,77.553 31.596,79.333 32.106 C 80.385 32.408,83.767 32.418,194.250 32.464 L 308.083 32.511 309.667 32.155 C 311.717 31.695,313.197 30.986,314.198 29.984 L 315.000 29.183 315.000 21.251 C 315.000 13.593,315.012 13.297,315.341 12.653 C 315.807 11.737,316.747 10.731,317.604 10.229 L 318.320 9.810 319.419 10.335 C 320.024 10.623,321.284 11.048,322.218 11.279 C 324.293 11.791,326.525 12.821,327.026 13.499 C 327.921 14.710,330.456 16.011,333.189 16.661 C 335.107 17.118,336.713 17.953,337.917 19.118 C 339.156 20.319,340.858 21.173,343.194 21.768 C 345.679 22.401,347.064 23.088,348.484 24.391 C 349.872 25.664,351.718 26.641,353.750 27.177 C 355.713 27.694,357.376 28.559,358.300 29.541 C 359.648 30.975,361.105 31.699,364.230 32.488 C 366.600 33.087,367.614 33.604,368.801 34.821 C 370.163 36.218,372.273 37.205,375.416 37.917 C 376.942 38.262,378.433 39.098,379.434 40.168 C 380.426 41.228,382.758 42.409,385.312 43.144 C 386.653 43.530,387.168 43.764,387.605 44.188 L 388.169 44.734 387.582 45.335 C 387.162 45.765,386.652 46.045,385.789 46.320 C 383.927 46.913,382.186 47.895,380.874 49.092 C 379.453 50.389,377.698 51.271,375.249 51.919 C 372.703 52.593,370.815 53.598,369.775 54.833 C 369.241 55.468,366.669 56.713,365.167 57.063 C 362.630 57.655,360.807 58.560,359.583 59.836 C 358.732 60.724,356.439 61.841,354.301 62.408 C 351.679 63.104,350.379 63.784,348.833 65.266 C 347.933 66.129,345.781 67.165,343.917 67.633 C 341.240 68.305,339.842 69.020,338.344 70.481 C 337.373 71.429,335.457 72.332,333.002 72.999 C 330.680 73.631,329.413 74.284,328.064 75.544 C 326.820 76.706,324.965 77.617,322.583 78.233 C 321.667 78.470,320.322 78.964,319.594 79.330 L 318.272 79.995 317.482 79.489 C 316.588 78.915,316.076 78.303,315.440 77.047 L 315.000 76.178 315.000 68.190 L 315.000 60.203 314.006 59.282 C 312.857 58.218,311.273 57.524,309.023 57.098 C 307.327 56.776,82.841 56.686,80.869 57.006 C 78.166 57.444,75.687 58.648,74.774 59.965 L 74.333 60.601 74.333 68.474 C 74.333 77.375,74.398 76.911,72.972 78.274 C 71.618 79.568,71.374 79.617,69.683 78.932 C 68.882 78.608,67.594 78.192,66.822 78.008 C 64.894 77.549,63.289 76.716,62.083 75.548 C 60.844 74.348,59.142 73.494,56.806 72.899 C 54.350 72.273,52.908 71.566,51.590 70.339 C 50.238 69.081,48.414 68.168,46.083 67.580 C 43.795 67.003,42.245 66.238,41.148 65.142 C 39.963 63.959,38.065 62.990,35.688 62.353 C 33.101 61.661,31.810 61.024,30.560 59.824 C 29.290 58.604,27.428 57.671,25.083 57.080 C 22.772 56.497,21.225 55.729,20.064 54.586 C 18.861 53.402,16.743 52.350,14.355 51.751 C 12.181 51.206,10.677 50.445,9.486 49.290 C 7.552 47.413,4.129 46.000,1.517 46.000 C 0.111 46.000,0.000 46.024,0.000 46.333 C 0.000 46.642,0.111 46.667,1.496 46.667 C 3.745 46.667,5.966 47.590,8.351 49.516 C 9.840 50.718,11.655 51.625,14.000 52.339 C 16.233 53.019,17.625 53.725,19.061 54.903 C 20.405 56.006,22.382 56.995,24.250 57.499 C 26.095 57.997,28.393 59.145,29.583 60.166 C 30.799 61.208,32.664 62.128,35.000 62.839 C 37.149 63.494,38.633 64.226,39.898 65.256 C 41.706 66.729,42.691 67.207,46.250 68.335 C 47.818 68.832,49.443 69.696,50.492 70.592 C 51.796 71.705,53.218 72.426,55.685 73.227 C 58.434 74.119,59.765 74.780,61.167 75.949 C 62.516 77.075,63.976 77.789,66.846 78.726 C 68.076 79.128,69.547 79.730,70.114 80.063 L 71.145 80.670 72.109 80.309 C 73.408 79.823,74.656 78.577,75.141 77.280 C 75.490 76.347,75.500 76.103,75.500 68.340 L 75.500 60.359 76.208 59.748 C 77.161 58.925,78.521 58.256,80.261 57.752 L 81.704 57.333 194.659 57.333 C 307.049 57.333,307.620 57.335,308.932 57.667 C 310.531 58.071,312.337 58.934,313.286 59.747 L 313.988 60.349 314.036 68.716 L 314.083 77.083 314.482 78.073 C 315.023 79.415,316.109 80.475,317.419 80.937 L 318.421 81.291 319.086 80.713 C 320.019 79.901,321.275 79.304,323.521 78.605 C 325.902 77.864,327.878 76.892,329.038 75.893 C 330.372 74.744,331.365 74.238,333.910 73.407 C 336.640 72.516,338.399 71.643,339.726 70.520 C 341.051 69.400,341.895 68.975,344.528 68.105 C 347.294 67.190,348.788 66.457,350.095 65.373 C 351.720 64.025,352.743 63.525,355.583 62.690 C 357.335 62.175,359.626 60.991,360.750 60.019 C 361.956 58.976,363.490 58.216,365.833 57.502 C 368.019 56.835,370.313 55.666,371.445 54.641 C 372.471 53.711,374.238 52.835,376.083 52.340 C 378.022 51.819,380.570 50.550,381.748 49.517 C 383.012 48.409,384.247 47.667,385.833 47.061 C 387.048 46.597,388.833 45.200,388.833 44.714 C 388.833 44.168,387.121 43.013,385.537 42.490 C 383.336 41.765,381.631 40.917,380.696 40.084 C 378.961 38.537,378.081 38.098,374.333 36.909 C 372.379 36.289,370.934 35.524,369.723 34.470 C 368.448 33.360,366.786 32.535,364.447 31.852 C 362.216 31.201,360.531 30.373,359.331 29.338 C 357.942 28.140,356.943 27.593,354.800 26.856 C 352.267 25.985,351.213 25.458,350.041 24.477 C 348.390 23.095,346.772 22.231,344.432 21.483 C 341.713 20.613,340.223 19.877,338.833 18.718 C 337.484 17.592,336.024 16.878,333.154 15.941 C 330.743 15.154,329.581 14.554,328.210 13.387 C 327.005 12.362,325.507 11.617,323.206 10.901 C 321.304 10.309,319.178 9.379,318.665 8.915 C 318.127 8.428,315.682 9.778,314.940 10.972 C 313.984 12.509,314.000 12.340,314.000 20.982 L 314.000 28.958 313.234 29.664 C 312.355 30.474,310.579 31.339,308.989 31.730 C 307.320 32.142,82.204 32.146,80.511 31.734 C 79.021 31.372,76.883 30.320,76.125 29.576 L 75.500 28.962 75.500 21.071 C 75.500 12.314,75.499 12.302,74.335 10.695 C 73.495 9.536,71.349 8.494,70.742 8.950 " stroke="none" fill="#5e5e5e" fill-rule="evenodd"></path><path id="path5" d="M70.250 8.443 C 69.133 9.235,67.833 9.817,65.325 10.647 C 63.146 11.368,61.721 12.106,60.396 13.200 C 59.150 14.230,57.748 14.927,55.284 15.742 C 52.465 16.674,51.822 16.995,49.917 18.425 C 48.174 19.732,47.194 20.210,44.333 21.147 C 42.219 21.839,40.519 22.735,38.924 23.997 C 37.678 24.984,36.779 25.417,34.236 26.255 C 31.613 27.121,30.257 27.805,28.775 29.015 C 27.499 30.056,25.971 30.803,23.500 31.596 C 21.123 32.358,20.077 32.877,18.491 34.080 C 16.652 35.475,15.803 35.909,13.275 36.745 C 10.410 37.692,9.625 38.084,7.750 39.505 C 5.196 41.440,3.760 42.065,1.708 42.137 C 0.159 42.191,-0.000 42.227,-0.000 42.515 C -0.000 42.801,0.132 42.833,1.304 42.833 C 3.619 42.833,6.321 41.660,8.631 39.652 C 9.675 38.744,11.642 37.788,13.917 37.083 C 16.319 36.338,17.494 35.766,18.782 34.716 C 20.621 33.217,21.925 32.570,24.798 31.733 C 26.652 31.193,28.177 30.400,29.583 29.243 C 31.000 28.078,32.467 27.352,35.000 26.564 C 37.220 25.874,38.857 25.065,39.909 24.138 C 41.394 22.832,42.955 22.062,45.798 21.233 C 47.631 20.700,49.202 19.889,50.602 18.757 C 52.080 17.561,53.546 16.827,55.969 16.071 C 58.410 15.309,59.593 14.716,61.121 13.489 C 62.611 12.293,64.230 11.488,66.477 10.827 C 68.143 10.337,69.786 9.618,70.675 8.991 C 71.611 8.331,73.893 9.752,74.833 11.581 L 75.417 12.716 75.463 20.843 L 75.509 28.971 76.130 29.580 C 76.884 30.321,79.024 31.373,80.511 31.734 C 82.204 32.146,307.320 32.142,308.989 31.730 C 310.579 31.339,312.355 30.474,313.234 29.664 L 314.000 28.958 314.000 20.982 C 314.000 12.340,313.984 12.509,314.940 10.972 C 315.682 9.778,318.127 8.428,318.665 8.915 C 319.178 9.379,321.304 10.309,323.206 10.901 C 325.507 11.617,327.005 12.362,328.210 13.387 C 329.581 14.554,330.743 15.154,333.154 15.941 C 336.024 16.878,337.484 17.592,338.833 18.718 C 340.223 19.877,341.713 20.613,344.432 21.483 C 346.772 22.231,348.390 23.095,350.041 24.477 C 351.213 25.458,352.267 25.985,354.800 26.856 C 356.943 27.593,357.942 28.140,359.331 29.338 C 360.531 30.373,362.216 31.201,364.447 31.852 C 366.786 32.535,368.448 33.360,369.723 34.470 C 370.934 35.524,372.379 36.289,374.333 36.909 C 378.081 38.098,378.961 38.537,380.696 40.084 C 381.631 40.917,383.336 41.765,385.537 42.490 C 387.121 43.013,388.833 44.168,388.833 44.714 C 388.833 45.200,387.048 46.597,385.833 47.061 C 384.247 47.667,383.012 48.409,381.748 49.517 C 380.570 50.550,378.022 51.819,376.083 52.340 C 374.238 52.835,372.471 53.711,371.445 54.641 C 370.313 55.666,368.019 56.835,365.833 57.502 C 363.490 58.216,361.956 58.976,360.750 60.019 C 359.626 60.991,357.335 62.175,355.583 62.690 C 352.743 63.525,351.720 64.025,350.095 65.373 C 348.788 66.457,347.294 67.190,344.528 68.105 C 341.895 68.975,341.051 69.400,339.726 70.520 C 338.399 71.643,336.640 72.516,333.910 73.407 C 331.365 74.238,330.372 74.744,329.038 75.893 C 327.878 76.892,325.902 77.864,323.521 78.605 C 321.275 79.304,320.019 79.901,319.086 80.713 L 318.421 81.291 317.419 80.937 C 316.109 80.475,315.023 79.415,314.482 78.073 L 314.083 77.083 314.036 68.716 L 313.988 60.349 313.286 59.747 C 312.337 58.934,310.531 58.071,308.932 57.667 C 307.620 57.335,307.049 57.333,194.659 57.333 L 81.704 57.333 80.261 57.752 C 78.521 58.256,77.161 58.925,76.208 59.748 L 75.500 60.359 75.500 68.340 C 75.500 76.103,75.490 76.347,75.141 77.280 C 74.656 78.577,73.408 79.823,72.109 80.309 L 71.145 80.670 70.114 80.063 C 69.547 79.730,68.076 79.128,66.846 78.726 C 63.976 77.789,62.516 77.075,61.167 75.949 C 59.765 74.780,58.434 74.119,55.685 73.227 C 53.218 72.426,51.796 71.705,50.492 70.592 C 49.443 69.696,47.818 68.832,46.250 68.335 C 42.691 67.207,41.706 66.729,39.898 65.256 C 38.633 64.226,37.149 63.494,35.000 62.839 C 32.664 62.128,30.799 61.208,29.583 60.166 C 28.393 59.145,26.095 57.997,24.250 57.499 C 22.382 56.995,20.405 56.006,19.061 54.903 C 17.625 53.725,16.233 53.019,14.000 52.339 C 11.655 51.625,9.840 50.718,8.351 49.516 C 5.966 47.590,3.745 46.667,1.496 46.667 C 0.277 46.667,0.000 46.713,0.000 46.917 C 0.000 47.118,0.261 47.167,1.347 47.167 C 3.372 47.167,5.459 48.063,7.767 49.923 C 9.138 51.027,11.031 51.977,13.083 52.590 C 14.967 53.153,17.049 54.136,17.917 54.873 C 19.655 56.349,20.705 56.894,23.755 57.898 C 26.163 58.691,27.578 59.411,28.937 60.534 C 30.183 61.563,31.585 62.261,34.049 63.075 C 36.869 64.007,37.511 64.329,39.417 65.758 C 41.148 67.057,42.304 67.622,45.067 68.521 C 47.251 69.231,48.689 69.965,49.933 71.003 C 51.222 72.080,52.570 72.756,55.083 73.584 C 57.720 74.454,59.074 75.137,60.559 76.348 C 61.835 77.389,63.363 78.137,65.833 78.929 C 67.988 79.620,69.041 80.105,70.236 80.956 C 71.474 81.837,74.001 81.385,75.149 80.077 C 76.215 78.864,76.236 78.662,76.294 69.130 L 76.347 60.511 77.049 59.942 C 77.942 59.217,79.111 58.632,80.559 58.186 L 81.702 57.833 194.759 57.833 L 307.816 57.833 309.116 58.244 C 310.409 58.653,312.083 59.545,312.783 60.199 L 313.149 60.541 313.206 69.812 C 313.280 81.793,313.132 81.256,316.504 81.834 L 318.393 82.158 319.294 81.417 C 320.668 80.285,321.720 79.752,324.085 78.989 C 326.722 78.137,328.484 77.276,329.681 76.252 C 331.015 75.110,331.993 74.610,334.583 73.744 C 337.363 72.816,339.089 71.956,340.402 70.846 C 341.609 69.825,342.883 69.196,345.333 68.410 C 347.869 67.598,349.318 66.872,350.833 65.657 C 352.303 64.479,353.408 63.929,355.951 63.111 C 358.328 62.347,360.217 61.397,361.378 60.382 C 362.552 59.355,363.860 58.716,366.736 57.762 C 369.320 56.905,370.447 56.330,371.905 55.124 C 373.170 54.079,374.606 53.364,376.970 52.605 C 379.275 51.864,381.103 50.991,382.043 50.180 C 383.499 48.925,384.158 48.494,385.870 47.674 C 388.550 46.390,389.829 45.034,389.141 44.202 C 388.384 43.286,387.243 42.497,386.167 42.146 C 384.306 41.538,382.097 40.390,380.900 39.408 C 379.431 38.203,378.423 37.699,375.563 36.745 C 372.963 35.876,371.735 35.250,370.187 34.005 C 368.825 32.910,367.699 32.347,365.327 31.577 C 362.709 30.728,361.218 29.992,359.793 28.848 C 358.349 27.690,357.364 27.173,355.107 26.390 C 352.927 25.633,351.462 24.860,350.235 23.815 C 348.800 22.595,347.541 21.948,344.917 21.082 C 342.280 20.213,340.926 19.529,339.441 18.318 C 338.163 17.276,336.633 16.528,334.167 15.740 C 331.926 15.024,330.423 14.281,329.218 13.292 C 327.739 12.079,326.575 11.480,323.950 10.585 C 321.162 9.634,320.309 9.244,319.123 8.380 L 318.330 7.803 317.050 8.064 C 313.324 8.824,313.167 9.336,313.167 20.739 L 313.167 28.932 312.358 29.549 C 311.472 30.224,309.841 31.004,308.667 31.313 C 308.091 31.464,281.456 31.499,194.333 31.463 L 80.750 31.417 79.471 30.865 C 78.768 30.561,77.774 30.013,77.263 29.647 L 76.333 28.982 76.333 20.693 C 76.333 9.432,76.157 8.844,72.547 8.079 C 71.101 7.772,71.223 7.753,70.250 8.443 " stroke="none" fill="#777777" fill-rule="evenodd"></path><path id="path6" d="M70.068 7.500 C 68.881 8.540,66.973 9.480,64.833 10.079 C 62.684 10.680,60.794 11.629,59.530 12.741 C 58.265 13.854,56.271 14.849,54.333 15.333 C 52.405 15.815,50.378 16.822,49.174 17.897 C 47.855 19.074,46.302 19.868,44.076 20.504 C 41.670 21.191,39.825 22.096,38.521 23.229 C 37.242 24.340,35.309 25.304,33.167 25.898 C 31.059 26.483,29.148 27.448,27.867 28.573 C 26.614 29.674,24.985 30.486,22.833 31.082 C 20.693 31.675,18.800 32.618,17.521 33.729 C 16.242 34.840,14.309 35.804,12.167 36.398 C 10.055 36.984,8.150 37.941,6.851 39.067 C 4.999 40.673,3.157 41.500,1.432 41.500 C 0.090 41.500,-0.000 41.522,-0.000 41.849 C -0.000 42.183,0.067 42.195,1.708 42.137 C 3.760 42.065,5.196 41.440,7.750 39.505 C 9.625 38.084,10.410 37.692,13.275 36.745 C 15.803 35.909,16.652 35.475,18.491 34.080 C 20.077 32.877,21.123 32.358,23.500 31.596 C 25.971 30.803,27.499 30.056,28.775 29.015 C 30.257 27.805,31.613 27.121,34.236 26.255 C 36.779 25.417,37.678 24.984,38.924 23.997 C 40.519 22.735,42.219 21.839,44.333 21.147 C 47.194 20.210,48.174 19.732,49.917 18.425 C 51.822 16.995,52.465 16.674,55.284 15.742 C 57.748 14.927,59.150 14.230,60.396 13.200 C 61.719 12.107,63.145 11.368,65.325 10.645 C 67.997 9.759,68.903 9.358,70.155 8.508 L 71.169 7.819 72.210 8.001 C 76.130 8.688,76.333 9.315,76.333 20.693 L 76.333 28.982 77.263 29.647 C 77.774 30.013,78.768 30.561,79.471 30.865 L 80.750 31.417 194.333 31.463 C 281.456 31.499,308.091 31.464,308.667 31.313 C 309.841 31.004,311.472 30.224,312.358 29.549 L 313.167 28.932 313.167 20.739 C 313.167 9.336,313.324 8.824,317.050 8.064 L 318.330 7.803 319.123 8.380 C 320.309 9.244,321.162 9.634,323.950 10.585 C 326.575 11.480,327.739 12.079,329.218 13.292 C 330.423 14.281,331.926 15.024,334.167 15.740 C 336.633 16.528,338.163 17.276,339.441 18.318 C 340.926 19.529,342.280 20.213,344.917 21.082 C 347.541 21.948,348.800 22.595,350.235 23.815 C 351.462 24.860,352.927 25.633,355.107 26.390 C 357.364 27.173,358.349 27.690,359.793 28.848 C 361.218 29.992,362.709 30.728,365.327 31.577 C 367.699 32.347,368.825 32.910,370.187 34.005 C 371.735 35.250,372.963 35.876,375.563 36.745 C 378.423 37.699,379.431 38.203,380.900 39.408 C 382.097 40.390,384.306 41.538,386.167 42.146 C 387.243 42.497,388.384 43.286,389.141 44.202 C 389.829 45.034,388.550 46.390,385.870 47.674 C 384.158 48.494,383.499 48.925,382.043 50.180 C 381.103 50.991,379.275 51.864,376.970 52.605 C 374.606 53.364,373.170 54.079,371.905 55.124 C 370.447 56.330,369.320 56.905,366.736 57.762 C 363.860 58.716,362.552 59.355,361.378 60.382 C 360.217 61.397,358.328 62.347,355.951 63.111 C 353.408 63.929,352.303 64.479,350.833 65.657 C 349.318 66.872,347.869 67.598,345.333 68.410 C 342.883 69.196,341.609 69.825,340.402 70.846 C 339.089 71.956,337.363 72.816,334.583 73.744 C 331.993 74.610,331.015 75.110,329.681 76.252 C 328.484 77.276,326.722 78.137,324.085 78.989 C 321.720 79.752,320.668 80.285,319.294 81.417 L 318.393 82.158 316.504 81.834 C 313.132 81.256,313.280 81.793,313.206 69.812 L 313.149 60.541 312.783 60.199 C 312.083 59.545,310.409 58.653,309.116 58.244 L 307.816 57.833 194.759 57.833 L 81.702 57.833 80.559 58.186 C 79.111 58.632,77.942 59.217,77.049 59.942 L 76.347 60.511 76.294 69.130 C 76.236 78.662,76.215 78.864,75.149 80.077 C 74.001 81.385,71.474 81.837,70.236 80.956 C 69.041 80.105,67.988 79.620,65.833 78.929 C 63.363 78.137,61.835 77.389,60.559 76.348 C 59.074 75.137,57.720 74.454,55.083 73.584 C 52.570 72.756,51.222 72.080,49.933 71.003 C 48.689 69.965,47.251 69.231,45.067 68.521 C 42.304 67.622,41.148 67.057,39.417 65.758 C 37.511 64.329,36.869 64.007,34.049 63.075 C 31.585 62.261,30.183 61.563,28.937 60.534 C 27.578 59.411,26.163 58.691,23.755 57.898 C 20.705 56.894,19.655 56.349,17.917 54.873 C 17.049 54.136,14.967 53.153,13.083 52.590 C 11.031 51.977,9.138 51.027,7.767 49.923 C 5.459 48.063,3.372 47.167,1.347 47.167 C 0.111 47.167,0.000 47.194,0.000 47.500 C 0.000 47.804,0.111 47.833,1.244 47.833 C 3.106 47.833,5.078 48.731,7.095 50.496 C 8.247 51.504,9.627 52.237,11.369 52.766 C 14.921 53.843,15.898 54.315,17.630 55.784 C 18.929 56.885,20.510 57.663,22.667 58.260 C 24.694 58.822,26.877 59.881,27.833 60.766 C 29.309 62.132,30.433 62.681,34.107 63.829 C 35.659 64.314,38.333 65.668,38.333 65.968 C 38.333 66.537,41.344 68.113,43.667 68.761 C 45.866 69.373,47.778 70.323,49.030 71.425 C 50.304 72.546,52.116 73.438,54.583 74.157 C 56.821 74.810,58.305 75.570,59.695 76.776 C 60.961 77.875,62.530 78.659,64.667 79.261 C 66.855 79.877,68.734 80.787,69.917 81.804 C 71.066 82.792,70.958 82.776,74.083 82.410 C 77.506 82.008,77.348 82.609,77.488 69.425 L 77.583 60.432 78.250 59.971 C 78.617 59.718,79.455 59.283,80.113 59.005 L 81.310 58.500 194.750 58.500 L 308.190 58.500 309.387 59.005 C 310.045 59.283,310.883 59.718,311.250 59.971 L 311.917 60.432 312.001 70.841 C 312.064 78.497,312.139 81.343,312.286 81.601 C 312.724 82.370,313.016 82.450,317.714 83.087 C 318.487 83.192,318.725 83.069,320.042 81.886 C 321.277 80.778,322.873 79.977,324.962 79.418 C 327.617 78.708,329.688 77.663,330.706 76.520 C 331.419 75.720,333.176 74.856,335.535 74.144 C 338.420 73.274,339.518 72.735,340.917 71.500 C 342.295 70.284,343.879 69.471,345.951 68.919 C 348.689 68.190,350.267 67.396,351.758 66.000 C 352.707 65.111,354.568 64.156,356.135 63.755 C 358.904 63.046,360.757 62.161,362.071 60.920 C 362.514 60.501,363.336 59.904,363.897 59.593 C 364.892 59.041,365.249 58.911,367.833 58.161 C 369.759 57.602,371.319 56.783,372.587 55.663 C 373.769 54.620,375.493 53.675,376.833 53.338 C 379.966 52.548,381.855 51.633,383.502 50.108 C 384.096 49.559,385.132 48.875,386.192 48.333 C 388.638 47.082,390.167 45.687,390.167 44.706 C 390.167 43.796,388.310 42.215,386.417 41.512 C 384.558 40.822,382.662 39.778,381.620 38.872 C 380.307 37.729,379.253 37.198,376.752 36.419 C 374.256 35.642,372.508 34.771,371.236 33.671 C 370.096 32.686,368.059 31.643,366.500 31.247 C 364.298 30.688,361.752 29.451,360.667 28.412 C 359.680 27.468,358.198 26.698,356.011 25.992 C 353.644 25.228,352.046 24.357,350.781 23.142 C 349.724 22.126,347.915 21.238,345.417 20.510 C 343.179 19.857,341.695 19.097,340.305 17.891 C 339.039 16.792,337.470 16.007,335.333 15.406 C 333.251 14.819,331.273 13.890,330.287 13.034 C 328.447 11.437,327.271 10.832,324.405 10.006 C 322.269 9.390,320.408 8.438,319.282 7.385 C 318.531 6.682,318.431 6.638,317.780 6.726 C 317.397 6.778,316.204 6.910,315.130 7.019 C 311.995 7.338,312.004 7.300,312.001 20.583 L 311.999 28.917 311.196 29.465 C 310.753 29.766,309.835 30.232,309.154 30.500 L 307.917 30.989 194.750 30.989 L 81.583 30.989 80.376 30.512 C 79.711 30.250,78.798 29.798,78.345 29.508 L 77.523 28.980 77.457 19.948 C 77.363 6.881,77.471 7.335,74.370 7.019 C 73.296 6.910,72.110 6.779,71.735 6.729 C 71.098 6.643,70.989 6.694,70.068 7.500 " stroke="none" fill="#8a8a8a" fill-rule="evenodd"></path><path id="path7" d="M70.128 6.165 C 69.695 6.456,69.104 6.991,68.816 7.355 C 68.131 8.220,66.434 9.069,64.551 9.490 C 61.715 10.123,59.753 11.078,58.522 12.424 C 57.565 13.472,55.908 14.356,54.338 14.657 C 51.612 15.181,48.858 16.533,47.781 17.875 C 47.111 18.710,45.400 19.588,43.791 19.923 C 40.940 20.516,39.039 21.420,37.500 22.915 C 36.146 24.231,35.284 24.662,32.664 25.333 C 29.880 26.045,28.366 26.796,27.004 28.137 C 25.816 29.307,24.473 30.073,23.127 30.349 C 19.976 30.994,17.861 31.963,16.444 33.412 C 15.159 34.725,14.179 35.220,11.613 35.850 C 8.869 36.523,7.180 37.369,5.892 38.713 C 4.417 40.252,3.184 40.833,1.393 40.833 C 0.111 40.833,0.000 40.860,0.000 41.167 C 0.000 41.474,0.111 41.500,1.432 41.500 C 3.157 41.500,4.999 40.673,6.851 39.067 C 8.150 37.941,10.055 36.984,12.167 36.398 C 14.309 35.804,16.242 34.840,17.521 33.729 C 18.800 32.618,20.693 31.675,22.833 31.082 C 24.985 30.486,26.614 29.674,27.867 28.573 C 29.148 27.448,31.059 26.483,33.167 25.898 C 35.309 25.304,37.242 24.340,38.521 23.229 C 39.825 22.096,41.670 21.191,44.076 20.504 C 46.302 19.868,47.855 19.074,49.174 17.897 C 50.378 16.822,52.405 15.815,54.333 15.333 C 56.271 14.849,58.265 13.854,59.530 12.741 C 60.794 11.629,62.684 10.680,64.833 10.079 C 66.973 9.480,68.881 8.540,70.068 7.500 C 70.989 6.694,71.098 6.643,71.735 6.729 C 72.110 6.779,73.296 6.910,74.370 7.019 C 77.471 7.335,77.363 6.881,77.457 19.948 L 77.523 28.980 78.345 29.508 C 78.798 29.798,79.711 30.250,80.376 30.512 L 81.583 30.989 194.750 30.989 L 307.917 30.989 309.154 30.500 C 309.835 30.232,310.753 29.766,311.196 29.465 L 311.999 28.917 312.001 20.583 C 312.004 7.300,311.995 7.338,315.130 7.019 C 316.204 6.910,317.397 6.778,317.780 6.726 C 318.431 6.638,318.531 6.682,319.282 7.385 C 320.408 8.438,322.269 9.390,324.405 10.006 C 327.271 10.832,328.447 11.437,330.287 13.034 C 331.273 13.890,333.251 14.819,335.333 15.406 C 337.470 16.007,339.039 16.792,340.305 17.891 C 341.695 19.097,343.179 19.857,345.417 20.510 C 347.915 21.238,349.724 22.126,350.781 23.142 C 352.046 24.357,353.644 25.228,356.011 25.992 C 358.198 26.698,359.680 27.468,360.667 28.412 C 361.752 29.451,364.298 30.688,366.500 31.247 C 368.059 31.643,370.096 32.686,371.236 33.671 C 372.508 34.771,374.256 35.642,376.752 36.419 C 379.253 37.198,380.307 37.729,381.620 38.872 C 382.662 39.778,384.558 40.822,386.417 41.512 C 391.278 43.316,391.197 45.774,386.192 48.333 C 385.132 48.875,384.096 49.559,383.502 50.108 C 381.855 51.633,379.966 52.548,376.833 53.338 C 375.493 53.675,373.769 54.620,372.587 55.663 C 371.319 56.783,369.759 57.602,367.833 58.161 C 365.249 58.911,364.892 59.041,363.897 59.593 C 363.336 59.904,362.514 60.501,362.071 60.920 C 360.757 62.161,358.904 63.046,356.135 63.755 C 354.568 64.156,352.707 65.111,351.758 66.000 C 350.267 67.396,348.689 68.190,345.951 68.919 C 343.879 69.471,342.295 70.284,340.917 71.500 C 339.518 72.735,338.420 73.274,335.535 74.144 C 333.176 74.856,331.419 75.720,330.706 76.520 C 329.688 77.663,327.617 78.708,324.962 79.418 C 322.873 79.977,321.277 80.778,320.042 81.886 C 318.725 83.069,318.487 83.192,317.714 83.087 C 313.016 82.450,312.724 82.370,312.286 81.601 C 312.139 81.343,312.064 78.497,312.001 70.841 L 311.917 60.432 311.250 59.971 C 310.883 59.718,310.045 59.283,309.387 59.005 L 308.190 58.500 194.750 58.500 L 81.310 58.500 80.113 59.005 C 79.455 59.283,78.617 59.718,78.250 59.971 L 77.583 60.432 77.488 69.425 C 77.348 82.609,77.506 82.008,74.083 82.410 C 70.958 82.776,71.066 82.792,69.917 81.804 C 68.734 80.787,66.855 79.877,64.667 79.261 C 62.530 78.659,60.961 77.875,59.695 76.776 C 58.305 75.570,56.821 74.810,54.583 74.157 C 52.116 73.438,50.304 72.546,49.030 71.425 C 47.778 70.323,45.866 69.373,43.667 68.761 C 41.344 68.113,38.333 66.537,38.333 65.968 C 38.333 65.668,35.659 64.314,34.107 63.829 C 30.433 62.681,29.309 62.132,27.833 60.766 C 26.877 59.881,24.694 58.822,22.667 58.260 C 20.510 57.663,18.929 56.885,17.630 55.784 C 15.898 54.315,14.921 53.843,11.369 52.766 C 9.627 52.237,8.247 51.504,7.095 50.496 C 5.078 48.731,3.106 47.833,1.244 47.833 C 0.111 47.833,0.000 47.863,0.000 48.167 C 0.000 48.473,0.111 48.500,1.361 48.500 C 3.063 48.500,4.365 49.141,5.937 50.752 C 7.217 52.064,8.810 52.852,11.583 53.545 C 14.052 54.161,15.308 54.775,16.299 55.851 C 17.621 57.287,19.647 58.276,22.583 58.920 C 24.429 59.324,25.722 60.009,27.000 61.257 C 28.353 62.580,29.946 63.387,32.322 63.955 C 34.796 64.547,36.500 65.365,37.343 66.364 C 38.472 67.703,40.675 68.782,43.583 69.420 C 45.437 69.826,47.036 70.664,48.026 71.747 C 49.266 73.104,52.022 74.389,54.500 74.767 C 55.380 74.901,57.849 76.086,58.068 76.479 C 58.770 77.743,61.215 79.074,64.234 79.836 C 66.783 80.480,68.053 81.106,68.968 82.167 C 69.359 82.622,69.995 83.177,70.381 83.400 L 71.083 83.807 73.683 83.600 C 78.594 83.208,78.660 83.002,78.665 68.052 L 78.667 60.354 80.019 59.677 L 81.372 59.000 194.750 59.000 L 308.128 59.000 309.458 59.666 L 310.788 60.331 310.865 70.824 L 310.943 81.316 311.424 82.010 C 312.388 83.402,312.737 83.551,315.737 83.855 L 318.417 84.126 319.211 83.702 C 319.649 83.468,320.440 82.811,320.970 82.242 C 322.077 81.054,322.864 80.602,324.455 80.240 C 328.412 79.341,330.915 78.124,331.764 76.688 C 332.170 76.000,333.717 75.231,335.483 74.837 C 338.896 74.077,340.493 73.318,341.973 71.753 C 343.106 70.554,344.052 70.024,345.667 69.683 C 348.986 68.983,351.282 67.915,352.542 66.483 C 353.570 65.316,354.560 64.754,356.184 64.416 C 359.686 63.688,362.493 62.329,363.290 60.977 C 363.748 60.198,365.038 59.584,367.583 58.933 C 370.658 58.147,372.345 57.322,373.530 56.024 C 374.683 54.760,375.581 54.260,377.417 53.856 C 380.874 53.097,383.010 52.059,384.354 50.486 C 385.100 49.613,385.610 49.293,388.032 48.174 C 389.060 47.699,390.049 46.721,390.600 45.634 L 391.045 44.756 390.582 43.871 C 389.898 42.565,388.927 41.800,387.035 41.079 C 384.902 40.266,383.789 39.637,383.066 38.836 C 381.875 37.518,380.085 36.606,377.377 35.935 C 375.409 35.449,373.278 34.471,372.812 33.841 C 371.750 32.404,369.240 31.141,366.202 30.516 C 364.860 30.239,362.720 29.122,362.063 28.355 C 360.964 27.071,358.864 25.996,356.339 25.427 C 354.625 25.040,352.656 23.993,352.080 23.161 C 351.083 21.723,347.138 19.833,345.132 19.833 C 344.688 19.833,342.110 18.508,341.932 18.188 C 341.232 16.928,338.785 15.593,335.789 14.836 C 333.161 14.173,332.118 13.657,331.033 12.486 C 329.709 11.058,327.831 10.133,324.949 9.490 C 323.342 9.131,321.222 8.156,320.842 7.602 C 319.647 5.858,318.829 5.570,315.775 5.815 C 310.908 6.205,311.012 5.904,310.852 20.081 L 310.750 29.079 309.530 29.706 L 308.310 30.333 194.750 30.333 L 81.190 30.333 79.970 29.706 L 78.750 29.079 78.647 20.165 C 78.513 8.568,78.449 7.988,77.187 6.765 C 76.428 6.029,76.031 5.938,72.760 5.745 L 70.917 5.636 70.128 6.165 " stroke="none" fill="#aeaeae" fill-rule="evenodd"></path><path id="path8" d="M315.833 4.705 C 312.988 4.846,312.577 4.963,311.495 5.941 C 309.958 7.329,309.842 8.373,309.837 20.849 L 309.833 28.947 309.019 29.390 L 308.205 29.833 194.764 29.833 L 81.322 29.833 80.494 29.414 L 79.667 28.994 79.665 21.206 C 79.662 8.542,79.517 7.261,77.921 5.859 C 76.859 4.927,76.566 4.850,73.637 4.730 C 70.042 4.583,68.863 5.078,67.557 7.286 C 67.017 8.199,66.499 8.442,64.083 8.915 C 59.832 9.747,57.924 10.751,57.031 12.623 C 56.746 13.220,55.372 14.000,54.605 14.000 C 51.592 14.000,47.227 16.078,46.487 17.864 C 46.224 18.500,45.099 19.064,43.583 19.321 C 39.361 20.038,37.278 21.037,36.068 22.929 C 35.414 23.952,34.840 24.260,32.977 24.587 C 28.768 25.327,26.546 26.396,25.556 28.157 C 25.012 29.125,24.207 29.575,22.545 29.838 C 18.399 30.496,15.515 31.957,14.835 33.745 C 14.618 34.318,13.348 34.898,11.750 35.154 C 7.843 35.782,5.423 36.975,4.490 38.734 C 3.904 39.840,3.207 40.167,1.436 40.167 C 0.111 40.167,0.000 40.192,0.000 40.500 C 0.000 40.807,0.111 40.833,1.393 40.833 C 3.184 40.833,4.417 40.252,5.892 38.713 C 7.180 37.369,8.869 36.523,11.613 35.850 C 14.179 35.220,15.159 34.725,16.444 33.412 C 17.861 31.963,19.976 30.994,23.127 30.349 C 24.473 30.073,25.816 29.307,27.004 28.137 C 28.366 26.796,29.880 26.045,32.664 25.333 C 35.284 24.662,36.146 24.231,37.500 22.915 C 39.039 21.420,40.940 20.516,43.791 19.923 C 45.400 19.588,47.111 18.710,47.781 17.875 C 48.858 16.533,51.612 15.181,54.338 14.657 C 55.908 14.356,57.565 13.472,58.522 12.424 C 59.753 11.078,61.715 10.123,64.551 9.490 C 66.434 9.069,68.131 8.220,68.816 7.355 C 69.104 6.991,69.695 6.456,70.128 6.165 L 70.917 5.636 72.760 5.745 C 76.031 5.938,76.428 6.029,77.187 6.765 C 78.449 7.988,78.513 8.568,78.647 20.165 L 78.750 29.079 79.970 29.706 L 81.190 30.333 194.750 30.333 L 308.310 30.333 309.530 29.706 L 310.750 29.079 310.852 20.081 C 311.012 5.904,310.908 6.205,315.775 5.815 C 318.829 5.570,319.647 5.858,320.842 7.602 C 321.222 8.156,323.342 9.131,324.949 9.490 C 327.831 10.133,329.709 11.058,331.033 12.486 C 332.118 13.657,333.161 14.173,335.789 14.836 C 338.785 15.593,341.232 16.928,341.932 18.188 C 342.110 18.508,344.688 19.833,345.132 19.833 C 347.138 19.833,351.083 21.723,352.080 23.161 C 352.656 23.993,354.625 25.040,356.339 25.427 C 358.864 25.996,360.964 27.071,362.063 28.355 C 362.720 29.122,364.860 30.239,366.202 30.516 C 369.240 31.141,371.750 32.404,372.812 33.841 C 373.278 34.471,375.409 35.449,377.377 35.935 C 380.085 36.606,381.875 37.518,383.066 38.836 C 383.789 39.637,384.902 40.266,387.035 41.079 C 388.927 41.800,389.898 42.565,390.582 43.871 L 391.045 44.756 390.600 45.634 C 390.049 46.721,389.060 47.699,388.032 48.174 C 385.610 49.293,385.100 49.613,384.354 50.486 C 383.010 52.059,380.874 53.097,377.417 53.856 C 375.581 54.260,374.683 54.760,373.530 56.024 C 372.345 57.322,370.658 58.147,367.583 58.933 C 365.038 59.584,363.748 60.198,363.290 60.977 C 362.493 62.329,359.686 63.688,356.184 64.416 C 354.560 64.754,353.570 65.316,352.542 66.483 C 351.282 67.915,348.986 68.983,345.667 69.683 C 344.052 70.024,343.106 70.554,341.973 71.753 C 340.493 73.318,338.896 74.077,335.483 74.837 C 333.717 75.231,332.170 76.000,331.764 76.688 C 330.915 78.124,328.412 79.341,324.455 80.240 C 322.864 80.602,322.077 81.054,320.970 82.242 C 320.440 82.811,319.649 83.468,319.211 83.702 L 318.417 84.126 315.737 83.855 C 312.737 83.551,312.388 83.402,311.424 82.010 L 310.943 81.316 310.865 70.824 L 310.788 60.331 309.458 59.666 L 308.128 59.000 194.750 59.000 L 81.372 59.000 80.019 59.677 L 78.667 60.354 78.665 68.052 C 78.660 82.994,78.592 83.208,73.697 83.599 L 71.083 83.807 70.381 83.400 C 69.995 83.177,69.359 82.622,68.968 82.167 C 68.053 81.106,66.783 80.480,64.234 79.836 C 61.215 79.074,58.770 77.743,58.068 76.479 C 57.849 76.086,55.380 74.901,54.500 74.767 C 52.022 74.389,49.266 73.104,48.026 71.747 C 47.036 70.664,45.437 69.826,43.583 69.420 C 40.675 68.782,38.472 67.703,37.343 66.364 C 36.500 65.365,34.796 64.547,32.322 63.955 C 29.946 63.387,28.353 62.580,27.000 61.257 C 25.722 60.009,24.429 59.324,22.583 58.920 C 19.647 58.276,17.621 57.287,16.299 55.851 C 15.308 54.775,14.052 54.161,11.583 53.545 C 8.810 52.852,7.217 52.064,5.937 50.752 C 4.365 49.141,3.063 48.500,1.361 48.500 C 0.111 48.500,0.000 48.527,0.000 48.833 C 0.000 49.139,0.111 49.167,1.340 49.167 C 2.919 49.167,3.840 49.541,4.261 50.354 C 5.266 52.299,7.304 53.406,11.254 54.153 C 13.713 54.618,14.489 54.988,14.991 55.935 C 15.940 57.723,18.242 58.839,22.477 59.563 C 24.304 59.875,24.985 60.244,25.565 61.233 C 26.559 62.930,28.514 63.961,31.944 64.596 C 35.058 65.173,35.483 65.388,36.332 66.821 C 37.241 68.354,39.677 69.448,43.614 70.091 C 45.388 70.381,45.894 70.661,46.581 71.735 C 47.773 73.598,49.482 74.464,53.380 75.180 C 55.563 75.581,56.584 76.023,56.945 76.722 C 57.952 78.670,60.851 80.123,64.667 80.595 C 66.271 80.793,67.085 81.245,67.656 82.257 C 68.209 83.237,69.308 84.169,70.406 84.588 C 71.611 85.048,76.263 84.701,77.200 84.081 C 79.543 82.531,79.663 81.761,79.665 68.243 L 79.667 60.403 80.587 59.951 L 81.507 59.500 194.691 59.500 L 307.875 59.500 308.836 59.931 L 309.798 60.363 309.863 70.973 C 309.936 82.702,309.863 81.930,311.026 83.254 C 312.100 84.478,312.676 84.673,315.796 84.874 L 318.601 85.055 319.585 84.604 C 320.983 83.964,321.605 83.438,322.192 82.398 C 322.809 81.305,323.240 81.058,325.097 80.734 C 329.545 79.957,332.017 78.707,332.943 76.766 C 333.283 76.053,333.876 75.792,336.170 75.350 C 340.282 74.557,342.238 73.586,343.289 71.813 C 343.944 70.709,344.353 70.500,346.667 70.089 C 350.878 69.340,353.199 68.101,353.996 66.175 C 354.253 65.557,354.936 65.284,357.552 64.752 C 361.831 63.883,363.484 62.992,364.496 61.009 C 364.880 60.255,365.510 59.973,367.661 59.590 C 371.912 58.833,374.023 57.727,375.061 55.711 C 375.426 55.004,375.940 54.759,377.750 54.427 C 382.303 53.595,384.348 52.601,385.461 50.681 C 386.019 49.718,386.207 49.573,387.326 49.241 C 392.810 47.612,393.023 42.013,387.654 40.608 C 386.049 40.188,384.925 39.555,384.527 38.846 C 383.526 37.064,380.746 35.699,377.171 35.233 C 375.816 35.056,374.561 34.423,374.092 33.680 C 372.904 31.798,370.798 30.691,367.261 30.089 C 365.100 29.721,364.039 29.185,363.305 28.089 C 362.207 26.451,360.212 25.449,356.839 24.842 C 354.672 24.451,353.766 24.015,353.324 23.149 C 352.316 21.173,350.555 20.210,346.628 19.488 C 344.437 19.085,343.417 18.645,343.055 17.945 C 342.048 15.997,339.149 14.543,335.333 14.072 C 333.735 13.874,332.914 13.420,332.351 12.422 C 331.344 10.638,329.593 9.756,325.394 8.917 C 322.849 8.409,322.283 8.146,321.900 7.297 C 320.984 5.265,319.276 4.535,315.833 4.705 " stroke="none" fill="#bfbfbf" fill-rule="evenodd"></path><path id="path9" d="M69.383 3.971 C 67.622 4.592,66.754 5.511,66.327 7.204 C 66.107 8.080,66.175 8.049,64.000 8.252 C 58.937 8.724,56.572 9.882,55.849 12.244 L 55.541 13.250 53.895 13.456 C 47.661 14.238,45.642 15.266,45.225 17.871 C 45.115 18.555,45.147 18.542,43.083 18.756 C 37.564 19.329,35.293 20.473,34.760 22.947 C 34.596 23.706,34.415 23.797,32.659 24.004 C 26.893 24.686,24.868 25.675,24.251 28.112 C 24.011 29.061,24.056 29.042,21.250 29.407 C 16.124 30.073,14.607 30.830,13.807 33.125 C 13.370 34.379,13.529 34.289,11.245 34.582 C 5.440 35.325,4.028 36.054,3.165 38.750 C 2.886 39.623,2.808 39.661,1.292 39.664 C 0.256 39.666,0.000 39.716,0.000 39.917 C 0.000 40.120,0.271 40.167,1.436 40.167 C 3.207 40.167,3.904 39.840,4.490 38.734 C 5.423 36.975,7.843 35.782,11.750 35.154 C 13.348 34.898,14.618 34.318,14.835 33.745 C 15.515 31.957,18.399 30.496,22.545 29.838 C 24.207 29.575,25.012 29.125,25.556 28.157 C 26.546 26.396,28.768 25.327,32.977 24.587 C 34.840 24.260,35.414 23.952,36.068 22.929 C 37.278 21.037,39.361 20.038,43.583 19.321 C 45.099 19.064,46.224 18.500,46.487 17.864 C 47.227 16.078,51.592 14.000,54.605 14.000 C 55.372 14.000,56.746 13.220,57.031 12.623 C 57.924 10.751,59.832 9.747,64.083 8.915 C 66.499 8.442,67.017 8.199,67.557 7.286 C 68.863 5.078,70.042 4.583,73.637 4.730 C 76.566 4.850,76.859 4.927,77.921 5.859 C 79.517 7.261,79.662 8.542,79.665 21.206 L 79.667 28.994 80.494 29.414 L 81.322 29.833 194.764 29.833 L 308.205 29.833 309.019 29.390 L 309.833 28.947 309.837 20.849 C 309.842 8.373,309.958 7.329,311.495 5.941 C 312.578 4.963,312.983 4.849,315.880 4.710 C 319.321 4.544,320.982 5.260,321.904 7.306 C 322.283 8.145,322.856 8.410,325.394 8.917 C 329.593 9.756,331.344 10.638,332.351 12.422 C 332.914 13.420,333.735 13.874,335.333 14.072 C 339.149 14.543,342.048 15.997,343.055 17.945 C 343.417 18.645,344.437 19.085,346.628 19.488 C 350.555 20.210,352.316 21.173,353.324 23.149 C 353.766 24.015,354.672 24.451,356.839 24.842 C 360.212 25.449,362.207 26.451,363.305 28.089 C 364.039 29.185,365.100 29.721,367.261 30.089 C 370.798 30.691,372.904 31.798,374.092 33.680 C 374.561 34.423,375.816 35.056,377.171 35.233 C 380.746 35.699,383.526 37.064,384.527 38.846 C 384.925 39.555,386.049 40.188,387.654 40.608 C 393.023 42.013,392.810 47.612,387.326 49.241 C 386.207 49.573,386.019 49.718,385.461 50.681 C 384.348 52.601,382.303 53.595,377.750 54.427 C 375.940 54.759,375.426 55.004,375.061 55.711 C 374.023 57.727,371.912 58.833,367.661 59.590 C 365.510 59.973,364.880 60.255,364.496 61.009 C 363.484 62.992,361.831 63.883,357.552 64.752 C 354.936 65.284,354.253 65.557,353.996 66.175 C 353.199 68.101,350.878 69.340,346.667 70.089 C 344.353 70.500,343.944 70.709,343.289 71.813 C 342.238 73.586,340.282 74.557,336.170 75.350 C 333.876 75.792,333.283 76.053,332.943 76.766 C 332.017 78.707,329.545 79.957,325.097 80.734 C 323.240 81.058,322.809 81.305,322.192 82.398 C 321.605 83.438,320.983 83.964,319.585 84.604 L 318.601 85.055 315.821 84.876 C 312.359 84.653,311.483 84.247,310.369 82.352 L 309.917 81.583 309.857 70.973 L 309.798 60.363 308.836 59.931 L 307.875 59.500 194.691 59.500 L 81.507 59.500 80.587 59.951 L 79.667 60.403 79.665 68.243 C 79.663 81.761,79.543 82.531,77.200 84.081 C 76.263 84.701,71.611 85.048,70.406 84.588 C 69.308 84.169,68.209 83.237,67.656 82.257 C 67.085 81.245,66.271 80.793,64.667 80.595 C 60.851 80.123,57.952 78.670,56.945 76.722 C 56.584 76.023,55.563 75.581,53.380 75.180 C 49.482 74.464,47.773 73.598,46.581 71.735 C 45.894 70.661,45.388 70.381,43.614 70.091 C 39.677 69.448,37.241 68.354,36.332 66.821 C 35.483 65.388,35.058 65.173,31.944 64.596 C 28.514 63.961,26.559 62.930,25.565 61.233 C 24.985 60.244,24.304 59.875,22.477 59.563 C 18.242 58.839,15.940 57.723,14.991 55.935 C 14.489 54.988,13.713 54.618,11.254 54.153 C 7.304 53.406,5.266 52.299,4.261 50.354 C 3.703 49.275,-0.000 48.527,0.000 49.494 C 0.000 49.789,0.137 49.825,1.451 49.869 L 2.903 49.917 3.249 50.925 C 4.080 53.339,5.751 54.155,11.250 54.830 C 13.532 55.110,13.464 55.081,13.678 55.876 C 14.262 58.045,15.234 58.825,18.167 59.477 C 19.457 59.764,23.225 60.333,23.835 60.333 C 23.919 60.333,24.073 60.652,24.178 61.041 C 24.910 63.759,27.192 64.916,32.833 65.429 C 34.435 65.574,34.472 65.598,34.865 66.760 C 35.668 69.140,37.218 69.894,42.750 70.593 C 45.220 70.906,45.018 70.797,45.384 72.010 C 46.069 74.280,48.397 75.388,53.583 75.913 C 55.664 76.123,55.582 76.084,55.814 76.988 C 56.475 79.568,58.259 80.444,64.410 81.210 L 66.070 81.417 66.265 82.092 C 67.120 85.057,68.491 85.769,73.234 85.713 C 80.704 85.624,80.626 85.808,80.654 68.318 L 80.667 60.387 81.091 60.193 C 81.834 59.855,307.979 59.921,308.463 60.259 L 308.833 60.519 308.833 70.751 C 308.833 77.686,308.894 81.268,309.021 81.867 C 309.689 85.020,311.182 85.828,316.345 85.831 C 321.198 85.835,322.789 85.054,323.520 82.311 L 323.725 81.539 325.238 81.336 C 331.459 80.498,333.114 79.746,333.904 77.401 L 334.290 76.257 335.770 76.068 C 341.862 75.288,343.700 74.446,344.459 72.083 L 344.780 71.083 345.598 70.942 C 353.779 69.526,354.385 69.238,355.149 66.398 L 355.333 65.715 356.375 65.617 C 362.205 65.066,364.887 63.836,365.600 61.386 C 365.741 60.899,365.890 60.500,365.930 60.500 C 366.248 60.500,369.639 59.931,371.286 59.601 C 374.495 58.959,375.435 58.283,376.093 56.146 L 376.381 55.208 377.482 55.097 C 383.234 54.521,385.902 53.318,386.600 50.988 C 386.877 50.064,386.932 49.997,387.489 49.905 C 390.182 49.457,392.000 48.091,392.000 46.515 C 392.000 46.375,392.350 45.906,392.778 45.472 L 393.555 44.683 392.845 43.973 C 392.439 43.567,392.000 42.899,391.817 42.412 C 391.268 40.943,390.375 40.373,388.028 39.991 C 386.587 39.757,386.000 39.524,386.000 39.188 C 385.999 36.742,383.202 35.205,377.803 34.680 C 375.787 34.485,375.634 34.400,375.283 33.284 C 374.545 30.943,372.195 29.812,367.250 29.417 C 365.305 29.262,365.062 29.133,364.761 28.097 C 364.062 25.692,362.034 24.675,356.952 24.180 C 354.811 23.971,354.574 23.866,354.422 23.055 C 353.935 20.457,351.700 19.260,346.394 18.755 C 344.383 18.564,344.417 18.581,344.185 17.674 C 343.525 15.099,341.737 14.222,335.590 13.457 L 333.930 13.250 333.735 12.574 C 332.952 9.862,330.874 8.772,325.498 8.255 C 323.297 8.043,323.454 8.133,323.010 6.829 C 322.139 4.271,320.967 3.750,316.083 3.750 C 312.036 3.750,311.372 3.921,310.188 5.265 C 308.936 6.688,308.959 6.454,308.873 18.357 L 308.796 28.963 308.390 29.148 C 307.835 29.402,81.462 29.414,80.989 29.161 C 80.678 28.994,80.666 28.722,80.654 21.119 C 80.629 6.020,80.525 5.411,77.750 4.134 C 76.575 3.593,70.776 3.480,69.383 3.971 " stroke="none" fill="#dfdfdf" fill-rule="evenodd"></path><path id="path10" d="M68.367 3.179 C 66.979 3.421,66.183 3.944,65.928 4.783 C 65.866 4.985,65.662 5.199,65.473 5.259 C 64.994 5.411,63.896 6.433,63.334 7.250 L 62.862 7.935 60.107 8.206 C 56.894 8.521,56.026 8.810,55.553 9.722 C 55.386 10.044,54.876 10.556,54.419 10.862 C 53.962 11.167,53.325 11.803,53.003 12.275 L 52.417 13.134 50.750 13.328 C 45.917 13.889,45.631 13.976,44.973 15.091 C 44.783 15.414,44.412 15.790,44.151 15.925 C 43.534 16.244,42.407 17.419,42.171 17.990 C 41.988 18.432,41.961 18.439,39.129 18.715 C 35.851 19.035,34.975 19.337,34.433 20.333 C 34.258 20.654,33.773 21.142,33.354 21.417 C 32.686 21.856,31.644 23.001,31.475 23.482 C 31.443 23.574,30.704 23.733,29.833 23.833 C 28.962 23.934,27.620 24.093,26.850 24.185 C 25.179 24.385,24.313 24.785,23.957 25.519 C 23.813 25.816,23.300 26.331,22.816 26.664 C 22.332 26.997,21.681 27.640,21.370 28.093 C 20.735 29.016,21.066 28.921,17.103 29.327 C 14.641 29.580,13.512 30.098,13.264 31.088 C 13.210 31.302,13.005 31.529,12.809 31.591 C 12.335 31.741,11.088 32.902,10.665 33.585 C 10.276 34.215,10.241 34.225,6.879 34.575 C 4.139 34.861,3.318 35.172,2.880 36.090 L 2.605 36.667 1.302 36.667 L 0.000 36.667 0.000 38.167 L 0.000 39.667 1.292 39.664 C 2.808 39.661,2.886 39.623,3.165 38.750 C 4.028 36.054,5.440 35.325,11.245 34.582 C 13.529 34.289,13.370 34.379,13.807 33.125 C 14.607 30.830,16.124 30.073,21.250 29.407 C 24.056 29.042,24.011 29.061,24.251 28.112 C 24.868 25.675,26.893 24.686,32.659 24.004 C 34.415 23.797,34.596 23.706,34.760 22.947 C 35.293 20.473,37.564 19.329,43.083 18.756 C 45.147 18.542,45.115 18.555,45.225 17.871 C 45.642 15.266,47.661 14.238,53.895 13.456 L 55.541 13.250 55.849 12.244 C 56.572 9.882,58.937 8.724,64.000 8.252 C 66.175 8.049,66.107 8.080,66.327 7.204 C 67.040 4.372,68.646 3.609,73.711 3.697 C 80.649 3.817,80.626 3.759,80.654 21.119 C 80.666 28.722,80.678 28.994,80.989 29.161 C 81.462 29.414,307.835 29.402,308.390 29.148 L 308.796 28.963 308.873 18.357 C 308.959 6.454,308.936 6.688,310.188 5.265 C 311.372 3.921,312.036 3.750,316.083 3.750 C 320.967 3.750,322.139 4.271,323.010 6.829 C 323.454 8.133,323.297 8.043,325.498 8.255 C 330.874 8.772,332.952 9.862,333.735 12.574 L 333.930 13.250 335.590 13.457 C 341.737 14.222,343.525 15.099,344.185 17.674 C 344.417 18.581,344.383 18.564,346.394 18.755 C 351.700 19.260,353.935 20.457,354.422 23.055 C 354.574 23.866,354.811 23.971,356.952 24.180 C 362.034 24.675,364.062 25.692,364.761 28.097 C 365.062 29.133,365.305 29.262,367.250 29.417 C 372.195 29.812,374.545 30.943,375.283 33.284 C 375.634 34.400,375.787 34.485,377.803 34.680 C 383.202 35.205,385.999 36.742,386.000 39.188 C 386.000 39.524,386.587 39.757,388.028 39.991 C 390.375 40.373,391.268 40.943,391.817 42.412 C 392.000 42.899,392.439 43.567,392.845 43.973 L 393.555 44.683 392.778 45.472 C 392.350 45.906,392.000 46.375,392.000 46.515 C 392.000 48.091,390.182 49.457,387.489 49.905 C 386.932 49.997,386.877 50.064,386.600 50.988 C 385.902 53.318,383.234 54.521,377.482 55.097 L 376.381 55.208 376.093 56.146 C 375.435 58.283,374.495 58.959,371.286 59.601 C 369.639 59.931,366.248 60.500,365.930 60.500 C 365.890 60.500,365.741 60.899,365.600 61.386 C 364.887 63.836,362.205 65.066,356.375 65.617 L 355.333 65.715 355.149 66.398 C 354.385 69.238,353.779 69.526,345.598 70.942 L 344.780 71.083 344.459 72.083 C 343.700 74.446,341.862 75.288,335.770 76.068 L 334.290 76.257 333.904 77.401 C 333.114 79.746,331.459 80.498,325.238 81.336 L 323.725 81.539 323.520 82.311 C 322.789 85.054,321.198 85.835,316.345 85.831 C 311.182 85.828,309.689 85.020,309.021 81.867 C 308.894 81.268,308.833 77.686,308.833 70.751 L 308.833 60.519 308.463 60.259 C 307.979 59.921,81.834 59.855,81.091 60.193 L 80.667 60.387 80.654 68.318 C 80.626 85.808,80.704 85.624,73.234 85.713 C 68.491 85.769,67.120 85.057,66.265 82.092 L 66.070 81.417 64.410 81.210 C 58.259 80.444,56.475 79.568,55.814 76.988 C 55.582 76.084,55.664 76.123,53.583 75.913 C 48.397 75.388,46.069 74.280,45.384 72.010 C 45.018 70.797,45.220 70.906,42.750 70.593 C 37.218 69.894,35.668 69.140,34.865 66.760 C 34.472 65.598,34.435 65.574,32.833 65.429 C 27.192 64.916,24.910 63.759,24.178 61.041 C 24.073 60.652,23.919 60.333,23.835 60.333 C 23.225 60.333,19.457 59.764,18.167 59.477 C 15.234 58.825,14.262 58.045,13.678 55.876 C 13.464 55.081,13.532 55.110,11.250 54.830 C 5.751 54.155,4.080 53.339,3.249 50.925 L 2.903 49.917 1.451 49.869 L 0.000 49.820 0.000 51.327 L 0.000 52.833 1.292 52.834 C 2.549 52.835,2.591 52.848,2.865 53.331 C 3.443 54.347,4.190 54.575,8.357 55.013 L 10.296 55.217 10.865 56.067 C 11.177 56.534,11.801 57.165,12.251 57.469 C 12.702 57.773,13.236 58.300,13.439 58.641 C 13.981 59.549,14.701 59.813,17.396 60.089 C 20.844 60.443,20.929 60.462,21.141 60.927 C 21.421 61.542,22.615 62.771,23.144 62.991 C 23.406 63.099,23.735 63.440,23.888 63.760 C 24.406 64.846,25.285 65.132,29.303 65.520 L 31.356 65.718 31.907 66.580 C 32.224 67.075,32.803 67.668,33.271 67.976 C 33.718 68.271,34.272 68.787,34.503 69.123 C 35.099 69.992,35.717 70.288,37.333 70.481 C 38.112 70.574,39.462 70.732,40.333 70.833 C 41.204 70.934,41.940 71.083,41.969 71.165 C 42.137 71.643,43.316 72.936,43.953 73.339 C 44.363 73.599,44.822 74.061,44.974 74.364 C 45.447 75.311,46.344 75.617,49.614 75.947 C 52.319 76.219,52.487 76.257,52.655 76.624 C 52.932 77.231,54.293 78.609,54.840 78.836 C 55.111 78.948,55.333 79.138,55.333 79.257 C 55.333 80.248,56.840 80.891,59.833 81.176 C 62.890 81.467,62.894 81.468,63.528 82.406 C 63.833 82.858,64.458 83.484,64.917 83.797 C 65.375 84.109,65.896 84.621,66.075 84.934 C 66.798 86.199,69.030 86.601,74.494 86.452 C 81.658 86.258,81.307 87.144,81.325 69.208 L 81.333 60.333 194.740 60.333 L 308.146 60.333 308.210 71.792 C 308.279 84.256,308.301 84.543,309.225 85.467 C 310.727 86.969,322.637 86.864,323.579 85.340 C 323.635 85.250,324.034 85.020,324.465 84.830 C 325.490 84.378,326.562 83.314,326.987 82.328 C 327.369 81.438,327.799 81.296,330.750 81.091 C 332.384 80.977,333.305 80.738,333.772 80.307 C 333.968 80.126,334.572 79.768,335.115 79.511 C 336.240 78.979,337.184 77.985,337.602 76.892 C 337.770 76.452,337.984 76.166,338.148 76.165 C 340.536 76.149,344.234 75.399,344.565 74.863 C 344.624 74.767,345.065 74.508,345.545 74.287 C 346.795 73.713,347.384 73.150,347.922 72.017 C 348.472 70.859,348.433 70.876,351.120 70.657 C 353.452 70.467,354.368 70.244,354.919 69.733 C 355.154 69.515,355.721 69.176,356.178 68.979 C 357.178 68.549,358.342 67.317,358.661 66.352 C 358.785 65.975,358.968 65.667,359.068 65.666 C 361.308 65.662,364.896 64.963,365.505 64.412 C 365.651 64.280,366.234 63.940,366.800 63.657 C 367.925 63.095,368.671 62.313,369.122 61.222 C 369.462 60.401,369.501 60.386,371.965 60.160 C 374.462 59.930,375.426 59.707,375.997 59.227 C 376.269 58.998,376.936 58.589,377.480 58.317 C 378.530 57.792,379.153 57.116,379.677 55.933 C 380.041 55.109,379.966 55.133,383.138 54.834 C 385.146 54.645,386.015 54.416,386.525 53.941 C 386.727 53.753,387.310 53.399,387.821 53.154 C 388.927 52.624,389.490 52.055,390.080 50.875 C 390.330 50.375,390.711 49.899,390.967 49.765 C 391.214 49.637,391.598 49.337,391.821 49.099 C 392.043 48.861,392.305 48.667,392.404 48.667 C 393.559 48.666,395.280 47.162,395.854 45.653 C 396.508 43.931,395.098 41.590,393.000 40.913 C 392.496 40.751,391.881 40.450,391.635 40.244 C 391.134 39.828,389.591 39.500,388.132 39.500 C 386.997 39.500,386.918 39.410,386.676 37.836 C 386.242 35.010,385.978 34.900,377.917 34.211 L 376.417 34.083 376.237 33.000 C 375.873 30.808,375.356 30.032,374.018 29.671 C 373.187 29.448,368.722 29.001,367.312 29.000 C 365.973 29.000,365.874 28.905,365.639 27.389 C 365.198 24.544,364.381 24.187,357.280 23.739 C 355.223 23.609,355.301 23.674,355.101 21.917 C 354.832 19.553,354.139 19.100,350.182 18.701 C 347.682 18.448,347.512 18.409,347.345 18.043 C 347.069 17.436,345.707 16.057,345.160 15.831 C 344.889 15.718,344.667 15.529,344.667 15.409 C 344.667 14.418,343.160 13.776,340.167 13.491 C 337.110 13.200,337.106 13.199,336.472 12.261 C 336.167 11.809,335.542 11.183,335.083 10.870 C 334.625 10.557,334.104 10.045,333.925 9.733 C 333.402 8.818,332.566 8.526,329.647 8.240 C 326.371 7.917,326.413 7.928,326.169 7.340 C 325.945 6.797,324.726 5.596,324.121 5.320 C 323.913 5.225,323.594 4.871,323.413 4.532 C 322.707 3.213,321.244 2.942,315.355 3.037 C 307.773 3.159,308.314 2.048,308.214 17.708 L 308.142 29.000 194.759 29.000 L 81.377 29.000 81.285 17.792 C 81.174 4.099,81.182 4.156,79.153 3.425 C 78.131 3.057,70.118 2.874,68.367 3.179 " stroke="none" fill="#efefef" fill-rule="evenodd"></path><path id="path11" d="M0.000 18.333 L 0.000 36.667 1.302 36.667 L 2.605 36.667 2.880 36.090 C 3.318 35.172,4.139 34.861,6.879 34.575 C 10.241 34.225,10.276 34.215,10.665 33.585 C 11.088 32.902,12.335 31.741,12.809 31.591 C 13.005 31.529,13.210 31.302,13.264 31.088 C 13.512 30.098,14.641 29.580,17.103 29.327 C 21.066 28.921,20.735 29.016,21.370 28.093 C 21.681 27.640,22.332 26.997,22.816 26.664 C 23.300 26.331,23.813 25.816,23.957 25.519 C 24.323 24.764,25.199 24.377,27.023 24.164 C 30.949 23.708,31.420 23.635,31.475 23.480 C 31.646 22.998,32.688 21.854,33.354 21.417 C 33.773 21.142,34.258 20.654,34.433 20.333 C 34.975 19.337,35.851 19.035,39.129 18.715 C 41.961 18.439,41.988 18.432,42.171 17.990 C 42.407 17.419,43.534 16.244,44.151 15.925 C 44.412 15.790,44.783 15.414,44.973 15.091 C 45.631 13.976,45.917 13.889,50.750 13.328 L 52.417 13.134 53.003 12.275 C 53.325 11.803,53.962 11.167,54.419 10.862 C 54.876 10.556,55.386 10.044,55.553 9.722 C 56.026 8.810,56.894 8.521,60.107 8.206 L 62.862 7.935 63.334 7.250 C 63.899 6.427,64.995 5.410,65.481 5.256 C 65.674 5.195,65.878 4.962,65.934 4.738 C 66.286 3.337,67.420 3.083,73.333 3.084 C 81.810 3.085,81.156 1.875,81.285 17.792 L 81.377 29.000 194.759 29.000 L 308.142 29.000 308.214 17.708 C 308.314 2.048,307.773 3.159,315.355 3.037 C 321.244 2.942,322.707 3.213,323.413 4.532 C 323.594 4.871,323.913 5.225,324.121 5.320 C 324.726 5.596,325.945 6.797,326.169 7.340 C 326.413 7.928,326.371 7.917,329.647 8.240 C 332.566 8.526,333.402 8.818,333.925 9.733 C 334.104 10.045,334.625 10.557,335.083 10.870 C 335.542 11.183,336.167 11.809,336.472 12.261 C 337.106 13.199,337.110 13.200,340.167 13.491 C 343.160 13.776,344.667 14.418,344.667 15.409 C 344.667 15.529,344.889 15.718,345.160 15.831 C 345.707 16.057,347.069 17.436,347.345 18.043 C 347.512 18.409,347.682 18.448,350.182 18.701 C 354.139 19.100,354.832 19.553,355.101 21.917 C 355.301 23.674,355.223 23.609,357.280 23.739 C 364.381 24.187,365.198 24.544,365.639 27.389 C 365.874 28.905,365.973 29.000,367.312 29.000 C 368.722 29.001,373.187 29.448,374.018 29.671 C 375.356 30.032,375.873 30.808,376.237 33.000 L 376.417 34.083 377.917 34.211 C 385.978 34.900,386.242 35.010,386.676 37.836 C 386.918 39.410,386.997 39.500,388.132 39.500 C 389.591 39.500,391.134 39.828,391.635 40.244 C 391.881 40.450,392.496 40.751,393.000 40.913 C 395.098 41.590,396.508 43.931,395.854 45.653 C 395.280 47.162,393.559 48.666,392.404 48.667 C 392.305 48.667,392.043 48.861,391.821 49.099 C 391.598 49.337,391.214 49.637,390.967 49.765 C 390.711 49.899,390.330 50.375,390.080 50.875 C 389.490 52.055,388.927 52.624,387.821 53.154 C 387.310 53.399,386.727 53.753,386.525 53.941 C 386.015 54.416,385.146 54.645,383.138 54.834 C 379.966 55.133,380.041 55.109,379.677 55.933 C 379.153 57.116,378.530 57.792,377.480 58.317 C 376.936 58.589,376.269 58.998,375.997 59.227 C 375.426 59.707,374.462 59.930,371.965 60.160 C 369.501 60.386,369.462 60.401,369.122 61.222 C 368.671 62.313,367.925 63.095,366.800 63.657 C 366.234 63.940,365.651 64.280,365.505 64.412 C 364.896 64.963,361.308 65.662,359.068 65.666 C 358.968 65.667,358.785 65.975,358.661 66.352 C 358.342 67.317,357.178 68.549,356.178 68.979 C 355.721 69.176,355.154 69.515,354.919 69.733 C 354.368 70.244,353.452 70.467,351.120 70.657 C 348.433 70.876,348.472 70.859,347.922 72.017 C 347.384 73.150,346.795 73.713,345.545 74.287 C 345.065 74.508,344.624 74.767,344.565 74.863 C 344.234 75.399,340.536 76.149,338.148 76.165 C 337.984 76.166,337.770 76.452,337.602 76.892 C 337.184 77.985,336.240 78.979,335.115 79.511 C 334.572 79.768,333.968 80.126,333.772 80.307 C 333.305 80.738,332.384 80.977,330.750 81.091 C 327.799 81.296,327.369 81.438,326.987 82.328 C 326.562 83.314,325.490 84.378,324.465 84.830 C 324.034 85.020,323.635 85.250,323.579 85.340 C 322.637 86.864,310.727 86.969,309.225 85.467 C 308.301 84.543,308.279 84.256,308.210 71.792 L 308.146 60.333 194.740 60.333 L 81.333 60.333 81.325 69.208 C 81.307 87.144,81.658 86.258,74.494 86.452 C 69.030 86.601,66.798 86.199,66.075 84.934 C 65.896 84.621,65.375 84.109,64.917 83.797 C 64.458 83.484,63.833 82.858,63.528 82.406 C 62.894 81.468,62.890 81.467,59.833 81.176 C 56.840 80.891,55.333 80.248,55.333 79.257 C 55.333 79.138,55.111 78.948,54.840 78.836 C 54.293 78.609,52.932 77.231,52.655 76.624 C 52.487 76.257,52.319 76.219,49.614 75.947 C 46.344 75.617,45.447 75.311,44.974 74.364 C 44.822 74.061,44.363 73.599,43.953 73.339 C 43.316 72.936,42.137 71.643,41.969 71.165 C 41.940 71.083,41.204 70.934,40.333 70.833 C 39.462 70.732,38.112 70.574,37.333 70.481 C 35.717 70.288,35.099 69.992,34.503 69.123 C 34.272 68.787,33.718 68.271,33.271 67.976 C 32.803 67.668,32.224 67.075,31.907 66.580 L 31.356 65.718 29.303 65.520 C 25.285 65.132,24.406 64.846,23.888 63.760 C 23.735 63.440,23.406 63.099,23.144 62.991 C 22.615 62.771,21.421 61.542,21.141 60.927 C 20.929 60.462,20.844 60.443,17.396 60.089 C 14.701 59.813,13.981 59.549,13.439 58.641 C 13.236 58.300,12.702 57.773,12.251 57.469 C 11.801 57.165,11.177 56.534,10.865 56.067 L 10.296 55.217 8.357 55.013 C 4.190 54.575,3.443 54.347,2.865 53.331 C 2.591 52.848,2.549 52.835,1.292 52.834 L 0.000 52.833 0.000 73.750 L 0.000 94.667 200.000 94.667 L 400.000 94.667 400.000 47.333 L 400.000 0.000 200.000 0.000 L 0.000 0.000 0.000 18.333 " stroke="none" fill="#ffffff" fill-rule="evenodd"></path></g></svg>