<svg id="svg" version="1.1" width="400" height="400" xmlns="http://www.w3.org/2000/svg" xmlns:xlink="http://www.w3.org/1999/xlink" style="display: block;"><g id="svgg"><path id="path0" d="M0.000 200.000 L 0.000 400.000 200.000 400.000 L 400.000 400.000 400.000 200.000 L 400.000 0.000 200.000 0.000 L 0.000 0.000 0.000 200.000 M136.711 147.823 C 137.417 148.317,137.599 148.832,137.594 150.323 C 137.585 153.195,137.369 153.348,132.919 153.651 C 127.829 153.998,126.917 154.436,125.737 157.104 L 124.800 159.223 124.791 191.511 C 124.782 226.633,124.633 229.625,122.664 234.267 C 118.568 243.923,109.221 250.676,97.825 252.211 C 86.591 253.724,75.345 252.032,69.800 247.994 C 68.920 247.353,67.570 246.478,66.800 246.049 C 63.619 244.278,59.057 238.338,57.422 233.836 C 54.042 224.533,57.201 213.912,64.554 209.857 C 65.409 209.386,66.489 208.768,66.954 208.484 C 67.549 208.121,69.164 208.004,72.400 208.088 C 77.537 208.221,77.848 208.351,81.733 211.990 C 90.520 220.220,84.592 234.724,73.392 232.398 C 64.748 230.604,65.617 239.492,74.504 243.767 C 84.856 248.746,96.282 245.534,100.443 236.477 C 102.709 231.544,102.844 228.832,102.715 191.014 C 102.575 150.091,103.510 154.002,93.800 153.718 C 87.051 153.521,86.960 153.497,86.393 151.779 C 85.866 150.183,86.095 148.762,87.029 147.828 C 87.978 146.879,135.356 146.874,136.711 147.823 M177.222 158.738 C 177.937 159.316,178.133 159.882,178.133 161.357 C 178.133 164.216,177.630 164.512,172.310 164.776 C 167.060 165.037,165.538 165.754,164.787 168.320 C 164.016 170.957,164.439 226.299,165.242 227.800 C 165.594 228.460,166.098 229.878,166.360 230.951 C 167.059 233.810,171.480 239.282,173.501 239.790 C 174.079 239.935,175.012 240.380,175.576 240.780 C 178.779 243.054,192.446 243.086,196.180 240.829 C 196.851 240.423,197.850 239.959,198.400 239.797 C 199.825 239.377,202.558 237.065,203.964 235.089 C 208.316 228.971,208.800 225.368,208.800 199.087 C 208.800 170.311,208.214 168.115,199.829 165.444 C 195.956 164.210,195.400 163.700,195.400 161.381 C 195.400 157.857,194.653 158.000,213.080 158.000 L 229.236 158.000 230.218 158.982 C 232.194 160.957,230.967 164.800,228.361 164.800 C 225.247 164.800,221.468 167.351,219.473 170.800 L 218.200 173.000 217.965 198.400 C 217.713 225.543,217.314 230.530,215.117 234.000 C 214.768 234.550,214.357 235.424,214.202 235.941 C 213.479 238.356,208.122 244.561,205.027 246.569 C 201.935 248.574,198.566 250.400,197.951 250.402 C 197.648 250.404,196.860 250.693,196.200 251.045 C 191.568 253.514,171.710 253.582,165.485 251.148 C 164.432 250.737,163.319 250.400,163.011 250.400 C 162.324 250.400,161.157 249.870,158.767 248.472 C 157.758 247.882,156.219 247.009,155.345 246.532 C 154.003 245.799,150.465 242.589,148.576 240.391 C 147.925 239.634,145.601 234.761,145.600 234.152 C 145.600 233.906,145.205 232.556,144.722 231.152 C 143.853 228.627,143.842 228.275,143.692 197.691 L 143.540 166.783 141.670 165.841 C 140.233 165.117,138.948 164.859,136.117 164.727 C 131.475 164.511,130.614 163.929,130.919 161.217 C 131.303 157.814,129.934 158.000,154.600 158.000 C 175.104 158.000,176.362 158.041,177.222 158.738 M296.199 181.962 C 299.689 183.947,299.175 188.765,295.249 190.851 L 293.099 191.995 291.099 190.906 C 288.583 189.537,287.786 188.349,287.873 186.097 C 288.038 181.852,292.293 179.739,296.199 181.962 M326.791 190.383 C 327.025 190.820,327.200 194.130,327.200 198.112 C 327.200 206.846,327.019 206.577,332.942 206.651 C 339.372 206.732,339.497 206.749,340.650 207.742 C 341.681 208.628,341.714 208.759,341.218 209.957 C 340.448 211.816,339.801 211.999,333.926 212.013 C 326.387 212.031,327.113 210.477,327.176 226.472 C 327.238 242.156,327.617 244.612,330.134 245.656 C 334.819 247.598,339.316 244.165,339.871 238.223 C 340.253 234.128,343.190 232.157,344.075 235.400 C 346.042 242.611,338.520 251.760,330.600 251.787 C 320.078 251.824,318.400 248.355,318.400 226.563 C 318.400 211.001,318.629 212.000,315.059 212.000 C 310.014 212.000,309.512 209.075,314.159 206.758 C 319.011 204.339,320.994 201.445,322.316 194.854 C 323.450 189.201,325.215 187.438,326.791 190.383 M237.810 206.936 C 238.135 207.399,238.400 208.345,238.400 209.039 C 238.400 213.580,239.644 213.930,243.434 210.458 C 247.998 206.275,256.046 204.650,260.676 206.975 C 261.798 207.539,262.880 208.000,263.080 208.000 C 263.741 208.000,265.895 210.565,267.110 212.800 C 268.993 216.263,269.600 221.157,269.600 232.867 C 269.600 245.525,270.126 247.200,274.103 247.200 C 276.318 247.200,277.379 248.995,276.177 250.711 C 275.561 251.592,275.455 251.600,264.958 251.600 L 254.361 251.600 253.817 250.306 C 253.149 248.718,253.586 247.717,255.112 247.342 C 260.853 245.929,260.914 245.760,260.699 231.850 C 260.487 218.086,260.287 217.102,257.135 214.304 L 255.000 212.409 251.400 212.412 C 246.638 212.415,244.721 213.592,241.642 218.400 C 240.132 220.758,239.592 225.323,239.623 235.468 C 239.650 244.774,239.844 245.492,242.600 246.527 C 246.924 248.152,247.451 248.747,246.224 250.620 L 245.582 251.600 235.005 251.600 C 224.957 251.600,224.407 251.561,224.014 250.826 C 222.954 248.846,223.887 247.202,226.074 247.199 C 227.407 247.196,229.478 245.816,230.416 244.304 C 231.528 242.509,231.451 216.401,230.326 214.000 C 229.398 212.021,228.054 210.909,226.200 210.587 C 222.959 210.026,222.089 208.029,224.448 206.570 C 226.182 205.499,237.011 205.795,237.810 206.936 M297.838 206.842 C 298.558 207.637,298.611 208.708,298.800 226.233 L 299.000 244.783 300.039 245.821 C 300.737 246.519,301.656 246.924,302.839 247.055 C 306.728 247.485,307.636 248.206,306.748 250.155 C 306.094 251.589,306.265 251.569,294.216 251.619 C 282.542 251.668,282.559 251.670,281.965 250.107 C 281.282 248.312,282.402 247.202,284.909 247.189 C 286.619 247.180,287.255 246.967,288.400 246.018 L 289.800 244.858 289.924 230.329 C 290.079 212.035,289.983 211.705,284.291 210.994 C 282.775 210.805,281.798 210.437,281.244 209.847 L 280.428 208.978 281.375 207.789 C 282.779 206.025,296.389 205.242,297.838 206.842 " stroke="none" fill="#ffffff" fill-rule="evenodd"></path><path id="path1" d="M132.223 159.689 C 130.225 162.542,131.558 163.824,136.800 164.094 C 140.686 164.293,143.036 165.193,143.866 166.800 C 144.036 167.130,144.271 181.260,144.388 198.200 C 144.539 220.132,144.731 229.230,145.055 229.800 C 145.306 230.240,145.732 231.675,146.002 232.989 C 147.208 238.849,152.295 244.704,158.855 247.783 C 159.595 248.130,160.650 248.669,161.200 248.980 C 169.697 253.785,192.384 253.338,201.101 248.194 C 202.365 247.448,204.030 246.485,204.800 246.055 C 205.570 245.625,207.464 243.862,209.010 242.137 C 216.509 233.764,217.193 230.138,217.214 198.668 C 217.229 175.364,217.417 172.851,219.392 169.600 C 221.172 166.669,222.710 165.705,228.400 163.954 C 230.462 163.319,231.035 161.629,229.818 159.772 L 229.182 158.800 213.055 158.800 L 196.928 158.800 196.464 159.819 C 195.190 162.616,195.819 163.536,199.823 164.733 C 205.295 166.368,207.225 168.590,208.637 174.879 C 210.959 185.221,209.757 225.272,206.941 231.417 C 205.546 234.462,201.187 239.498,199.638 239.855 C 199.067 239.987,197.829 240.534,196.887 241.072 C 186.294 247.115,168.379 241.438,165.735 231.200 C 165.480 230.210,164.981 228.623,164.628 227.672 C 164.055 226.133,163.997 222.741,164.092 196.604 L 164.200 167.264 165.200 166.181 C 166.757 164.494,168.390 164.000,172.413 164.000 C 176.818 164.000,177.600 163.666,177.600 161.786 C 177.600 158.656,178.721 158.800,154.423 158.800 L 132.845 158.800 132.223 159.689 M291.200 182.030 C 288.387 183.198,287.453 186.964,289.500 188.879 C 291.796 191.028,292.764 191.247,295.084 190.144 C 300.653 187.498,296.902 179.662,291.200 182.030 M324.072 191.100 C 323.838 191.705,323.258 193.820,322.783 195.800 C 321.312 201.926,319.203 204.836,314.481 207.251 C 310.582 209.245,310.817 211.200,314.955 211.200 C 316.511 211.200,317.379 211.425,318.146 212.029 L 319.200 212.858 319.215 226.729 C 319.235 245.915,319.710 247.738,325.326 250.186 C 333.989 253.962,344.216 246.420,343.526 236.765 C 343.260 233.038,340.920 234.405,340.401 238.591 C 339.357 247.011,330.553 250.154,327.440 243.218 L 326.400 240.900 326.400 226.912 C 326.400 209.405,324.922 211.325,338.490 211.209 C 339.281 211.203,339.743 210.884,340.175 210.049 C 341.231 208.006,340.250 207.600,334.249 207.600 C 326.193 207.600,326.400 207.852,326.400 198.047 C 326.400 190.992,326.223 190.000,324.969 190.000 C 324.709 190.000,324.306 190.495,324.072 191.100 M229.221 206.813 C 225.570 207.070,224.951 207.220,224.315 208.005 C 223.398 209.138,223.980 210.000,225.662 210.000 C 227.739 210.000,229.460 211.018,230.562 212.899 L 231.600 214.670 231.600 229.446 C 231.600 245.718,231.685 245.141,229.053 246.767 C 228.312 247.225,227.176 247.600,226.529 247.600 C 224.597 247.600,223.761 248.457,224.336 249.846 L 224.814 251.000 234.907 250.889 C 244.778 250.780,245.015 250.758,245.672 249.896 C 246.542 248.754,246.006 248.074,243.978 247.750 C 239.712 247.068,239.125 245.662,238.907 235.600 C 238.644 223.503,240.391 216.561,244.311 214.128 C 244.910 213.756,245.815 213.085,246.323 212.635 C 248.084 211.075,254.551 211.423,256.816 213.200 C 261.091 216.553,261.400 217.884,261.400 232.931 L 261.400 244.461 259.920 245.818 C 259.105 246.564,257.935 247.278,257.320 247.405 C 254.641 247.955,253.626 248.936,254.500 250.131 C 255.381 251.336,274.714 251.184,275.706 249.965 C 276.665 248.786,276.045 248.116,273.667 247.759 C 269.024 247.063,268.405 245.075,268.402 230.833 C 268.399 216.279,267.878 213.685,264.169 209.764 C 261.470 206.910,254.569 205.673,250.492 207.313 C 249.552 207.691,248.382 208.001,247.892 208.001 C 247.348 208.002,245.813 209.087,243.960 210.779 C 239.240 215.089,238.312 214.973,237.884 210.017 C 237.551 206.163,237.694 206.216,229.221 206.813 M287.551 207.098 C 283.530 207.207,282.805 207.331,282.189 208.012 C 281.068 209.251,282.316 210.400,284.783 210.400 C 287.310 210.400,289.835 212.201,290.287 214.325 C 290.459 215.136,290.600 222.322,290.600 230.292 L 290.600 244.785 289.342 246.043 C 288.328 247.056,287.551 247.388,285.342 247.750 C 282.430 248.228,281.557 249.203,282.984 250.386 C 284.248 251.436,304.811 251.074,305.691 249.986 C 306.710 248.729,306.060 248.155,303.260 247.839 C 301.298 247.617,300.719 247.354,299.567 246.166 L 298.200 244.757 298.000 226.278 C 297.774 205.416,298.006 206.770,294.676 206.886 C 293.314 206.933,290.108 207.029,287.551 207.098 " stroke="none" fill="#cd0000" fill-rule="evenodd"></path><path id="path2" d="M87.029 147.828 C 86.095 148.762,85.866 150.183,86.393 151.779 C 86.960 153.497,87.051 153.521,93.800 153.718 C 103.510 154.002,102.575 150.091,102.715 191.014 C 102.844 228.832,102.709 231.544,100.443 236.477 C 96.282 245.534,84.856 248.746,74.504 243.767 C 65.617 239.492,64.748 230.604,73.392 232.398 C 84.592 234.724,90.520 220.220,81.733 211.990 C 77.848 208.351,77.537 208.221,72.400 208.088 C 69.164 208.004,67.549 208.121,66.954 208.484 C 66.489 208.768,65.409 209.386,64.554 209.857 C 57.201 213.912,54.042 224.533,57.422 233.836 C 59.057 238.338,63.619 244.278,66.800 246.049 C 67.570 246.478,68.920 247.353,69.800 247.994 C 78.459 254.300,100.168 254.392,110.046 248.164 C 114.065 245.630,115.110 244.810,117.091 242.643 C 124.757 234.255,124.780 234.104,124.791 191.511 L 124.800 159.223 125.737 157.104 C 126.917 154.436,127.829 153.998,132.919 153.651 C 137.369 153.348,137.585 153.195,137.594 150.323 C 137.605 147.014,139.144 147.200,111.740 147.200 C 90.390 147.200,87.586 147.271,87.029 147.828 M132.005 158.716 C 131.416 159.193,131.054 160.027,130.919 161.217 C 130.614 163.929,131.475 164.511,136.117 164.727 C 138.948 164.859,140.233 165.117,141.670 165.841 L 143.540 166.783 143.692 197.691 C 143.842 228.275,143.853 228.627,144.722 231.152 C 145.205 232.556,145.600 233.906,145.600 234.152 C 145.601 234.761,147.925 239.634,148.576 240.391 C 150.465 242.589,154.003 245.799,155.345 246.532 C 156.219 247.009,157.758 247.882,158.767 248.472 C 161.157 249.870,162.324 250.400,163.011 250.400 C 163.319 250.400,164.432 250.737,165.485 251.148 C 171.710 253.582,191.568 253.514,196.200 251.045 C 196.860 250.693,197.648 250.404,197.951 250.402 C 198.566 250.400,201.935 248.574,205.027 246.569 C 208.122 244.561,213.479 238.356,214.202 235.941 C 214.357 235.424,214.768 234.550,215.117 234.000 C 217.314 230.530,217.713 225.543,217.965 198.400 L 218.200 173.000 219.473 170.800 C 221.468 167.351,225.247 164.800,228.361 164.800 C 230.967 164.800,232.194 160.957,230.218 158.982 L 229.236 158.000 213.080 158.000 C 194.653 158.000,195.400 157.857,195.400 161.381 C 195.400 163.700,195.956 164.210,199.829 165.444 C 208.214 168.115,208.800 170.311,208.800 199.087 C 208.800 225.368,208.316 228.971,203.964 235.089 C 202.558 237.065,199.825 239.377,198.400 239.797 C 197.850 239.959,196.851 240.423,196.180 240.829 C 192.446 243.086,178.779 243.054,175.576 240.780 C 175.012 240.380,174.079 239.935,173.501 239.790 C 171.480 239.282,167.059 233.810,166.360 230.951 C 166.098 229.878,165.594 228.460,165.242 227.800 C 164.439 226.299,164.016 170.957,164.787 168.320 C 165.538 165.754,167.060 165.037,172.310 164.776 C 177.630 164.512,178.133 164.216,178.133 161.357 C 178.133 157.807,179.485 158.000,154.600 158.000 C 134.336 158.000,132.830 158.048,132.005 158.716 M176.800 159.600 C 179.354 162.154,177.513 164.000,172.413 164.000 C 168.390 164.000,166.757 164.494,165.200 166.181 L 164.200 167.264 164.092 196.604 C 163.997 222.741,164.055 226.133,164.628 227.672 C 164.981 228.623,165.480 230.210,165.735 231.200 C 168.379 241.438,186.294 247.115,196.887 241.072 C 197.829 240.534,199.067 239.987,199.638 239.855 C 201.187 239.498,205.546 234.462,206.941 231.417 C 209.757 225.272,210.959 185.221,208.637 174.879 C 207.225 168.590,205.295 166.368,199.823 164.733 C 195.819 163.536,195.190 162.616,196.464 159.819 L 196.928 158.800 213.055 158.800 L 229.182 158.800 229.818 159.772 C 231.035 161.629,230.462 163.319,228.400 163.954 C 217.370 167.347,217.234 167.769,217.214 198.668 C 217.193 230.138,216.509 233.764,209.010 242.137 C 207.464 243.862,205.570 245.625,204.800 246.055 C 204.030 246.485,202.365 247.448,201.101 248.194 C 192.384 253.338,169.697 253.785,161.200 248.980 C 160.650 248.669,159.595 248.130,158.855 247.783 C 152.295 244.704,147.208 238.849,146.002 232.989 C 145.732 231.675,145.306 230.240,145.055 229.800 C 144.731 229.230,144.539 220.132,144.388 198.200 C 144.271 181.260,144.036 167.130,143.866 166.800 C 143.036 165.193,140.686 164.293,136.800 164.094 C 131.558 163.824,130.225 162.542,132.223 159.689 L 132.845 158.800 154.423 158.800 C 175.467 158.800,176.020 158.820,176.800 159.600 M290.931 181.570 C 286.597 183.551,286.686 188.505,291.099 190.906 L 293.099 191.995 295.249 190.851 C 301.595 187.478,297.458 178.587,290.931 181.570 M296.225 182.653 C 297.586 183.545,298.231 185.888,297.623 187.730 C 296.105 192.331,288.372 191.068,288.414 186.225 C 288.448 182.438,292.835 180.432,296.225 182.653 M324.029 189.769 C 323.410 190.428,322.901 191.940,322.316 194.854 C 320.994 201.445,319.011 204.339,314.159 206.758 C 309.512 209.075,310.014 212.000,315.059 212.000 C 318.629 212.000,318.400 211.001,318.400 226.563 C 318.400 248.355,320.078 251.824,330.600 251.787 C 338.520 251.760,346.042 242.611,344.075 235.400 C 343.190 232.157,340.253 234.128,339.871 238.223 C 339.316 244.165,334.819 247.598,330.134 245.656 C 327.617 244.612,327.238 242.156,327.176 226.472 C 327.113 210.477,326.387 212.031,333.926 212.013 C 339.801 211.999,340.448 211.816,341.218 209.957 C 341.714 208.759,341.681 208.628,340.650 207.742 C 339.497 206.749,339.372 206.732,332.942 206.651 C 327.019 206.577,327.200 206.846,327.200 198.112 C 327.200 191.054,327.008 189.953,325.646 189.225 C 325.074 188.919,324.714 189.040,324.029 189.769 M325.920 190.480 C 326.257 190.817,326.400 193.068,326.400 198.047 C 326.400 207.852,326.193 207.600,334.249 207.600 C 340.250 207.600,341.231 208.006,340.175 210.049 C 339.743 210.884,339.281 211.203,338.490 211.209 C 324.922 211.325,326.400 209.405,326.400 226.912 L 326.400 240.900 327.440 243.218 C 330.553 250.154,339.357 247.011,340.401 238.591 C 340.920 234.405,343.260 233.038,343.526 236.765 C 344.216 246.420,333.989 253.962,325.326 250.186 C 319.710 247.738,319.235 245.915,319.215 226.729 L 319.200 212.858 318.146 212.029 C 317.379 211.425,316.511 211.200,314.955 211.200 C 310.817 211.200,310.582 209.245,314.481 207.251 C 319.203 204.836,321.312 201.926,322.783 195.800 C 324.160 190.061,324.657 189.217,325.920 190.480 M229.951 206.045 C 224.375 206.315,224.252 206.352,223.393 208.013 C 222.674 209.405,223.442 210.110,226.200 210.587 C 228.054 210.909,229.398 212.021,230.326 214.000 C 231.451 216.401,231.528 242.509,230.416 244.304 C 229.478 245.816,227.407 247.196,226.074 247.199 C 223.887 247.202,222.954 248.846,224.014 250.826 C 224.407 251.561,224.957 251.600,235.005 251.600 L 245.582 251.600 246.224 250.620 C 247.451 248.747,246.924 248.152,242.600 246.527 C 239.844 245.492,239.650 244.774,239.623 235.468 C 239.592 225.323,240.132 220.758,241.642 218.400 C 244.721 213.592,246.638 212.415,251.400 212.412 L 255.000 212.409 257.135 214.304 C 260.287 217.102,260.487 218.086,260.699 231.850 C 260.914 245.760,260.853 245.929,255.112 247.342 C 253.586 247.717,253.149 248.718,253.817 250.306 L 254.361 251.600 264.958 251.600 C 275.455 251.600,275.561 251.592,276.177 250.711 C 277.379 248.995,276.318 247.200,274.103 247.200 C 270.126 247.200,269.600 245.525,269.600 232.867 C 269.600 221.157,268.993 216.263,267.110 212.800 C 265.895 210.565,263.741 208.000,263.080 208.000 C 262.880 208.000,261.798 207.539,260.676 206.975 C 256.046 204.650,247.998 206.275,243.434 210.458 C 239.644 213.930,238.400 213.580,238.400 209.039 C 238.400 206.034,237.410 205.683,229.951 206.045 M286.661 206.373 C 282.443 206.594,282.295 206.633,281.375 207.789 L 280.428 208.978 281.244 209.847 C 281.798 210.437,282.775 210.805,284.291 210.994 C 289.983 211.705,290.079 212.035,289.924 230.329 L 289.800 244.858 288.400 246.018 C 287.255 246.967,286.619 247.180,284.909 247.189 C 282.402 247.202,281.282 248.312,281.965 250.107 C 282.559 251.670,282.542 251.668,294.216 251.619 C 306.265 251.569,306.094 251.589,306.748 250.155 C 307.636 248.206,306.728 247.485,302.839 247.055 C 301.656 246.924,300.737 246.519,300.039 245.821 L 299.000 244.783 298.800 226.233 C 298.564 204.334,298.947 205.955,294.038 206.073 C 292.367 206.114,289.047 206.249,286.661 206.373 M236.954 206.917 C 237.452 207.281,237.727 208.196,237.884 210.017 C 238.312 214.973,239.240 215.089,243.960 210.779 C 245.813 209.087,247.348 208.002,247.892 208.001 C 248.382 208.001,249.552 207.691,250.492 207.313 C 254.569 205.673,261.470 206.910,264.169 209.764 C 267.878 213.685,268.399 216.279,268.402 230.833 C 268.405 245.075,269.024 247.063,273.667 247.759 C 276.045 248.116,276.665 248.786,275.706 249.965 C 274.714 251.184,255.381 251.336,254.500 250.131 C 253.626 248.936,254.641 247.955,257.320 247.405 C 257.935 247.278,259.105 246.564,259.920 245.818 L 261.400 244.461 261.400 232.931 C 261.400 217.884,261.091 216.553,256.816 213.200 C 254.551 211.423,248.084 211.075,246.323 212.635 C 245.815 213.085,244.910 213.756,244.311 214.128 C 240.391 216.561,238.644 223.503,238.907 235.600 C 239.125 245.662,239.712 247.068,243.978 247.750 C 246.006 248.074,246.542 248.754,245.672 249.896 C 245.015 250.758,244.778 250.780,234.907 250.889 L 224.814 251.000 224.336 249.846 C 223.761 248.457,224.597 247.600,226.529 247.600 C 227.176 247.600,228.312 247.225,229.053 246.767 C 231.685 245.141,231.600 245.718,231.600 229.446 L 231.600 214.670 230.562 212.899 C 229.460 211.018,227.739 210.000,225.662 210.000 C 223.980 210.000,223.398 209.138,224.315 208.005 C 224.951 207.220,225.570 207.070,229.221 206.813 C 235.687 206.358,236.199 206.365,236.954 206.917 M297.476 207.300 C 297.654 207.575,297.890 216.115,298.000 226.278 L 298.200 244.757 299.567 246.166 C 300.719 247.354,301.298 247.617,303.260 247.839 C 306.060 248.155,306.710 248.729,305.691 249.986 C 304.811 251.074,284.248 251.436,282.984 250.386 C 281.557 249.203,282.430 248.228,285.342 247.750 C 287.551 247.388,288.328 247.056,289.342 246.043 L 290.600 244.785 290.600 230.292 C 290.600 222.322,290.459 215.136,290.287 214.325 C 289.835 212.201,287.310 210.400,284.783 210.400 C 282.316 210.400,281.068 209.251,282.189 208.012 C 282.805 207.331,283.530 207.207,287.551 207.098 C 290.108 207.029,293.314 206.933,294.676 206.886 C 296.302 206.830,297.264 206.972,297.476 207.300 " stroke="none" fill="#4d9b01" fill-rule="evenodd"></path></g></svg>