<svg id="svg" version="1.1" width="400" height="317.94871794871796" xmlns="http://www.w3.org/2000/svg" xmlns:xlink="http://www.w3.org/1999/xlink" style="display: block;"><g id="svgg"><path id="path0" d="M11.804 8.379 C 11.540 8.697,11.467 47.351,11.526 155.836 L 11.606 302.862 198.251 302.862 L 384.897 302.862 384.897 155.485 L 384.897 8.108 198.529 8.028 C 42.075 7.961,12.104 8.018,11.804 8.379 M369.663 23.628 L 370.432 24.521 370.351 155.811 C 370.274 281.363,370.245 287.125,369.702 287.668 C 369.008 288.362,29.287 288.741,27.604 288.049 C 26.005 287.392,26.073 293.299,26.073 155.458 C 26.073 16.895,25.986 23.813,27.740 23.050 C 28.630 22.662,52.648 22.609,198.835 22.667 L 368.894 22.734 369.663 23.628 " stroke="none" fill="#000000" fill-rule="evenodd"></path><path id="path1" d="M11.337 7.895 C 10.652 8.652,10.508 302.591,11.192 303.275 C 11.925 304.008,384.819 303.809,385.483 303.075 C 385.971 302.536,386.010 291.840,386.010 155.599 L 386.010 8.705 385.361 8.009 L 384.713 7.313 198.288 7.313 C 18.087 7.313,11.846 7.333,11.337 7.895 M384.897 155.485 L 384.897 302.862 198.251 302.862 L 11.606 302.862 11.526 155.836 C 11.467 47.351,11.540 8.697,11.804 8.379 C 12.104 8.018,42.075 7.961,198.529 8.028 L 384.897 8.108 384.897 155.485 M27.740 23.050 C 25.986 23.813,26.073 16.895,26.073 155.458 C 26.073 293.299,26.005 287.392,27.604 288.049 C 29.287 288.741,369.008 288.362,369.702 287.668 C 370.245 287.125,370.274 281.363,370.351 155.811 L 370.432 24.521 369.663 23.628 L 368.894 22.734 198.835 22.667 C 52.648 22.609,28.630 22.662,27.740 23.050 M368.970 24.508 L 369.793 25.486 369.793 155.366 C 369.793 267.155,369.730 285.368,369.340 286.122 C 369.091 286.604,368.512 287.170,368.053 287.378 C 367.410 287.671,328.543 287.758,198.102 287.758 L 28.984 287.758 28.005 286.935 L 27.027 286.112 27.027 155.480 L 27.027 24.847 27.865 24.188 L 28.703 23.529 198.425 23.529 L 368.147 23.529 368.970 24.508 " stroke="none" fill="#454545" fill-rule="evenodd"></path><path id="path2" d="M11.013 7.336 L 10.175 7.995 10.175 155.480 L 10.175 302.964 11.153 303.787 L 12.131 304.610 198.410 304.610 L 384.689 304.610 385.667 303.632 L 386.645 302.654 386.645 155.644 L 386.645 8.634 385.822 7.656 L 384.999 6.677 198.425 6.677 L 11.850 6.677 11.013 7.336 M385.361 8.009 L 386.010 8.705 386.010 155.599 C 386.010 291.840,385.971 302.536,385.483 303.075 C 384.819 303.809,11.925 304.008,11.192 303.275 C 10.508 302.591,10.652 8.652,11.337 7.895 C 11.846 7.333,18.087 7.313,198.288 7.313 L 384.713 7.313 385.361 8.009 M27.865 24.188 L 27.027 24.847 27.027 155.480 L 27.027 286.112 28.005 286.935 L 28.984 287.758 198.102 287.758 C 328.543 287.758,367.410 287.671,368.053 287.378 C 368.512 287.170,369.091 286.604,369.340 286.122 C 369.730 285.368,369.793 267.155,369.793 155.366 L 369.793 25.486 368.970 24.508 L 368.147 23.529 198.425 23.529 L 28.703 23.529 27.865 24.188 M368.421 24.857 L 369.157 25.548 369.157 155.555 L 369.157 285.561 368.377 286.342 L 367.596 287.122 198.326 287.122 L 29.055 287.122 28.359 286.474 L 27.663 285.826 27.663 155.577 C 27.663 34.825,27.701 25.286,28.189 24.747 C 28.698 24.185,34.410 24.165,198.200 24.165 L 367.686 24.165 368.421 24.857 " stroke="none" fill="#747474" fill-rule="evenodd"></path><path id="path3" d="M10.909 6.044 C 10.526 6.199,9.989 6.666,9.715 7.083 C 9.267 7.767,9.227 22.152,9.299 155.936 L 9.380 304.031 10.131 304.639 C 10.868 305.236,14.243 305.246,198.301 305.246 L 385.720 305.246 386.501 304.466 L 387.281 303.686 387.281 155.684 C 387.281 74.284,387.193 7.452,387.084 7.168 C 386.494 5.631,398.502 5.722,198.346 5.744 C 91.168 5.755,11.309 5.883,10.909 6.044 M385.822 7.656 L 386.645 8.634 386.645 155.644 L 386.645 302.654 385.667 303.632 L 384.689 304.610 198.410 304.610 L 12.131 304.610 11.153 303.787 L 10.175 302.964 10.175 155.480 L 10.175 7.995 11.013 7.336 L 11.850 6.677 198.425 6.677 L 384.999 6.677 385.822 7.656 M28.189 24.747 C 27.701 25.286,27.663 34.825,27.663 155.577 L 27.663 285.826 28.359 286.474 L 29.055 287.122 198.326 287.122 L 367.596 287.122 368.377 286.342 L 369.157 285.561 369.157 155.555 L 369.157 25.548 368.421 24.857 L 367.686 24.165 198.200 24.165 C 34.410 24.165,28.698 24.185,28.189 24.747 M368.124 155.293 C 368.183 251.145,368.110 285.421,367.847 285.738 C 367.349 286.338,29.281 286.387,28.680 285.787 C 28.124 285.231,28.124 26.057,28.681 25.500 C 28.977 25.204,66.990 25.136,198.554 25.198 L 368.045 25.278 368.124 155.293 " stroke="none" fill="#a3a3a3" fill-rule="evenodd"></path><path id="path4" d="M0.000 158.983 L 0.000 317.965 200.000 317.965 L 400.000 317.965 400.000 158.983 L 400.000 0.000 200.000 0.000 L 0.000 0.000 0.000 158.983 M385.987 6.189 C 386.482 6.444,386.975 6.885,387.084 7.168 C 387.193 7.452,387.281 74.284,387.281 155.684 L 387.281 303.686 386.501 304.466 L 385.720 305.246 198.301 305.246 C 14.243 305.246,10.868 305.236,10.131 304.639 L 9.380 304.031 9.299 155.936 C 9.227 22.152,9.267 7.767,9.715 7.083 C 9.989 6.666,10.526 6.199,10.909 6.044 C 12.245 5.506,384.945 5.650,385.987 6.189 M28.681 25.500 C 28.124 26.057,28.124 285.231,28.680 285.787 C 29.281 286.387,367.349 286.338,367.847 285.738 C 368.110 285.421,368.183 251.145,368.124 155.293 L 368.045 25.278 198.554 25.198 C 66.990 25.136,28.977 25.204,28.681 25.500 " stroke="none" fill="#ffffff" fill-rule="evenodd"></path></g></svg>