<svg id="svg" version="1.1" width="400" height="393.89312977099235" xmlns="http://www.w3.org/2000/svg" xmlns:xlink="http://www.w3.org/1999/xlink" style="display: block;"><g id="svgg"><path id="path0" d="M27.321 2.555 C 26.862 2.876,25.182 3.258,23.588 3.402 C 21.695 3.574,20.364 3.918,19.750 4.394 C 19.233 4.795,18.519 5.123,18.163 5.123 C 17.806 5.123,17.211 5.478,16.840 5.911 C 16.469 6.345,15.925 6.700,15.631 6.700 C 15.338 6.700,14.777 7.054,14.384 7.488 C 13.992 7.921,13.530 8.276,13.358 8.276 C 12.877 8.276,11.204 9.965,10.919 10.739 C 10.779 11.118,10.496 11.429,10.290 11.429 C 10.084 11.429,9.801 11.946,9.662 12.578 C 9.524 13.210,9.155 13.825,8.843 13.945 C 8.531 14.065,8.276 14.410,8.276 14.713 C 8.276 15.016,7.945 15.686,7.541 16.203 C 7.094 16.776,6.699 18.158,6.531 19.742 C 6.380 21.171,6.001 22.832,5.689 23.432 C 4.826 25.096,4.835 369.798,5.698 371.461 C 6.014 372.071,6.392 373.776,6.537 375.250 C 6.682 376.725,6.953 377.931,7.139 377.931 C 7.325 377.931,7.749 378.507,8.081 379.212 C 9.322 381.848,10.382 383.405,12.109 385.132 C 13.619 386.641,14.548 387.389,14.914 387.389 C 15.097 387.389,15.568 387.744,15.961 388.177 C 16.353 388.611,16.885 388.966,17.143 388.966 C 17.401 388.966,17.933 389.320,18.325 389.754 C 18.785 390.262,19.541 390.543,20.455 390.544 C 21.234 390.546,22.404 390.899,23.054 391.330 C 24.750 392.453,375.829 392.588,376.951 391.466 C 377.309 391.107,378.467 390.731,379.523 390.629 C 380.717 390.515,381.697 390.165,382.113 389.705 C 382.481 389.298,383.109 388.966,383.509 388.966 C 383.909 388.966,384.236 388.703,384.236 388.382 C 384.236 388.061,384.680 387.687,385.222 387.551 C 385.764 387.415,386.207 387.142,386.207 386.944 C 386.207 386.746,386.649 386.383,387.190 386.136 C 387.731 385.890,388.525 385.140,388.954 384.470 C 389.384 383.800,389.961 382.897,390.237 382.463 C 390.513 382.030,390.961 381.533,391.232 381.360 C 391.502 381.186,391.724 380.815,391.724 380.534 C 391.724 380.253,392.055 379.725,392.458 379.359 C 392.929 378.933,393.272 377.924,393.414 376.550 C 393.536 375.370,393.915 374.006,394.256 373.519 C 395.346 371.962,395.189 22.843,394.097 20.437 C 393.669 19.492,393.314 18.054,393.309 17.241 C 393.304 16.429,393.153 15.764,392.973 15.764 C 392.642 15.764,390.148 12.132,390.148 11.650 C 390.148 11.395,387.391 8.643,385.980 7.488 C 385.582 7.163,384.761 6.683,384.156 6.423 C 383.550 6.162,383.054 5.763,383.054 5.536 C 383.054 5.309,382.771 5.123,382.425 5.123 C 382.080 5.123,381.326 4.793,380.750 4.390 C 380.067 3.911,378.623 3.562,376.587 3.383 C 374.872 3.232,373.103 2.852,372.657 2.539 C 371.408 1.665,28.569 1.681,27.321 2.555 M375.847 16.897 C 376.234 17.304,376.918 17.748,377.365 17.885 C 377.812 18.022,378.743 18.936,379.434 19.916 L 380.690 21.698 380.690 197.621 L 380.690 373.544 378.649 375.639 L 376.608 377.734 200.672 377.834 L 24.737 377.934 23.011 376.849 C 22.061 376.252,21.179 375.378,21.050 374.906 C 20.921 374.434,20.477 373.742,20.063 373.367 C 18.848 372.267,18.883 21.949,20.099 21.189 C 20.532 20.919,20.887 20.441,20.887 20.128 C 20.887 19.397,22.440 17.734,23.123 17.734 C 23.410 17.734,24.000 17.379,24.433 16.946 C 25.637 15.742,374.699 15.694,375.847 16.897 M182.318 95.861 C 182.187 96.349,182.077 97.463,182.074 98.336 C 182.071 99.209,181.826 100.273,181.529 100.700 C 181.233 101.128,180.863 103.016,180.708 104.896 C 180.554 106.776,180.181 108.638,179.881 109.034 C 179.581 109.430,179.322 110.640,179.306 111.724 C 179.268 114.215,178.726 117.065,178.229 117.388 C 178.019 117.524,177.752 119.197,177.636 121.104 C 177.490 123.500,177.229 124.790,176.791 125.273 C 176.337 125.775,176.158 126.750,176.158 128.716 C 176.158 130.681,175.934 131.898,175.369 133.005 C 174.819 134.085,174.581 135.329,174.581 137.133 C 174.581 138.963,174.352 140.145,173.793 141.187 C 173.229 142.239,173.004 143.414,173.002 145.319 C 173.001 147.071,172.775 148.384,172.340 149.163 C 171.941 149.877,171.583 151.719,171.436 153.820 C 171.299 155.770,170.991 157.419,170.735 157.577 C 170.484 157.732,170.162 159.360,170.020 161.195 C 169.877 163.031,169.535 164.894,169.260 165.336 C 168.985 165.779,168.695 167.464,168.616 169.080 L 168.473 172.020 178.621 172.125 L 188.768 172.230 188.777 169.957 C 188.782 168.551,189.083 167.030,189.565 165.967 C 190.071 164.851,190.345 163.398,190.345 161.823 C 190.345 160.150,190.589 158.941,191.133 157.927 C 191.697 156.874,191.922 155.700,191.924 153.795 C 191.925 152.184,192.163 150.679,192.525 149.984 C 192.855 149.352,193.230 147.490,193.358 145.846 C 193.486 144.202,193.811 142.502,194.081 142.068 C 194.350 141.634,194.698 139.741,194.855 137.862 C 195.012 135.983,195.385 134.121,195.685 133.725 C 195.986 133.329,196.244 132.118,196.261 131.034 C 196.299 128.527,196.842 125.691,197.345 125.371 C 197.559 125.235,197.811 123.905,197.904 122.415 C 198.033 120.347,198.249 119.579,198.816 119.164 C 199.754 118.479,234.819 118.351,236.085 119.029 C 237.019 119.529,237.131 121.836,236.256 122.562 C 235.826 122.919,235.664 123.869,235.663 126.058 C 235.661 128.133,235.456 129.430,235.000 130.246 C 234.603 130.957,234.244 132.796,234.099 134.854 C 233.929 137.269,233.659 138.499,233.185 139.023 C 232.678 139.584,232.512 140.488,232.512 142.702 C 232.512 144.697,232.319 145.913,231.910 146.497 C 231.551 147.010,231.214 148.678,231.075 150.624 C 230.947 152.421,230.622 154.247,230.353 154.681 C 230.084 155.115,229.735 157.008,229.579 158.887 C 229.422 160.766,229.048 162.628,228.748 163.024 C 228.448 163.420,228.189 164.631,228.173 165.714 C 228.135 168.206,227.593 171.055,227.096 171.378 C 226.886 171.514,226.619 173.187,226.503 175.095 C 226.365 177.351,226.086 178.797,225.703 179.233 C 225.313 179.676,225.057 181.059,224.944 183.339 C 224.820 185.822,224.589 186.979,224.111 187.507 C 223.624 188.045,223.448 188.966,223.448 190.982 C 223.448 192.947,223.225 194.164,222.660 195.271 C 222.116 196.337,221.868 197.616,221.859 199.394 C 221.850 201.111,221.591 202.496,221.084 203.547 C 220.559 204.633,220.318 205.985,220.309 207.893 C 220.300 209.787,220.094 210.949,219.659 211.571 C 219.249 212.156,218.947 213.675,218.813 215.826 C 218.698 217.666,218.388 219.388,218.124 219.652 C 217.860 219.916,217.514 221.721,217.355 223.662 C 217.197 225.604,216.841 227.458,216.566 227.783 C 216.291 228.108,215.957 229.863,215.824 231.683 C 215.684 233.595,215.330 235.377,214.983 235.905 C 214.643 236.425,214.380 237.718,214.375 238.902 C 214.364 241.292,213.826 243.946,213.281 244.294 C 213.077 244.425,212.830 246.079,212.733 247.969 C 212.606 250.446,212.371 251.611,211.894 252.138 C 211.398 252.685,211.232 253.609,211.232 255.800 C 211.232 257.978,211.029 259.109,210.443 260.201 C 209.878 261.257,209.655 262.425,209.655 264.339 C 209.655 266.254,209.433 267.422,208.867 268.477 C 208.314 269.510,208.079 270.701,208.079 272.476 C 208.079 274.815,207.988 275.080,206.866 276.024 L 205.654 277.044 195.438 277.044 C 187.529 277.044,185.221 277.156,185.219 277.537 C 185.218 277.808,184.927 278.562,184.573 279.212 C 184.207 279.885,183.812 281.895,183.657 283.876 C 183.507 285.792,183.185 287.482,182.940 287.633 C 182.696 287.784,182.379 289.410,182.236 291.245 C 182.094 293.080,181.746 294.952,181.464 295.404 C 181.183 295.857,180.901 297.187,180.839 298.360 L 180.726 300.493 216.438 300.493 C 236.080 300.493,252.289 300.355,252.457 300.187 C 252.625 300.018,252.862 298.405,252.982 296.602 C 253.103 294.798,253.408 293.074,253.660 292.770 C 253.911 292.466,254.241 290.709,254.392 288.867 C 254.543 287.025,254.889 285.162,255.161 284.728 C 255.432 284.294,255.783 282.387,255.941 280.491 L 256.228 277.044 245.775 277.044 C 239.937 277.044,234.876 276.875,234.311 276.660 C 233.123 276.208,232.875 273.816,233.879 272.489 C 234.233 272.021,234.463 270.808,234.472 269.360 C 234.488 266.830,235.098 264.039,235.635 264.039 C 235.815 264.039,236.037 262.480,236.128 260.574 C 236.244 258.165,236.498 256.817,236.965 256.152 C 237.442 255.470,237.635 254.394,237.635 252.419 C 237.635 250.396,237.849 249.245,238.424 248.173 C 238.983 247.129,239.216 245.929,239.225 244.041 C 239.234 242.240,239.485 240.870,240.000 239.803 C 240.507 238.754,240.766 237.367,240.775 235.654 C 240.783 234.096,241.008 232.768,241.345 232.287 C 241.652 231.849,242.026 229.992,242.176 228.159 C 242.327 226.327,242.669 224.473,242.938 224.039 C 243.206 223.606,243.549 221.745,243.700 219.905 C 243.851 218.064,244.234 216.164,244.549 215.682 C 244.865 215.200,245.131 213.957,245.140 212.920 C 245.162 210.515,245.710 207.661,246.210 207.341 C 246.423 207.205,246.677 205.547,246.774 203.657 C 246.895 201.303,247.146 199.998,247.568 199.519 C 247.992 199.037,248.239 197.741,248.357 195.381 C 248.480 192.897,248.711 191.741,249.190 191.212 C 249.685 190.664,249.852 189.741,249.852 187.549 C 249.852 185.372,250.055 184.241,250.640 183.148 C 251.193 182.117,251.429 180.925,251.429 179.158 C 251.429 177.489,251.692 176.058,252.208 174.920 C 252.725 173.781,252.991 172.335,252.996 170.630 C 253.002 169.064,253.223 167.746,253.562 167.262 C 253.868 166.825,254.242 164.967,254.393 163.135 C 254.544 161.302,254.888 159.448,255.157 159.015 C 255.427 158.581,255.776 156.719,255.932 154.877 C 256.088 153.034,256.441 151.172,256.716 150.739 C 256.991 150.305,257.329 148.461,257.467 146.641 C 257.614 144.711,257.948 143.067,258.268 142.700 C 258.606 142.312,258.895 140.735,259.021 138.600 C 259.155 136.335,259.430 134.899,259.814 134.462 C 260.204 134.018,260.460 132.636,260.573 130.356 C 260.697 127.873,260.928 126.716,261.407 126.187 C 261.888 125.655,262.069 124.736,262.069 122.826 C 262.069 118.299,260.552 118.621,281.892 118.621 C 295.558 118.621,300.257 118.739,300.611 119.094 C 301.254 119.736,301.211 122.754,300.551 123.301 C 300.212 123.583,299.934 125.047,299.786 127.333 C 299.639 129.601,299.344 131.160,298.985 131.569 C 298.630 131.975,298.352 133.419,298.241 135.435 C 298.127 137.523,297.834 139.005,297.407 139.657 C 296.955 140.348,296.749 141.503,296.749 143.351 C 296.749 145.262,296.521 146.488,295.961 147.586 C 295.417 148.653,295.168 149.932,295.159 151.709 C 295.150 153.426,294.892 154.812,294.384 155.862 C 293.886 156.893,293.618 158.298,293.609 159.923 C 293.601 161.513,293.322 163.009,292.836 164.076 C 292.329 165.189,292.045 166.789,291.984 168.882 L 291.892 172.020 301.427 172.125 C 312.933 172.253,312.508 172.389,312.526 168.558 C 312.535 166.576,312.770 165.236,313.300 164.138 C 313.807 163.088,314.066 161.702,314.075 159.989 C 314.083 158.465,314.310 157.100,314.631 156.639 C 314.930 156.212,315.301 154.355,315.457 152.512 C 315.612 150.670,315.961 148.808,316.232 148.374 C 316.503 147.941,316.849 146.080,317.001 144.240 C 317.152 142.399,317.507 140.537,317.790 140.102 C 318.072 139.666,318.403 137.841,318.524 136.045 C 318.659 134.059,318.991 132.405,319.373 131.823 C 319.763 131.227,320.001 130.004,320.002 128.585 C 320.005 126.051,320.623 123.350,321.201 123.350 C 321.407 123.350,321.576 121.973,321.576 120.290 C 321.576 117.983,321.770 116.868,322.365 115.759 C 322.930 114.704,323.153 113.536,323.153 111.621 C 323.153 109.707,323.375 108.539,323.941 107.483 C 324.505 106.431,324.730 105.256,324.731 103.351 C 324.733 101.767,324.971 100.235,325.320 99.566 C 325.642 98.948,325.952 97.707,326.007 96.807 L 326.108 95.172 254.332 95.073 L 182.556 94.973 182.318 95.861 M104.257 98.424 C 104.129 99.670,103.828 101.222,103.587 101.872 C 103.097 103.195,102.529 107.521,102.808 107.800 C 102.907 107.899,116.781 107.980,133.638 107.980 L 164.287 107.980 164.516 106.108 C 164.642 105.079,164.998 103.350,165.308 102.266 C 166.019 99.776,166.327 97.460,166.045 96.726 C 165.858 96.238,161.511 96.158,135.159 96.158 L 104.490 96.158 104.257 98.424 M91.509 159.790 C 90.970 160.475,90.662 161.713,90.464 163.981 C 90.309 165.751,89.906 167.781,89.568 168.490 C 88.263 171.225,86.088 171.050,120.016 170.938 L 150.598 170.837 151.322 168.670 C 152.090 166.373,153.036 159.740,152.678 159.161 C 152.560 158.971,139.045 158.818,122.370 158.818 L 92.274 158.818 91.509 159.790 M79.869 221.741 C 79.724 221.885,79.606 222.257,79.606 222.568 C 79.606 222.878,79.361 223.691,79.061 224.374 C 78.761 225.057,78.348 227.034,78.142 228.768 C 77.937 230.502,77.640 232.208,77.483 232.559 C 76.984 233.671,77.700 233.684,139.204 233.689 L 199.394 233.695 199.605 232.611 C 199.721 232.015,200.006 230.818,200.239 229.951 C 200.921 227.411,201.517 222.800,201.253 222.112 C 201.000 221.452,80.526 221.083,79.869 221.741 M67.598 291.527 C 67.462 292.990,67.093 294.770,66.779 295.481 C 66.464 296.193,66.207 297.656,66.207 298.733 L 66.207 300.690 115.283 300.690 C 154.212 300.690,164.387 300.588,164.491 300.197 C 166.086 294.194,166.741 289.361,165.998 289.076 C 165.698 288.961,143.491 288.867,116.649 288.867 L 67.846 288.867 67.598 291.527 " stroke="none" fill="#000000" fill-rule="evenodd"></path><path id="path1" d="M26.207 1.966 C 22.500 2.497,19.139 3.636,16.761 5.167 C 15.454 6.009,14.030 6.920,13.596 7.191 C 12.480 7.890,9.839 10.688,9.410 11.626 C 9.212 12.059,8.500 13.300,7.827 14.384 C 6.551 16.441,5.698 18.931,5.125 22.266 C 4.694 24.777,4.666 370.034,5.097 372.414 C 6.199 378.503,9.682 384.762,13.272 387.104 C 14.317 387.786,15.314 388.573,15.488 388.852 C 15.661 389.131,16.002 389.360,16.245 389.360 C 16.488 389.360,16.967 389.613,17.309 389.923 C 17.651 390.232,19.328 390.942,21.036 391.499 L 24.140 392.512 200.149 392.512 L 376.158 392.512 378.719 391.666 C 382.265 390.494,382.596 390.336,384.828 388.765 C 388.442 386.220,388.880 385.799,390.800 383.027 C 393.322 379.387,393.525 378.986,394.467 375.796 L 395.271 373.069 395.271 197.165 C 395.271 22.271,395.266 21.248,394.483 19.019 C 394.049 17.785,393.695 16.562,393.695 16.301 C 393.695 15.830,391.117 11.811,389.405 9.612 C 387.390 7.023,382.197 3.916,377.834 2.688 L 374.581 1.773 201.379 1.729 C 106.118 1.704,27.291 1.811,26.207 1.966 M372.657 2.539 C 373.103 2.852,374.872 3.232,376.587 3.383 C 378.623 3.562,380.067 3.911,380.750 4.390 C 381.326 4.793,382.080 5.123,382.425 5.123 C 382.771 5.123,383.054 5.309,383.054 5.536 C 383.054 5.763,383.550 6.162,384.156 6.423 C 384.761 6.683,385.582 7.163,385.980 7.488 C 387.391 8.643,390.148 11.395,390.148 11.650 C 390.148 12.132,392.642 15.764,392.973 15.764 C 393.153 15.764,393.304 16.429,393.309 17.241 C 393.314 18.054,393.669 19.492,394.097 20.437 C 395.189 22.843,395.346 371.962,394.256 373.519 C 393.915 374.006,393.536 375.370,393.414 376.550 C 393.272 377.924,392.929 378.933,392.458 379.359 C 392.055 379.725,391.724 380.253,391.724 380.534 C 391.724 380.815,391.502 381.186,391.232 381.360 C 390.961 381.533,390.513 382.030,390.237 382.463 C 389.961 382.897,389.384 383.800,388.954 384.470 C 388.525 385.140,387.731 385.890,387.190 386.136 C 386.649 386.383,386.207 386.746,386.207 386.944 C 386.207 387.142,385.764 387.415,385.222 387.551 C 384.680 387.687,384.236 388.061,384.236 388.382 C 384.236 388.703,383.909 388.966,383.509 388.966 C 383.109 388.966,382.481 389.298,382.113 389.705 C 381.697 390.165,380.717 390.515,379.523 390.629 C 378.467 390.731,377.309 391.107,376.951 391.466 C 375.829 392.588,24.750 392.453,23.054 391.330 C 22.404 390.899,21.234 390.546,20.455 390.544 C 19.541 390.543,18.785 390.262,18.325 389.754 C 17.933 389.320,17.401 388.966,17.143 388.966 C 16.885 388.966,16.353 388.611,15.961 388.177 C 15.568 387.744,15.097 387.389,14.914 387.389 C 14.548 387.389,13.619 386.641,12.109 385.132 C 10.382 383.405,9.322 381.848,8.081 379.212 C 7.749 378.507,7.325 377.931,7.139 377.931 C 6.953 377.931,6.682 376.725,6.537 375.250 C 6.392 373.776,6.014 372.071,5.698 371.461 C 4.835 369.798,4.826 25.096,5.689 23.432 C 6.001 22.832,6.380 21.171,6.531 19.742 C 6.699 18.158,7.094 16.776,7.541 16.203 C 7.945 15.686,8.276 15.016,8.276 14.713 C 8.276 14.410,8.531 14.065,8.843 13.945 C 9.155 13.825,9.524 13.210,9.662 12.578 C 9.801 11.946,10.084 11.429,10.290 11.429 C 10.496 11.429,10.779 11.118,10.919 10.739 C 11.204 9.965,12.877 8.276,13.358 8.276 C 13.530 8.276,13.992 7.921,14.384 7.488 C 14.777 7.054,15.338 6.700,15.631 6.700 C 15.925 6.700,16.469 6.345,16.840 5.911 C 17.211 5.478,17.806 5.123,18.163 5.123 C 18.519 5.123,19.233 4.795,19.750 4.394 C 20.364 3.918,21.695 3.574,23.588 3.402 C 25.182 3.258,26.862 2.876,27.321 2.555 C 28.569 1.681,371.408 1.665,372.657 2.539 M24.433 16.946 C 24.000 17.379,23.410 17.734,23.123 17.734 C 22.440 17.734,20.887 19.397,20.887 20.128 C 20.887 20.441,20.532 20.919,20.099 21.189 C 18.883 21.949,18.848 372.267,20.063 373.367 C 20.477 373.742,20.921 374.434,21.050 374.906 C 21.179 375.378,22.061 376.252,23.011 376.849 L 24.737 377.934 200.672 377.834 L 376.608 377.734 378.649 375.639 L 380.690 373.544 380.690 197.621 L 380.690 21.698 379.434 19.916 C 378.743 18.936,377.812 18.022,377.365 17.885 C 376.918 17.748,376.234 17.304,375.847 16.897 C 374.699 15.694,25.637 15.742,24.433 16.946 M375.764 17.722 C 377.600 18.855,378.199 19.398,379.409 21.028 L 380.296 22.222 380.296 197.178 L 380.296 372.134 379.249 373.789 C 378.673 374.699,377.457 375.914,376.547 376.490 L 374.893 377.537 200.025 377.537 L 25.157 377.537 23.435 376.125 C 22.487 375.349,21.260 373.943,20.708 373.001 L 19.704 371.288 19.704 197.167 L 19.704 23.045 20.985 21.095 C 22.352 19.014,24.789 17.095,26.404 16.830 C 26.946 16.741,105.419 16.686,200.788 16.708 L 374.187 16.749 375.764 17.722 M182.059 94.804 C 181.848 95.360,181.675 96.224,181.675 96.725 C 181.675 97.225,181.435 98.322,181.141 99.162 C 180.848 100.002,180.485 101.842,180.336 103.251 C 180.187 104.660,179.822 106.611,179.524 107.586 C 179.226 108.562,178.866 110.504,178.724 111.902 C 178.581 113.300,178.292 114.767,178.081 115.162 C 177.869 115.557,177.524 117.403,177.312 119.264 C 177.101 121.125,176.746 122.986,176.524 123.401 C 176.303 123.815,175.960 125.566,175.763 127.291 C 175.567 129.017,175.131 131.236,174.796 132.223 C 174.461 133.210,174.183 134.677,174.178 135.482 C 174.173 136.287,173.818 138.264,173.390 139.875 C 172.961 141.486,172.609 143.437,172.606 144.210 C 172.603 144.983,172.248 146.740,171.818 148.114 C 171.387 149.488,171.034 151.372,171.034 152.301 C 171.034 153.230,170.785 154.696,170.481 155.559 C 170.176 156.422,169.798 158.351,169.640 159.845 C 169.483 161.339,169.184 163.005,168.976 163.547 C 168.768 164.089,168.356 166.217,168.060 168.276 C 167.334 173.320,166.693 173.014,177.908 172.966 C 189.047 172.917,188.878 172.955,189.234 170.469 C 189.384 169.418,189.700 168.094,189.935 167.527 C 190.170 166.959,190.530 165.167,190.735 163.543 C 190.940 161.920,191.380 159.621,191.712 158.436 C 192.044 157.251,192.315 155.633,192.315 154.841 C 192.315 154.048,192.557 152.712,192.852 151.872 C 193.147 151.032,193.519 149.122,193.678 147.628 C 193.836 146.134,194.190 144.272,194.463 143.490 C 194.736 142.709,195.081 140.916,195.230 139.507 C 195.379 138.099,195.745 136.148,196.043 135.172 C 196.341 134.197,196.699 132.274,196.838 130.899 C 196.978 129.524,197.278 127.928,197.505 127.352 C 197.732 126.777,198.057 125.100,198.226 123.626 C 198.753 119.037,197.112 119.385,217.700 119.503 L 235.468 119.606 235.329 123.153 C 235.252 125.103,234.933 127.456,234.621 128.382 C 234.308 129.307,233.891 131.476,233.695 133.201 C 233.498 134.927,233.155 136.678,232.934 137.092 C 232.712 137.506,232.358 139.368,232.146 141.229 C 231.935 143.090,231.596 144.927,231.394 145.311 C 231.192 145.695,230.898 147.340,230.741 148.966 C 230.584 150.591,230.236 152.454,229.968 153.105 C 229.700 153.757,229.351 155.605,229.192 157.213 C 229.034 158.821,228.667 160.771,228.377 161.546 C 228.086 162.321,227.738 164.179,227.602 165.673 C 227.467 167.168,227.177 168.724,226.959 169.131 C 226.742 169.537,226.390 171.393,226.179 173.254 C 225.968 175.115,225.613 176.977,225.391 177.392 C 225.169 177.807,224.814 179.669,224.603 181.530 C 224.391 183.391,224.037 185.252,223.815 185.667 C 223.593 186.081,223.251 187.832,223.054 189.557 C 222.857 191.283,222.422 193.502,222.087 194.489 C 221.752 195.476,221.478 197.053,221.478 197.994 C 221.478 198.934,221.216 200.447,220.895 201.356 C 220.574 202.264,220.193 204.193,220.048 205.642 C 219.903 207.091,219.554 208.937,219.272 209.745 C 218.991 210.553,218.648 212.326,218.510 213.686 C 218.372 215.045,218.023 216.956,217.734 217.931 C 217.445 218.906,217.096 220.817,216.958 222.176 C 216.820 223.536,216.477 225.309,216.196 226.117 C 215.914 226.925,215.564 228.785,215.417 230.251 C 215.270 231.716,214.958 233.401,214.725 233.995 C 214.491 234.588,214.144 236.420,213.953 238.065 C 213.762 239.711,213.337 241.817,213.010 242.745 C 212.682 243.674,212.414 245.187,212.414 246.107 C 212.414 247.026,212.059 248.889,211.626 250.246 C 211.192 251.603,210.837 253.482,210.837 254.422 C 210.837 255.361,210.563 256.938,210.228 257.924 C 209.893 258.911,209.458 261.131,209.261 262.856 C 209.064 264.582,208.716 266.344,208.487 266.772 C 208.258 267.200,207.968 268.666,207.842 270.031 C 207.255 276.401,207.548 276.256,195.244 276.256 C 186.312 276.256,185.284 276.324,184.731 276.946 C 183.936 277.840,183.256 280.357,183.253 282.414 C 183.252 283.307,183.007 284.730,182.709 285.575 C 182.411 286.420,182.044 288.260,181.894 289.664 C 181.744 291.068,181.381 293.015,181.088 293.990 C 180.250 296.774,179.960 300.245,180.510 300.908 C 181.079 301.593,250.187 301.781,251.973 301.102 C 252.719 300.818,253.017 300.357,253.183 299.230 C 253.305 298.407,253.592 296.847,253.821 295.764 C 254.051 294.680,254.462 292.286,254.734 290.443 C 255.007 288.601,255.428 286.473,255.669 285.714 C 256.068 284.460,256.834 279.885,257.054 277.438 L 257.143 276.453 246.042 276.256 C 239.936 276.148,234.820 275.938,234.672 275.789 C 234.100 275.216,234.903 268.334,235.857 265.629 C 236.185 264.700,236.453 263.208,236.453 262.314 C 236.453 261.419,236.808 259.447,237.241 257.931 C 237.675 256.415,238.030 254.516,238.030 253.710 C 238.030 252.904,238.310 251.419,238.652 250.411 C 238.994 249.402,239.412 247.216,239.579 245.553 C 239.747 243.890,240.094 242.136,240.351 241.656 C 240.608 241.176,240.916 239.588,241.035 238.126 C 241.155 236.664,241.493 234.670,241.787 233.695 C 242.081 232.719,242.433 230.857,242.570 229.557 C 242.708 228.256,243.057 226.394,243.347 225.419 C 243.638 224.443,243.988 222.533,244.126 221.174 C 244.263 219.814,244.633 217.974,244.947 217.085 C 245.260 216.195,245.517 214.819,245.517 214.026 C 245.517 213.234,245.789 211.616,246.121 210.431 C 246.453 209.246,246.887 206.997,247.085 205.434 C 247.284 203.871,247.721 201.781,248.058 200.790 C 248.395 199.798,248.670 198.219,248.670 197.279 C 248.670 196.339,249.025 194.460,249.458 193.103 C 249.892 191.746,250.246 189.868,250.246 188.928 C 250.246 187.988,250.520 186.412,250.856 185.425 C 251.191 184.438,251.626 182.219,251.823 180.493 C 252.019 178.768,252.348 177.042,252.552 176.658 C 252.756 176.275,253.113 174.409,253.344 172.513 C 253.575 170.617,253.930 168.755,254.132 168.375 C 254.335 167.996,254.617 166.443,254.760 164.926 C 254.903 163.409,255.260 161.458,255.552 160.591 C 255.845 159.724,256.193 157.831,256.326 156.384 C 256.459 154.937,256.807 153.163,257.099 152.443 C 257.391 151.722,257.745 149.830,257.885 148.238 C 258.026 146.646,258.324 145.002,258.547 144.584 C 258.771 144.166,259.127 142.302,259.338 140.441 C 259.550 138.580,259.904 136.718,260.126 136.303 C 260.348 135.888,260.703 134.026,260.915 132.165 C 261.126 130.304,261.486 128.432,261.714 128.006 C 261.942 127.580,262.271 125.820,262.445 124.094 C 262.962 118.959,261.139 119.384,282.134 119.503 L 300.099 119.606 300.034 120.788 C 299.885 123.528,299.080 128.468,298.527 130.036 C 298.199 130.965,297.931 132.457,297.931 133.351 C 297.931 134.246,297.576 136.218,297.143 137.734 C 296.709 139.250,296.355 141.112,296.355 141.872 C 296.355 142.632,296.000 144.494,295.567 146.010 C 295.133 147.526,294.776 149.476,294.773 150.344 C 294.770 151.211,294.416 153.045,293.985 154.419 C 293.554 155.793,293.202 157.677,293.202 158.606 C 293.202 159.535,292.940 161.038,292.619 161.947 C 292.299 162.855,291.918 164.784,291.772 166.233 C 291.627 167.682,291.265 169.564,290.968 170.416 C 290.131 172.816,290.096 172.808,301.709 172.808 C 313.376 172.808,312.890 172.932,312.900 169.965 C 312.904 169.051,313.161 167.544,313.473 166.615 C 313.785 165.686,314.154 163.773,314.294 162.365 C 314.434 160.956,314.786 159.005,315.076 158.030 C 315.366 157.054,315.716 155.192,315.853 153.892 C 315.990 152.591,316.343 150.729,316.637 149.754 C 316.931 148.778,317.280 146.916,317.412 145.616 C 317.544 144.315,317.899 142.453,318.200 141.478 C 318.501 140.502,318.845 138.639,318.964 137.336 C 319.083 136.034,319.453 134.194,319.787 133.247 C 320.121 132.301,320.394 130.774,320.394 129.854 C 320.394 128.934,320.749 127.071,321.182 125.714 C 321.616 124.357,321.970 122.516,321.970 121.622 C 321.970 120.729,322.325 118.757,322.759 117.241 C 323.192 115.726,323.547 113.863,323.547 113.103 C 323.547 112.343,323.901 110.481,324.335 108.966 C 324.768 107.450,325.123 105.477,325.123 104.583 C 325.123 103.688,325.364 102.269,325.659 101.429 C 326.351 99.458,326.827 95.603,326.504 94.585 C 326.253 93.796,326.029 93.793,254.348 93.793 L 182.444 93.793 182.059 94.804 M104.078 95.691 C 103.694 96.408,102.378 102.592,101.860 106.112 C 101.373 109.421,98.696 109.163,133.438 109.163 L 164.317 109.163 164.895 108.276 C 165.214 107.788,165.665 106.148,165.899 104.631 C 166.133 103.113,166.605 100.582,166.947 99.007 C 167.442 96.730,167.471 96.021,167.087 95.558 C 166.260 94.562,104.613 94.692,104.078 95.691 M326.007 96.807 C 325.952 97.707,325.642 98.948,325.320 99.566 C 324.971 100.235,324.733 101.767,324.731 103.351 C 324.730 105.256,324.505 106.431,323.941 107.483 C 323.375 108.539,323.153 109.707,323.153 111.621 C 323.153 113.536,322.930 114.704,322.365 115.759 C 321.770 116.868,321.576 117.983,321.576 120.290 C 321.576 121.973,321.407 123.350,321.201 123.350 C 320.623 123.350,320.005 126.051,320.002 128.585 C 320.001 130.004,319.763 131.227,319.373 131.823 C 318.991 132.405,318.659 134.059,318.524 136.045 C 318.403 137.841,318.072 139.666,317.790 140.102 C 317.507 140.537,317.152 142.399,317.001 144.240 C 316.849 146.080,316.503 147.941,316.232 148.374 C 315.961 148.808,315.612 150.670,315.457 152.512 C 315.301 154.355,314.930 156.212,314.631 156.639 C 314.310 157.100,314.083 158.465,314.075 159.989 C 314.066 161.702,313.807 163.088,313.300 164.138 C 312.770 165.236,312.535 166.576,312.526 168.558 C 312.508 172.389,312.933 172.253,301.427 172.125 L 291.892 172.020 291.984 168.882 C 292.045 166.789,292.329 165.189,292.836 164.076 C 293.322 163.009,293.601 161.513,293.609 159.923 C 293.618 158.298,293.886 156.893,294.384 155.862 C 294.892 154.812,295.150 153.426,295.159 151.709 C 295.168 149.932,295.417 148.653,295.961 147.586 C 296.521 146.488,296.749 145.262,296.749 143.351 C 296.749 141.503,296.955 140.348,297.407 139.657 C 297.834 139.005,298.127 137.523,298.241 135.435 C 298.352 133.419,298.630 131.975,298.985 131.569 C 299.344 131.160,299.639 129.601,299.786 127.333 C 299.934 125.047,300.212 123.583,300.551 123.301 C 301.211 122.754,301.254 119.736,300.611 119.094 C 300.257 118.739,295.558 118.621,281.892 118.621 C 260.552 118.621,262.069 118.299,262.069 122.826 C 262.069 124.736,261.888 125.655,261.407 126.187 C 260.928 126.716,260.697 127.873,260.573 130.356 C 260.460 132.636,260.204 134.018,259.814 134.462 C 259.430 134.899,259.155 136.335,259.021 138.600 C 258.895 140.735,258.606 142.312,258.268 142.700 C 257.948 143.067,257.614 144.711,257.467 146.641 C 257.329 148.461,256.991 150.305,256.716 150.739 C 256.441 151.172,256.088 153.034,255.932 154.877 C 255.776 156.719,255.427 158.581,255.157 159.015 C 254.888 159.448,254.544 161.302,254.393 163.135 C 254.242 164.967,253.868 166.825,253.562 167.262 C 253.223 167.746,253.002 169.064,252.996 170.630 C 252.991 172.335,252.725 173.781,252.208 174.920 C 251.692 176.058,251.429 177.489,251.429 179.158 C 251.429 180.925,251.193 182.117,250.640 183.148 C 250.055 184.241,249.852 185.372,249.852 187.549 C 249.852 189.741,249.685 190.664,249.190 191.212 C 248.711 191.741,248.480 192.897,248.357 195.381 C 248.239 197.741,247.992 199.037,247.568 199.519 C 247.146 199.998,246.895 201.303,246.774 203.657 C 246.677 205.547,246.423 207.205,246.210 207.341 C 245.710 207.661,245.162 210.515,245.140 212.920 C 245.131 213.957,244.865 215.200,244.549 215.682 C 244.234 216.164,243.851 218.064,243.700 219.905 C 243.549 221.745,243.206 223.606,242.938 224.039 C 242.669 224.473,242.327 226.327,242.176 228.159 C 242.026 229.992,241.652 231.849,241.345 232.287 C 241.008 232.768,240.783 234.096,240.775 235.654 C 240.766 237.367,240.507 238.754,240.000 239.803 C 239.485 240.870,239.234 242.240,239.225 244.041 C 239.216 245.929,238.983 247.129,238.424 248.173 C 237.849 249.245,237.635 250.396,237.635 252.419 C 237.635 254.394,237.442 255.470,236.965 256.152 C 236.498 256.817,236.244 258.165,236.128 260.574 C 236.037 262.480,235.815 264.039,235.635 264.039 C 235.098 264.039,234.488 266.830,234.472 269.360 C 234.463 270.808,234.233 272.021,233.879 272.489 C 232.875 273.816,233.123 276.208,234.311 276.660 C 234.876 276.875,239.937 277.044,245.775 277.044 L 256.228 277.044 255.941 280.491 C 255.783 282.387,255.432 284.294,255.161 284.728 C 254.889 285.162,254.543 287.025,254.392 288.867 C 254.241 290.709,253.911 292.466,253.660 292.770 C 253.408 293.074,253.103 294.798,252.982 296.602 C 252.862 298.405,252.625 300.018,252.457 300.187 C 252.289 300.355,236.080 300.493,216.438 300.493 L 180.726 300.493 180.839 298.360 C 180.901 297.187,181.183 295.857,181.464 295.404 C 181.746 294.952,182.094 293.080,182.236 291.245 C 182.379 289.410,182.696 287.784,182.940 287.633 C 183.185 287.482,183.507 285.792,183.657 283.876 C 183.812 281.895,184.207 279.885,184.573 279.212 C 184.927 278.562,185.218 277.808,185.219 277.537 C 185.221 277.156,187.529 277.044,195.438 277.044 L 205.654 277.044 206.866 276.024 C 207.988 275.080,208.079 274.815,208.079 272.476 C 208.079 270.701,208.314 269.510,208.867 268.477 C 209.433 267.422,209.655 266.254,209.655 264.339 C 209.655 262.425,209.878 261.257,210.443 260.201 C 211.029 259.109,211.232 257.978,211.232 255.800 C 211.232 253.609,211.398 252.685,211.894 252.138 C 212.371 251.611,212.606 250.446,212.733 247.969 C 212.830 246.079,213.077 244.425,213.281 244.294 C 213.826 243.946,214.364 241.292,214.375 238.902 C 214.380 237.718,214.643 236.425,214.983 235.905 C 215.330 235.377,215.684 233.595,215.824 231.683 C 215.957 229.863,216.291 228.108,216.566 227.783 C 216.841 227.458,217.197 225.604,217.355 223.662 C 217.514 221.721,217.860 219.916,218.124 219.652 C 218.388 219.388,218.698 217.666,218.813 215.826 C 218.947 213.675,219.249 212.156,219.659 211.571 C 220.094 210.949,220.300 209.787,220.309 207.893 C 220.318 205.985,220.559 204.633,221.084 203.547 C 221.591 202.496,221.850 201.111,221.859 199.394 C 221.868 197.616,222.116 196.337,222.660 195.271 C 223.225 194.164,223.448 192.947,223.448 190.982 C 223.448 188.966,223.624 188.045,224.111 187.507 C 224.589 186.979,224.820 185.822,224.944 183.339 C 225.057 181.059,225.313 179.676,225.703 179.233 C 226.086 178.797,226.365 177.351,226.503 175.095 C 226.619 173.187,226.886 171.514,227.096 171.378 C 227.593 171.055,228.135 168.206,228.173 165.714 C 228.189 164.631,228.448 163.420,228.748 163.024 C 229.048 162.628,229.422 160.766,229.579 158.887 C 229.735 157.008,230.084 155.115,230.353 154.681 C 230.622 154.247,230.947 152.421,231.075 150.624 C 231.214 148.678,231.551 147.010,231.910 146.497 C 232.319 145.913,232.512 144.697,232.512 142.702 C 232.512 140.488,232.678 139.584,233.185 139.023 C 233.659 138.499,233.929 137.269,234.099 134.854 C 234.244 132.796,234.603 130.957,235.000 130.246 C 235.456 129.430,235.661 128.133,235.663 126.058 C 235.664 123.869,235.826 122.919,236.256 122.562 C 237.131 121.836,237.019 119.529,236.085 119.029 C 234.819 118.351,199.754 118.479,198.816 119.164 C 198.249 119.579,198.033 120.347,197.904 122.415 C 197.811 123.905,197.559 125.235,197.345 125.371 C 196.842 125.691,196.299 128.527,196.261 131.034 C 196.244 132.118,195.986 133.329,195.685 133.725 C 195.385 134.121,195.012 135.983,194.855 137.862 C 194.698 139.741,194.350 141.634,194.081 142.068 C 193.811 142.502,193.486 144.202,193.358 145.846 C 193.230 147.490,192.855 149.352,192.525 149.984 C 192.163 150.679,191.925 152.184,191.924 153.795 C 191.922 155.700,191.697 156.874,191.133 157.927 C 190.589 158.941,190.345 160.150,190.345 161.823 C 190.345 163.398,190.071 164.851,189.565 165.967 C 189.083 167.030,188.782 168.551,188.777 169.957 L 188.768 172.230 178.621 172.125 L 168.473 172.020 168.616 169.080 C 168.695 167.464,168.985 165.779,169.260 165.336 C 169.535 164.894,169.877 163.031,170.020 161.195 C 170.162 159.360,170.484 157.732,170.735 157.577 C 170.991 157.419,171.299 155.770,171.436 153.820 C 171.583 151.719,171.941 149.877,172.340 149.163 C 172.775 148.384,173.001 147.071,173.002 145.319 C 173.004 143.414,173.229 142.239,173.793 141.187 C 174.352 140.145,174.581 138.963,174.581 137.133 C 174.581 135.329,174.819 134.085,175.369 133.005 C 175.934 131.898,176.158 130.681,176.158 128.716 C 176.158 126.750,176.337 125.775,176.791 125.273 C 177.229 124.790,177.490 123.500,177.636 121.104 C 177.752 119.197,178.019 117.524,178.229 117.388 C 178.726 117.065,179.268 114.215,179.306 111.724 C 179.322 110.640,179.581 109.430,179.881 109.034 C 180.181 108.638,180.554 106.776,180.708 104.896 C 180.863 103.016,181.233 101.128,181.529 100.700 C 181.826 100.273,182.071 99.209,182.074 98.336 C 182.077 97.463,182.187 96.349,182.318 95.861 L 182.556 94.973 254.332 95.073 L 326.108 95.172 326.007 96.807 M166.045 96.726 C 166.327 97.460,166.019 99.776,165.308 102.266 C 164.998 103.350,164.642 105.079,164.516 106.108 L 164.287 107.980 133.638 107.980 C 116.781 107.980,102.907 107.899,102.808 107.800 C 102.529 107.521,103.097 103.195,103.587 101.872 C 103.828 101.222,104.129 99.670,104.257 98.424 L 104.490 96.158 135.159 96.158 C 161.511 96.158,165.858 96.238,166.045 96.726 M91.268 158.151 C 90.286 158.869,88.071 170.027,88.652 171.330 L 89.047 172.217 119.696 172.208 C 148.146 172.200,150.404 172.150,151.170 171.518 C 152.098 170.753,153.738 163.614,153.836 159.915 L 153.892 157.833 122.936 157.732 C 97.792 157.650,91.846 157.728,91.268 158.151 M152.678 159.161 C 153.036 159.740,152.090 166.373,151.322 168.670 L 150.598 170.837 120.016 170.938 C 86.088 171.050,88.263 171.225,89.568 168.490 C 89.906 167.781,90.309 165.751,90.464 163.981 C 90.662 161.713,90.970 160.475,91.509 159.790 L 92.274 158.818 122.370 158.818 C 139.045 158.818,152.560 158.971,152.678 159.161 M79.269 221.113 C 78.483 221.957,76.235 232.469,76.522 233.959 C 76.656 234.653,78.935 234.684,138.005 234.780 L 199.350 234.879 200.167 233.840 C 200.617 233.268,200.989 232.336,200.994 231.770 C 200.998 231.203,201.353 229.152,201.782 227.212 C 202.742 222.870,202.789 220.861,201.938 220.535 C 201.595 220.403,174.026 220.296,140.673 220.296 L 80.031 220.296 79.269 221.113 M201.253 222.112 C 201.517 222.800,200.921 227.411,200.239 229.951 C 200.006 230.818,199.721 232.015,199.605 232.611 L 199.394 233.695 139.204 233.689 C 77.700 233.684,76.984 233.671,77.483 232.559 C 77.640 232.208,77.937 230.502,78.142 228.768 C 78.348 227.034,78.761 225.057,79.061 224.374 C 79.361 223.691,79.606 222.878,79.606 222.568 C 79.606 222.257,79.724 221.885,79.869 221.741 C 80.526 221.083,201.000 221.452,201.253 222.112 M67.467 288.570 C 67.036 289.418,65.784 295.315,65.220 299.148 C 64.717 302.566,59.895 302.266,115.270 302.266 L 164.278 302.266 165.095 301.228 C 165.544 300.657,165.911 299.768,165.911 299.253 C 165.911 298.738,166.274 296.687,166.718 294.694 C 167.162 292.702,167.472 290.354,167.408 289.477 L 167.291 287.882 117.604 287.782 L 67.918 287.682 67.467 288.570 M165.998 289.076 C 166.741 289.361,166.086 294.194,164.491 300.197 C 164.387 300.588,154.212 300.690,115.283 300.690 L 66.207 300.690 66.207 298.733 C 66.207 297.656,66.464 296.193,66.779 295.481 C 67.093 294.770,67.462 292.990,67.598 291.527 L 67.846 288.867 116.649 288.867 C 143.491 288.867,165.698 288.961,165.998 289.076 " stroke="none" fill="#353535" fill-rule="evenodd"></path><path id="path2" d="M24.828 1.444 C 24.286 1.530,22.601 1.982,21.084 2.448 C 18.623 3.202,17.577 3.742,14.370 5.911 C 13.889 6.236,12.986 6.827,12.364 7.223 C 11.741 7.620,10.613 8.861,9.857 9.982 C 9.101 11.103,8.383 12.108,8.263 12.217 C 7.631 12.784,6.205 15.724,5.327 18.270 L 4.332 21.153 4.432 198.064 C 4.527 365.493,4.569 375.039,5.219 376.158 C 5.597 376.808,5.908 377.704,5.909 378.150 C 5.910 378.596,6.310 379.510,6.798 380.182 C 7.746 381.489,8.011 381.876,9.845 384.631 C 10.494 385.606,11.656 386.847,12.425 387.389 C 13.195 387.931,14.625 388.966,15.602 389.688 C 16.580 390.411,17.858 391.155,18.443 391.341 C 19.029 391.527,20.217 391.948,21.084 392.276 C 22.920 392.970,375.660 393.221,378.325 392.530 C 380.318 392.013,383.209 390.921,383.444 390.596 C 383.555 390.443,384.621 389.674,385.813 388.888 C 388.828 386.900,389.716 385.967,392.400 381.964 C 393.329 380.579,394.090 379.238,394.091 378.984 C 394.092 378.730,394.403 377.990,394.781 377.340 C 395.431 376.221,395.474 366.611,395.573 198.030 L 395.677 19.901 394.829 17.537 C 394.110 15.535,392.467 12.523,391.711 11.823 C 391.594 11.714,390.930 10.756,390.236 9.693 C 389.542 8.630,388.396 7.395,387.689 6.949 C 385.891 5.813,385.364 5.471,383.493 4.224 C 382.589 3.622,381.278 3.020,380.580 2.887 C 379.882 2.755,378.778 2.361,378.128 2.013 C 377.023 1.421,28.486 0.859,24.828 1.444 M377.834 2.688 C 382.197 3.916,387.390 7.023,389.405 9.612 C 391.117 11.811,393.695 15.830,393.695 16.301 C 393.695 16.562,394.049 17.785,394.483 19.019 C 395.266 21.248,395.271 22.271,395.271 197.165 L 395.271 373.069 394.467 375.796 C 393.525 378.986,393.322 379.387,390.800 383.027 C 388.880 385.799,388.442 386.220,384.828 388.765 C 382.596 390.336,382.265 390.494,378.719 391.666 L 376.158 392.512 200.149 392.512 L 24.140 392.512 21.036 391.499 C 19.328 390.942,17.651 390.232,17.309 389.923 C 16.967 389.613,16.488 389.360,16.245 389.360 C 16.002 389.360,15.661 389.131,15.488 388.852 C 15.314 388.573,14.317 387.786,13.272 387.104 C 9.682 384.762,6.199 378.503,5.097 372.414 C 4.666 370.034,4.694 24.777,5.125 22.266 C 5.698 18.931,6.551 16.441,7.827 14.384 C 8.500 13.300,9.212 12.059,9.410 11.626 C 9.839 10.688,12.480 7.890,13.596 7.191 C 14.030 6.920,15.454 6.009,16.761 5.167 C 19.139 3.636,22.500 2.497,26.207 1.966 C 27.291 1.811,106.118 1.704,201.379 1.729 L 374.581 1.773 377.834 2.688 M26.404 16.830 C 24.789 17.095,22.352 19.014,20.985 21.095 L 19.704 23.045 19.704 197.167 L 19.704 371.288 20.708 373.001 C 21.260 373.943,22.487 375.349,23.435 376.125 L 25.157 377.537 200.025 377.537 L 374.893 377.537 376.547 376.490 C 377.457 375.914,378.673 374.699,379.249 373.789 L 380.296 372.134 380.296 197.178 L 380.296 22.222 379.409 21.028 C 378.199 19.398,377.600 18.855,375.764 17.722 L 374.187 16.749 200.788 16.708 C 105.419 16.686,26.946 16.741,26.404 16.830 M374.594 17.931 C 376.801 19.026,378.008 20.057,379.028 21.721 L 379.901 23.147 379.901 197.367 L 379.901 371.586 378.690 373.381 C 378.024 374.368,377.093 375.379,376.621 375.627 C 376.149 375.875,375.637 376.274,375.482 376.512 C 375.192 376.960,28.704 377.403,26.207 376.959 C 24.625 376.677,22.039 374.217,20.966 371.973 L 20.095 370.153 20.195 196.801 C 20.295 24.264,20.299 23.442,21.084 22.067 C 22.565 19.470,25.283 17.614,28.177 17.221 C 33.466 16.504,373.119 17.200,374.594 17.931 M182.212 93.307 C 181.652 93.669,180.605 97.455,180.061 101.084 C 179.834 102.601,179.401 104.818,179.099 106.010 C 178.797 107.202,178.438 109.241,178.299 110.542 C 178.161 111.842,177.881 113.220,177.676 113.604 C 177.471 113.988,177.143 115.714,176.946 117.439 C 176.749 119.165,176.314 121.384,175.979 122.371 C 175.644 123.358,175.369 124.934,175.369 125.874 C 175.369 126.813,175.015 128.692,174.581 130.049 C 174.148 131.406,173.793 133.268,173.793 134.187 C 173.793 135.106,173.438 136.968,173.005 138.325 C 172.571 139.682,172.217 141.545,172.217 142.465 C 172.217 143.385,171.944 144.912,171.610 145.858 C 171.276 146.804,170.905 148.644,170.786 149.947 C 170.667 151.250,170.323 153.113,170.022 154.089 C 169.721 155.064,169.367 156.926,169.235 158.227 C 169.102 159.527,168.751 161.389,168.455 162.365 C 168.158 163.340,167.793 165.291,167.644 166.700 C 167.495 168.108,167.147 169.907,166.871 170.697 C 165.806 173.748,165.969 173.793,178.159 173.793 L 188.785 173.793 189.144 172.906 C 190.119 170.500,191.135 166.373,191.150 164.761 C 191.160 163.768,191.429 162.246,191.748 161.379 C 192.067 160.512,192.430 158.650,192.553 157.241 C 192.676 155.833,193.022 154.027,193.321 153.228 C 193.620 152.430,193.974 150.568,194.108 149.090 C 194.242 147.613,194.589 145.770,194.879 144.995 C 195.169 144.220,195.536 142.270,195.695 140.662 C 195.853 139.054,196.202 137.205,196.470 136.554 C 196.738 135.902,197.086 134.039,197.243 132.414 C 197.400 130.788,197.712 129.111,197.935 128.686 C 198.159 128.262,198.486 126.488,198.661 124.745 C 199.157 119.807,197.608 120.170,217.684 120.291 L 234.680 120.394 234.800 122.742 C 234.877 124.227,234.686 125.705,234.283 126.761 C 233.932 127.679,233.505 129.822,233.334 131.523 C 233.162 133.223,232.817 134.997,232.567 135.465 C 232.316 135.933,231.961 137.796,231.778 139.604 C 231.594 141.413,231.244 143.266,230.999 143.724 C 230.755 144.181,230.440 145.858,230.299 147.450 C 230.159 149.042,229.813 150.916,229.530 151.614 C 229.247 152.312,228.893 154.174,228.744 155.752 C 228.595 157.330,228.254 159.160,227.986 159.818 C 227.718 160.477,227.372 162.251,227.216 163.759 C 227.061 165.268,226.682 167.262,226.373 168.191 C 226.065 169.120,225.805 170.716,225.796 171.738 C 225.786 172.760,225.516 174.305,225.195 175.172 C 224.875 176.039,224.447 178.120,224.246 179.796 C 224.044 181.472,223.604 183.650,223.269 184.637 C 222.934 185.624,222.660 187.200,222.660 188.140 C 222.660 189.079,222.305 190.958,221.872 192.315 C 221.438 193.672,221.076 195.602,221.066 196.603 C 221.057 197.604,220.788 199.133,220.469 200.000 C 220.149 200.867,219.787 202.729,219.664 204.138 C 219.541 205.547,219.195 207.353,218.896 208.151 C 218.597 208.950,218.243 210.812,218.109 212.289 C 217.975 213.767,217.633 215.597,217.349 216.357 C 217.065 217.117,216.710 218.979,216.561 220.495 C 216.412 222.011,216.051 223.961,215.758 224.828 C 215.465 225.695,215.122 227.588,214.994 229.035 C 214.867 230.482,214.523 232.256,214.231 232.976 C 213.939 233.696,213.589 235.547,213.453 237.089 C 213.317 238.631,212.939 240.532,212.613 241.313 C 212.287 242.094,212.020 243.603,212.020 244.665 C 212.020 245.728,211.665 247.707,211.232 249.064 C 210.798 250.421,210.443 252.312,210.443 253.266 C 210.443 254.220,210.171 255.652,209.838 256.449 C 209.506 257.245,209.088 259.331,208.910 261.084 C 208.733 262.837,208.383 264.654,208.132 265.122 C 207.882 265.589,207.528 267.446,207.345 269.247 C 207.163 271.048,206.717 273.097,206.354 273.798 L 205.694 275.074 195.532 275.074 L 185.369 275.074 184.312 276.177 C 183.468 277.058,183.209 277.791,183.021 279.822 C 182.892 281.220,182.540 283.163,182.239 284.138 C 181.938 285.113,181.583 286.975,181.451 288.276 C 181.319 289.576,180.972 291.438,180.679 292.414 C 179.720 295.616,179.149 301.528,179.763 301.916 C 180.056 302.102,196.556 302.257,216.431 302.260 L 252.566 302.266 253.180 301.390 C 253.517 300.908,253.793 299.839,253.793 299.013 C 253.793 298.187,254.056 296.884,254.376 296.116 C 254.697 295.348,255.064 293.536,255.191 292.089 C 255.319 290.642,255.664 288.749,255.958 287.882 C 256.253 287.015,256.611 285.153,256.755 283.744 C 256.899 282.335,257.304 280.350,257.656 279.334 C 258.132 277.960,258.197 277.201,257.908 276.378 L 257.519 275.271 246.493 275.074 L 235.468 274.877 235.514 271.847 C 235.541 270.068,235.826 268.153,236.204 267.208 C 236.558 266.324,236.847 264.740,236.847 263.689 C 236.847 262.638,237.202 260.667,237.635 259.310 C 238.069 257.953,238.424 256.063,238.424 255.108 C 238.424 254.154,238.696 252.722,239.029 251.926 C 239.361 251.130,239.779 249.044,239.957 247.290 C 240.134 245.537,240.480 243.729,240.725 243.271 C 240.970 242.814,241.288 241.137,241.432 239.545 C 241.577 237.953,241.925 235.989,242.206 235.181 C 242.487 234.373,242.830 232.600,242.968 231.240 C 243.106 229.881,243.460 227.970,243.755 226.995 C 244.050 226.020,244.404 224.158,244.541 222.857 C 244.678 221.557,245.032 219.695,245.328 218.719 C 245.624 217.744,245.987 215.704,246.135 214.187 C 246.282 212.670,246.584 211.082,246.805 210.658 C 247.027 210.234,247.360 208.390,247.545 206.560 C 247.731 204.730,248.069 203.008,248.297 202.733 C 248.525 202.458,248.874 200.756,249.073 198.949 C 249.271 197.143,249.698 194.956,250.020 194.089 C 250.342 193.222,250.614 191.576,250.623 190.431 C 250.633 189.286,250.913 187.698,251.245 186.901 C 251.578 186.105,251.996 184.019,252.173 182.266 C 252.351 180.513,252.697 178.704,252.941 178.247 C 253.186 177.789,253.501 176.112,253.642 174.520 C 253.782 172.928,254.141 171.025,254.438 170.291 C 254.736 169.558,255.091 167.696,255.227 166.153 C 255.362 164.611,255.695 162.802,255.966 162.132 C 256.237 161.462,256.589 159.616,256.749 158.030 C 256.908 156.443,257.260 154.597,257.531 153.927 C 257.802 153.258,258.139 151.407,258.279 149.815 C 258.420 148.223,258.717 146.579,258.941 146.161 C 259.164 145.744,259.508 143.991,259.705 142.265 C 259.901 140.540,260.337 138.320,260.672 137.333 C 261.007 136.346,261.289 134.703,261.298 133.681 C 261.308 132.659,261.579 131.113,261.901 130.246 C 262.224 129.379,262.651 127.183,262.850 125.366 C 263.131 122.815,263.414 121.848,264.093 121.125 L 264.973 120.189 281.944 120.291 L 298.916 120.394 298.859 123.791 C 298.828 125.659,298.580 127.602,298.309 128.109 C 298.037 128.616,297.678 130.392,297.511 132.055 C 297.343 133.719,296.926 135.905,296.583 136.913 C 296.241 137.922,295.961 139.515,295.961 140.455 C 295.961 141.395,295.606 143.274,295.172 144.631 C 294.739 145.988,294.384 147.866,294.384 148.806 C 294.384 149.746,294.109 151.326,293.772 152.317 C 293.436 153.308,292.998 155.398,292.799 156.961 C 292.601 158.524,292.167 160.773,291.835 161.958 C 291.503 163.143,291.232 164.850,291.232 165.752 C 291.232 166.654,290.966 168.028,290.640 168.806 C 289.995 170.350,289.873 172.512,290.386 173.319 C 290.641 173.722,292.979 173.805,301.446 173.713 C 313.438 173.582,313.300 173.617,313.300 170.749 C 313.300 170.025,313.567 168.794,313.894 168.013 C 314.220 167.232,314.602 165.331,314.741 163.789 C 314.881 162.247,315.226 160.324,315.507 159.516 C 315.788 158.708,316.131 156.935,316.269 155.575 C 316.406 154.216,316.763 152.305,317.061 151.330 C 317.359 150.355,317.714 148.404,317.851 146.995 C 317.988 145.586,318.338 143.724,318.629 142.857 C 318.920 141.990,319.266 140.058,319.399 138.563 C 319.531 137.069,319.835 135.480,320.075 135.033 C 320.314 134.586,320.647 132.859,320.815 131.196 C 320.982 129.533,321.400 127.347,321.742 126.338 C 322.084 125.330,322.365 123.736,322.365 122.796 C 322.365 121.857,322.719 119.978,323.153 118.621 C 323.586 117.264,323.941 115.401,323.941 114.481 C 323.941 113.561,324.214 112.034,324.548 111.088 C 324.882 110.141,325.252 108.301,325.371 106.999 C 325.490 105.696,325.847 103.803,326.165 102.791 C 327.208 99.464,327.583 94.075,326.813 93.498 C 326.076 92.946,183.062 92.757,182.212 93.307 M103.840 94.744 C 103.317 95.268,102.801 96.110,102.694 96.616 C 100.829 105.421,100.443 108.437,101.062 109.381 L 101.693 110.345 133.033 110.345 L 164.373 110.345 165.288 109.357 C 165.934 108.660,166.283 107.675,166.470 106.016 C 166.617 104.722,166.980 102.817,167.276 101.782 C 167.573 100.748,167.934 98.820,168.078 97.498 C 168.520 93.435,171.633 93.793,135.915 93.793 L 104.792 93.793 103.840 94.744 M326.504 94.585 C 326.827 95.603,326.351 99.458,325.659 101.429 C 325.364 102.269,325.123 103.688,325.123 104.583 C 325.123 105.477,324.768 107.450,324.335 108.966 C 323.901 110.481,323.547 112.343,323.547 113.103 C 323.547 113.863,323.192 115.726,322.759 117.241 C 322.325 118.757,321.970 120.729,321.970 121.622 C 321.970 122.516,321.616 124.357,321.182 125.714 C 320.749 127.071,320.394 128.934,320.394 129.854 C 320.394 130.774,320.121 132.301,319.787 133.247 C 319.453 134.194,319.083 136.034,318.964 137.336 C 318.845 138.639,318.501 140.502,318.200 141.478 C 317.899 142.453,317.544 144.315,317.412 145.616 C 317.280 146.916,316.931 148.778,316.637 149.754 C 316.343 150.729,315.990 152.591,315.853 153.892 C 315.716 155.192,315.366 157.054,315.076 158.030 C 314.786 159.005,314.434 160.956,314.294 162.365 C 314.154 163.773,313.785 165.686,313.473 166.615 C 313.161 167.544,312.904 169.051,312.900 169.965 C 312.890 172.932,313.376 172.808,301.709 172.808 C 290.096 172.808,290.131 172.816,290.968 170.416 C 291.265 169.564,291.627 167.682,291.772 166.233 C 291.918 164.784,292.299 162.855,292.619 161.947 C 292.940 161.038,293.202 159.535,293.202 158.606 C 293.202 157.677,293.554 155.793,293.985 154.419 C 294.416 153.045,294.770 151.211,294.773 150.344 C 294.776 149.476,295.133 147.526,295.567 146.010 C 296.000 144.494,296.355 142.632,296.355 141.872 C 296.355 141.112,296.709 139.250,297.143 137.734 C 297.576 136.218,297.931 134.246,297.931 133.351 C 297.931 132.457,298.199 130.965,298.527 130.036 C 299.080 128.468,299.885 123.528,300.034 120.788 L 300.099 119.606 282.134 119.503 C 261.139 119.384,262.962 118.959,262.445 124.094 C 262.271 125.820,261.942 127.580,261.714 128.006 C 261.486 128.432,261.126 130.304,260.915 132.165 C 260.703 134.026,260.348 135.888,260.126 136.303 C 259.904 136.718,259.550 138.580,259.338 140.441 C 259.127 142.302,258.771 144.166,258.547 144.584 C 258.324 145.002,258.026 146.646,257.885 148.238 C 257.745 149.830,257.391 151.722,257.099 152.443 C 256.807 153.163,256.459 154.937,256.326 156.384 C 256.193 157.831,255.845 159.724,255.552 160.591 C 255.260 161.458,254.903 163.409,254.760 164.926 C 254.617 166.443,254.335 167.996,254.132 168.375 C 253.930 168.755,253.575 170.617,253.344 172.513 C 253.113 174.409,252.756 176.275,252.552 176.658 C 252.348 177.042,252.019 178.768,251.823 180.493 C 251.626 182.219,251.191 184.438,250.856 185.425 C 250.520 186.412,250.246 187.988,250.246 188.928 C 250.246 189.868,249.892 191.746,249.458 193.103 C 249.025 194.460,248.670 196.339,248.670 197.279 C 248.670 198.219,248.395 199.798,248.058 200.790 C 247.721 201.781,247.284 203.871,247.085 205.434 C 246.887 206.997,246.453 209.246,246.121 210.431 C 245.789 211.616,245.517 213.234,245.517 214.026 C 245.517 214.819,245.260 216.195,244.947 217.085 C 244.633 217.974,244.263 219.814,244.126 221.174 C 243.988 222.533,243.638 224.443,243.347 225.419 C 243.057 226.394,242.708 228.256,242.570 229.557 C 242.433 230.857,242.081 232.719,241.787 233.695 C 241.493 234.670,241.155 236.664,241.035 238.126 C 240.916 239.588,240.608 241.176,240.351 241.656 C 240.094 242.136,239.747 243.890,239.579 245.553 C 239.412 247.216,238.994 249.402,238.652 250.411 C 238.310 251.419,238.030 252.904,238.030 253.710 C 238.030 254.516,237.675 256.415,237.241 257.931 C 236.808 259.447,236.453 261.419,236.453 262.314 C 236.453 263.208,236.185 264.700,235.857 265.629 C 234.903 268.334,234.100 275.216,234.672 275.789 C 234.820 275.938,239.936 276.148,246.042 276.256 L 257.143 276.453 257.054 277.438 C 256.834 279.885,256.068 284.460,255.669 285.714 C 255.428 286.473,255.007 288.601,254.734 290.443 C 254.462 292.286,254.051 294.680,253.821 295.764 C 253.592 296.847,253.305 298.407,253.183 299.230 C 253.017 300.357,252.719 300.818,251.973 301.102 C 250.187 301.781,181.079 301.593,180.510 300.908 C 179.960 300.245,180.250 296.774,181.088 293.990 C 181.381 293.015,181.744 291.068,181.894 289.664 C 182.044 288.260,182.411 286.420,182.709 285.575 C 183.007 284.730,183.252 283.307,183.253 282.414 C 183.256 280.357,183.936 277.840,184.731 276.946 C 185.284 276.324,186.312 276.256,195.244 276.256 C 207.548 276.256,207.255 276.401,207.842 270.031 C 207.968 268.666,208.258 267.200,208.487 266.772 C 208.716 266.344,209.064 264.582,209.261 262.856 C 209.458 261.131,209.893 258.911,210.228 257.924 C 210.563 256.938,210.837 255.361,210.837 254.422 C 210.837 253.482,211.192 251.603,211.626 250.246 C 212.059 248.889,212.414 247.026,212.414 246.107 C 212.414 245.187,212.682 243.674,213.010 242.745 C 213.337 241.817,213.762 239.711,213.953 238.065 C 214.144 236.420,214.491 234.588,214.725 233.995 C 214.958 233.401,215.270 231.716,215.417 230.251 C 215.564 228.785,215.914 226.925,216.196 226.117 C 216.477 225.309,216.820 223.536,216.958 222.176 C 217.096 220.817,217.445 218.906,217.734 217.931 C 218.023 216.956,218.372 215.045,218.510 213.686 C 218.648 212.326,218.991 210.553,219.272 209.745 C 219.554 208.937,219.903 207.091,220.048 205.642 C 220.193 204.193,220.574 202.264,220.895 201.356 C 221.216 200.447,221.478 198.934,221.478 197.994 C 221.478 197.053,221.752 195.476,222.087 194.489 C 222.422 193.502,222.857 191.283,223.054 189.557 C 223.251 187.832,223.593 186.081,223.815 185.667 C 224.037 185.252,224.391 183.391,224.603 181.530 C 224.814 179.669,225.169 177.807,225.391 177.392 C 225.613 176.977,225.968 175.115,226.179 173.254 C 226.390 171.393,226.742 169.537,226.959 169.131 C 227.177 168.724,227.467 167.168,227.602 165.673 C 227.738 164.179,228.086 162.321,228.377 161.546 C 228.667 160.771,229.034 158.821,229.192 157.213 C 229.351 155.605,229.700 153.757,229.968 153.105 C 230.236 152.454,230.584 150.591,230.741 148.966 C 230.898 147.340,231.192 145.695,231.394 145.311 C 231.596 144.927,231.935 143.090,232.146 141.229 C 232.358 139.368,232.712 137.506,232.934 137.092 C 233.155 136.678,233.498 134.927,233.695 133.201 C 233.891 131.476,234.308 129.307,234.621 128.382 C 234.933 127.456,235.252 125.103,235.329 123.153 L 235.468 119.606 217.700 119.503 C 197.112 119.385,198.753 119.037,198.226 123.626 C 198.057 125.100,197.732 126.777,197.505 127.352 C 197.278 127.928,196.978 129.524,196.838 130.899 C 196.699 132.274,196.341 134.197,196.043 135.172 C 195.745 136.148,195.379 138.099,195.230 139.507 C 195.081 140.916,194.736 142.709,194.463 143.490 C 194.190 144.272,193.836 146.134,193.678 147.628 C 193.519 149.122,193.147 151.032,192.852 151.872 C 192.557 152.712,192.315 154.048,192.315 154.841 C 192.315 155.633,192.044 157.251,191.712 158.436 C 191.380 159.621,190.940 161.920,190.735 163.543 C 190.530 165.167,190.170 166.959,189.935 167.527 C 189.700 168.094,189.384 169.418,189.234 170.469 C 188.878 172.955,189.047 172.917,177.908 172.966 C 166.693 173.014,167.334 173.320,168.060 168.276 C 168.356 166.217,168.768 164.089,168.976 163.547 C 169.184 163.005,169.483 161.339,169.640 159.845 C 169.798 158.351,170.176 156.422,170.481 155.559 C 170.785 154.696,171.034 153.230,171.034 152.301 C 171.034 151.372,171.387 149.488,171.818 148.114 C 172.248 146.740,172.603 144.983,172.606 144.210 C 172.609 143.437,172.961 141.486,173.390 139.875 C 173.818 138.264,174.173 136.287,174.178 135.482 C 174.183 134.677,174.461 133.210,174.796 132.223 C 175.131 131.236,175.567 129.017,175.763 127.291 C 175.960 125.566,176.303 123.815,176.524 123.401 C 176.746 122.986,177.101 121.125,177.312 119.264 C 177.524 117.403,177.869 115.557,178.081 115.162 C 178.292 114.767,178.581 113.300,178.724 111.902 C 178.866 110.504,179.226 108.562,179.524 107.586 C 179.822 106.611,180.187 104.660,180.336 103.251 C 180.485 101.842,180.848 100.002,181.141 99.162 C 181.435 98.322,181.675 97.225,181.675 96.725 C 181.675 96.224,181.848 95.360,182.059 94.804 L 182.444 93.793 254.348 93.793 C 326.029 93.793,326.253 93.796,326.504 94.585 M167.087 95.558 C 167.471 96.021,167.442 96.730,166.947 99.007 C 166.605 100.582,166.133 103.113,165.899 104.631 C 165.665 106.148,165.214 107.788,164.895 108.276 L 164.317 109.163 133.438 109.163 C 98.696 109.163,101.373 109.421,101.860 106.112 C 102.378 102.592,103.694 96.408,104.078 95.691 C 104.613 94.692,166.260 94.562,167.087 95.558 M91.196 156.836 C 90.155 157.257,89.644 158.553,88.863 162.759 C 88.521 164.601,88.072 166.852,87.865 167.761 C 87.251 170.453,87.385 172.134,88.250 172.597 C 89.447 173.238,150.982 173.156,151.825 172.512 C 152.454 172.032,153.799 167.121,154.280 163.547 C 154.412 162.571,154.714 160.900,154.951 159.832 C 155.760 156.193,158.218 156.449,122.813 156.478 C 105.877 156.492,91.649 156.653,91.196 156.836 M153.836 159.915 C 153.738 163.614,152.098 170.753,151.170 171.518 C 150.404 172.150,148.146 172.200,119.696 172.208 L 89.047 172.217 88.652 171.330 C 88.071 170.027,90.286 158.869,91.268 158.151 C 91.846 157.728,97.792 157.650,122.936 157.732 L 153.892 157.833 153.836 159.915 M79.338 219.579 C 77.504 220.472,74.743 233.489,76.054 235.067 C 76.875 236.057,199.363 235.966,200.522 234.975 C 201.863 233.829,204.038 221.242,203.114 219.978 C 202.519 219.165,80.995 218.773,79.338 219.579 M201.938 220.535 C 202.789 220.861,202.742 222.870,201.782 227.212 C 201.353 229.152,200.998 231.203,200.994 231.770 C 200.989 232.336,200.617 233.268,200.167 233.840 L 199.350 234.879 138.005 234.780 C 78.935 234.684,76.656 234.653,76.522 233.959 C 76.235 232.469,78.483 221.957,79.269 221.113 L 80.031 220.296 140.673 220.296 C 174.026 220.296,201.595 220.403,201.938 220.535 M67.798 287.005 C 65.853 287.989,63.249 301.121,64.709 302.581 C 65.586 303.458,164.430 303.245,165.408 302.365 C 166.174 301.675,167.257 297.364,168.297 290.861 C 169.075 285.998,174.911 286.502,117.887 286.508 C 79.465 286.513,68.557 286.621,67.798 287.005 M167.408 289.477 C 167.472 290.354,167.162 292.702,166.718 294.694 C 166.274 296.687,165.911 298.738,165.911 299.253 C 165.911 299.768,165.544 300.657,165.095 301.228 L 164.278 302.266 115.270 302.266 C 59.895 302.266,64.717 302.566,65.220 299.148 C 65.784 295.315,67.036 289.418,67.467 288.570 L 67.918 287.682 117.604 287.782 L 167.291 287.882 167.408 289.477 " stroke="none" fill="#888888" fill-rule="evenodd"></path><path id="path3" d="M22.143 1.069 C 21.642 1.165,21.136 1.496,21.017 1.804 C 20.892 2.130,20.265 2.365,19.518 2.365 C 18.812 2.365,17.783 2.719,17.232 3.153 C 16.681 3.586,16.038 3.941,15.803 3.941 C 15.568 3.941,15.155 4.296,14.884 4.729 C 14.613 5.163,14.107 5.517,13.759 5.517 C 13.412 5.517,12.806 5.872,12.414 6.305 C 12.021 6.739,11.458 7.094,11.161 7.094 C 10.864 7.094,10.452 7.537,10.246 8.079 C 10.040 8.621,9.693 9.064,9.475 9.064 C 9.257 9.064,8.958 9.552,8.811 10.148 C 8.663 10.744,8.217 11.463,7.818 11.746 C 7.420 12.030,7.094 12.429,7.094 12.633 C 7.094 12.838,6.739 13.360,6.305 13.793 C 5.822 14.277,5.517 15.107,5.517 15.941 C 5.517 16.826,5.277 17.435,4.828 17.687 C 3.754 18.288,3.754 376.531,4.828 377.317 C 5.233 377.613,5.517 378.335,5.517 379.071 C 5.517 379.809,5.755 380.412,6.099 380.543 C 6.418 380.666,6.951 381.281,7.281 381.910 C 7.611 382.539,8.152 383.569,8.483 384.198 C 8.813 384.827,9.345 385.442,9.665 385.565 C 9.985 385.688,10.246 386.060,10.246 386.392 C 10.246 386.723,10.506 386.995,10.824 386.995 C 11.141 386.995,11.591 387.350,11.823 387.783 C 12.055 388.217,12.477 388.571,12.761 388.571 C 13.045 388.571,13.598 388.926,13.990 389.360 C 14.382 389.793,15.031 390.148,15.431 390.148 C 15.830 390.148,16.158 390.410,16.158 390.731 C 16.158 391.052,16.645 391.431,17.241 391.573 C 17.837 391.714,18.654 392.117,19.056 392.467 C 20.235 393.494,380.234 393.441,381.369 392.414 C 381.788 392.034,382.394 391.724,382.715 391.724 C 383.037 391.724,383.680 391.369,384.146 390.936 C 384.611 390.502,385.175 390.148,385.399 390.148 C 385.623 390.148,386.028 389.793,386.298 389.360 C 386.569 388.926,387.091 388.571,387.457 388.571 C 387.824 388.571,388.237 388.217,388.374 387.783 C 388.512 387.350,388.782 386.995,388.974 386.995 C 389.496 386.995,391.330 385.061,391.330 384.510 C 391.330 384.247,391.685 383.810,392.118 383.540 C 392.552 383.269,392.906 382.810,392.906 382.521 C 392.906 382.231,393.261 381.673,393.695 381.281 C 394.128 380.888,394.483 380.233,394.483 379.824 C 394.483 379.416,394.838 378.601,395.272 378.014 C 396.433 376.443,396.334 17.227,395.172 16.378 C 394.793 16.101,394.483 15.416,394.483 14.856 C 394.483 14.296,394.172 13.604,393.793 13.318 C 393.159 12.840,392.711 12.187,391.551 10.049 C 390.976 8.991,389.159 7.094,388.720 7.094 C 388.526 7.094,388.145 6.739,387.875 6.305 C 387.604 5.872,387.036 5.517,386.612 5.517 C 386.187 5.517,385.651 5.163,385.419 4.729 C 385.187 4.296,384.737 3.941,384.420 3.941 C 384.102 3.941,383.488 3.586,383.054 3.153 C 382.621 2.719,381.792 2.365,381.213 2.365 C 380.634 2.365,379.818 2.054,379.399 1.675 C 378.677 1.022,25.510 0.422,22.143 1.069 M378.128 2.013 C 378.778 2.361,379.882 2.755,380.580 2.887 C 381.278 3.020,382.589 3.622,383.493 4.224 C 385.364 5.471,385.891 5.813,387.689 6.949 C 388.396 7.395,389.542 8.630,390.236 9.693 C 390.930 10.756,391.594 11.714,391.711 11.823 C 392.467 12.523,394.110 15.535,394.829 17.537 L 395.677 19.901 395.573 198.030 C 395.474 366.611,395.431 376.221,394.781 377.340 C 394.403 377.990,394.092 378.730,394.091 378.984 C 394.090 379.238,393.329 380.579,392.400 381.964 C 389.716 385.967,388.828 386.900,385.813 388.888 C 384.621 389.674,383.555 390.443,383.444 390.596 C 383.209 390.921,380.318 392.013,378.325 392.530 C 375.660 393.221,22.920 392.970,21.084 392.276 C 20.217 391.948,19.029 391.527,18.443 391.341 C 17.858 391.155,16.580 390.411,15.602 389.688 C 14.625 388.966,13.195 387.931,12.425 387.389 C 11.656 386.847,10.494 385.606,9.845 384.631 C 8.011 381.876,7.746 381.489,6.798 380.182 C 6.310 379.510,5.910 378.596,5.909 378.150 C 5.908 377.704,5.597 376.808,5.219 376.158 C 4.569 375.039,4.527 365.493,4.432 198.064 L 4.332 21.153 5.327 18.270 C 6.205 15.724,7.631 12.784,8.263 12.217 C 8.383 12.108,9.101 11.103,9.857 9.982 C 10.613 8.861,11.741 7.620,12.364 7.223 C 12.986 6.827,13.889 6.236,14.370 5.911 C 17.577 3.742,18.623 3.202,21.084 2.448 C 22.601 1.982,24.286 1.530,24.828 1.444 C 28.486 0.859,377.023 1.421,378.128 2.013 M28.177 17.223 C 25.287 17.611,22.565 19.469,21.084 22.067 C 20.299 23.442,20.295 24.264,20.195 196.801 L 20.095 370.153 20.966 371.973 C 22.039 374.218,24.626 376.678,26.207 376.958 C 26.857 377.074,105.507 377.118,200.985 377.057 L 374.581 376.945 200.357 376.847 C 26.695 376.749,26.130 376.746,25.419 375.961 C 25.026 375.527,24.532 375.172,24.319 375.172 C 23.783 375.172,22.069 373.269,22.069 372.674 C 22.069 372.406,21.714 371.491,21.281 370.640 C 20.410 368.932,19.990 25.185,20.858 24.648 C 21.059 24.524,21.435 23.760,21.693 22.950 C 22.393 20.755,24.191 19.056,26.142 18.744 C 27.045 18.600,28.176 18.225,28.655 17.912 C 29.413 17.416,51.989 17.328,200.281 17.241 L 371.034 17.142 200.197 17.103 C 106.236 17.081,28.828 17.135,28.177 17.223 M371.232 17.557 C 371.232 17.933,373.921 18.916,374.949 18.916 C 375.530 18.916,376.106 19.239,376.355 19.704 C 376.587 20.138,377.036 20.493,377.354 20.493 C 377.671 20.493,377.931 20.735,377.931 21.031 C 377.931 21.326,378.286 22.019,378.719 22.571 C 379.709 23.829,379.999 371.274,379.011 371.902 C 378.738 372.075,378.073 372.881,377.533 373.692 C 376.993 374.503,376.352 375.168,376.107 375.170 C 375.498 375.173,374.602 376.310,374.941 376.648 C 375.092 376.799,375.339 376.733,375.489 376.501 C 375.640 376.269,376.149 375.875,376.621 375.627 C 377.093 375.379,378.024 374.368,378.690 373.381 L 379.901 371.586 379.901 197.367 L 379.901 23.147 379.028 21.721 C 377.408 19.079,371.232 15.780,371.232 17.557 M104.236 92.983 C 102.701 93.612,101.942 94.913,101.749 97.247 C 101.646 98.490,101.333 99.862,101.052 100.296 C 100.772 100.729,100.419 102.680,100.270 104.631 C 100.120 106.581,99.858 108.438,99.688 108.756 C 99.497 109.115,99.676 109.752,100.160 110.431 L 100.940 111.527 132.493 111.527 C 169.809 111.527,167.094 111.951,167.094 106.129 C 167.094 105.382,167.340 104.525,167.642 104.223 C 167.980 103.885,168.298 102.276,168.474 100.015 C 168.630 98.002,168.935 96.135,169.152 95.867 C 169.855 94.999,169.154 93.507,167.825 93.044 C 166.343 92.528,105.492 92.469,104.236 92.983 M181.295 93.373 C 181.070 93.792,180.887 94.480,180.887 94.901 C 180.887 95.322,180.621 95.888,180.296 96.158 C 179.877 96.505,179.718 97.354,179.750 99.063 C 179.789 101.171,179.833 101.303,180.096 100.099 C 180.852 96.627,181.805 93.571,182.213 93.307 C 183.061 92.757,326.076 92.946,326.813 93.498 C 327.583 94.075,327.208 99.464,326.165 102.791 C 325.847 103.803,325.490 105.696,325.371 106.999 C 325.252 108.301,324.882 110.141,324.548 111.088 C 324.214 112.034,323.941 113.561,323.941 114.481 C 323.941 115.401,323.586 117.264,323.153 118.621 C 322.719 119.978,322.365 121.842,322.365 122.765 C 322.365 123.687,322.071 125.351,321.712 126.462 C 321.047 128.521,321.202 129.399,322.076 128.526 C 322.361 128.240,322.618 126.628,322.699 124.611 C 322.795 122.211,323.021 120.974,323.454 120.488 C 323.867 120.023,324.134 118.717,324.259 116.547 C 324.369 114.657,324.689 112.931,325.026 112.417 C 325.367 111.895,325.690 110.118,325.814 108.082 C 325.930 106.184,326.202 104.516,326.418 104.375 C 326.879 104.077,327.425 101.057,327.477 98.522 C 327.497 97.547,327.773 96.405,328.091 95.984 C 328.900 94.915,328.812 93.503,327.908 93.019 C 326.260 92.137,181.769 92.486,181.295 93.373 M167.688 94.444 C 168.429 95.185,168.249 98.393,167.276 101.782 C 166.980 102.817,166.617 104.722,166.470 106.016 C 166.283 107.675,165.934 108.660,165.288 109.357 L 164.373 110.345 133.033 110.345 L 101.693 110.345 101.062 109.381 C 100.443 108.437,100.829 105.421,102.694 96.616 C 102.801 96.110,103.317 95.268,103.840 94.744 L 104.792 93.793 135.915 93.793 C 164.326 93.793,167.094 93.850,167.688 94.444 M179.357 102.463 C 179.317 103.005,179.025 103.793,178.707 104.213 C 178.301 104.750,178.147 105.867,178.191 107.957 C 178.226 109.595,178.315 110.315,178.389 109.557 C 178.464 108.798,178.806 107.198,179.149 106.002 C 179.493 104.806,179.696 103.298,179.601 102.652 C 179.448 101.612,179.420 101.591,179.357 102.463 M177.241 112.249 C 176.726 113.125,176.565 114.205,176.606 116.514 L 176.660 119.606 176.936 117.181 C 177.089 115.847,177.435 114.220,177.705 113.566 C 178.450 111.768,178.103 110.782,177.241 112.249 M175.640 120.605 C 175.152 121.302,174.975 122.385,174.975 124.675 C 174.975 127.146,174.837 127.896,174.311 128.281 C 173.797 128.656,173.608 129.583,173.475 132.364 C 173.380 134.342,173.155 135.961,172.975 135.961 C 172.413 135.961,171.827 138.802,171.825 141.544 C 171.824 143.094,171.646 144.230,171.391 144.315 C 170.851 144.495,170.286 147.343,170.263 150.001 C 170.253 151.241,170.032 152.200,169.691 152.483 C 169.327 152.784,169.038 154.232,168.856 156.659 C 168.677 159.047,168.383 160.536,168.033 160.826 C 167.657 161.139,167.506 162.088,167.547 163.891 C 167.579 165.327,167.677 165.970,167.763 165.320 C 167.849 164.670,168.162 163.340,168.457 162.365 C 168.753 161.389,169.102 159.527,169.235 158.227 C 169.367 156.926,169.721 155.064,170.022 154.089 C 170.323 153.113,170.667 151.250,170.786 149.947 C 170.905 148.644,171.276 146.804,171.610 145.858 C 171.944 144.912,172.217 143.385,172.217 142.465 C 172.217 141.545,172.571 139.682,173.005 138.325 C 173.438 136.968,173.793 135.106,173.793 134.187 C 173.793 133.268,174.148 131.406,174.581 130.049 C 175.015 128.692,175.369 126.813,175.369 125.874 C 175.369 124.934,175.646 123.350,175.985 122.353 C 176.726 120.169,176.555 119.299,175.640 120.605 M199.834 120.883 C 199.149 121.439,198.916 122.206,198.661 124.745 C 198.486 126.488,198.128 128.315,197.866 128.804 C 197.604 129.294,197.445 130.173,197.513 130.758 C 197.774 133.027,199.015 129.206,199.015 126.131 C 199.015 123.855,199.180 123.095,199.877 122.152 L 200.739 120.985 217.611 120.985 L 234.483 120.985 234.483 123.153 C 234.483 124.345,234.314 125.320,234.107 125.320 C 233.525 125.320,232.911 128.029,232.909 130.609 C 232.907 132.155,232.701 133.169,232.300 133.613 C 231.897 134.059,231.614 135.459,231.459 137.782 C 231.328 139.751,231.002 141.539,230.715 141.872 C 230.434 142.197,230.075 144.055,229.918 146.001 C 229.760 147.947,229.420 149.750,229.162 150.008 C 228.904 150.266,228.574 152.017,228.430 153.899 C 228.277 155.888,227.921 157.670,227.581 158.157 C 227.191 158.713,227.013 159.853,227.048 161.566 C 227.099 164.055,227.109 164.081,227.380 162.365 C 227.534 161.389,227.841 160.148,228.062 159.606 C 228.282 159.064,228.587 157.330,228.739 155.752 C 228.891 154.174,229.247 152.312,229.530 151.614 C 229.813 150.916,230.159 149.042,230.299 147.450 C 230.440 145.858,230.755 144.181,230.999 143.724 C 231.244 143.266,231.594 141.413,231.778 139.604 C 231.961 137.796,232.316 135.933,232.567 135.465 C 232.817 134.997,233.162 133.223,233.334 131.523 C 233.505 129.822,233.932 127.679,234.283 126.761 C 234.686 125.705,234.877 124.227,234.800 122.742 L 234.680 120.394 217.684 120.291 C 201.955 120.196,200.625 120.240,199.834 120.883 M264.093 121.125 C 263.414 121.848,263.131 122.815,262.850 125.366 C 262.651 127.183,262.224 129.379,261.901 130.246 C 261.579 131.113,261.300 132.709,261.281 133.793 C 261.262 134.877,260.991 136.473,260.678 137.340 C 259.872 139.578,259.909 140.260,260.788 139.381 C 261.312 138.857,261.512 137.867,261.620 135.268 C 261.725 132.745,261.924 131.727,262.378 131.396 C 262.829 131.066,263.039 130.011,263.167 127.443 C 263.268 125.409,263.553 123.693,263.847 123.350 C 264.125 123.025,264.417 122.404,264.497 121.970 C 264.639 121.197,264.952 121.182,281.582 121.182 L 298.522 121.182 298.764 123.350 L 299.006 125.517 298.961 122.956 L 298.916 120.394 281.944 120.291 L 264.973 120.189 264.093 121.125 M297.931 126.498 C 297.483 126.778,297.324 127.752,297.276 130.527 C 297.215 133.980,297.228 134.042,297.500 131.626 C 297.659 130.217,298.009 128.656,298.279 128.157 C 298.927 126.958,298.726 126.002,297.931 126.498 M320.864 131.146 C 320.822 132.291,320.522 133.864,320.197 134.642 C 319.398 136.555,319.393 137.810,320.187 137.152 C 320.967 136.503,321.259 134.712,321.084 131.626 C 320.946 129.162,320.937 129.144,320.864 131.146 M197.122 133.707 C 197.079 134.527,196.806 135.769,196.514 136.468 C 196.222 137.166,195.853 139.054,195.695 140.662 C 195.536 142.270,195.169 144.220,194.879 144.995 C 194.589 145.770,194.242 147.613,194.108 149.090 C 193.974 150.568,193.620 152.430,193.321 153.228 C 193.022 154.027,192.676 155.833,192.553 157.241 C 192.430 158.650,192.067 160.512,191.748 161.379 C 191.429 162.246,191.160 163.768,191.150 164.761 C 191.135 166.373,190.119 170.500,189.144 172.906 L 188.785 173.793 178.159 173.793 C 165.865 173.793,165.792 173.772,166.929 170.549 C 167.845 167.952,167.694 166.523,166.700 168.379 C 165.816 170.028,165.633 173.357,166.384 174.108 C 166.730 174.454,169.858 174.581,177.996 174.581 C 190.087 174.581,189.951 174.606,189.951 172.372 C 189.951 171.996,190.249 171.358,190.613 170.956 C 191.090 170.428,191.325 169.263,191.452 166.787 C 191.549 164.896,191.803 163.238,192.016 163.102 C 192.534 162.771,193.065 159.899,193.086 157.312 C 193.097 156.054,193.326 154.992,193.659 154.660 C 193.996 154.322,194.326 152.750,194.501 150.649 C 194.660 148.749,195.010 146.839,195.279 146.405 C 195.548 145.971,195.876 144.238,196.008 142.554 C 196.143 140.829,196.515 139.084,196.862 138.555 C 197.310 137.871,197.439 136.887,197.337 134.917 C 197.261 133.432,197.164 132.887,197.122 133.707 M295.951 135.395 C 295.739 135.951,295.567 137.666,295.567 139.206 C 295.567 141.277,295.394 142.198,294.904 142.739 C 294.426 143.268,294.194 144.425,294.071 146.908 C 293.957 149.187,293.702 150.570,293.312 151.014 C 292.929 151.449,292.649 152.895,292.512 155.152 C 292.396 157.060,292.129 158.732,291.919 158.868 C 291.423 159.190,290.876 162.054,290.855 164.447 C 290.845 165.485,290.564 166.751,290.229 167.262 C 289.780 167.947,289.651 169.004,289.736 171.287 L 289.852 174.384 301.084 174.480 C 313.579 174.587,313.306 174.642,313.591 171.970 C 313.703 170.914,314.035 169.773,314.328 169.436 C 314.637 169.080,314.968 167.345,315.118 165.298 C 315.260 163.360,315.599 161.507,315.872 161.182 C 316.146 160.857,316.495 158.957,316.649 156.960 C 316.829 154.627,317.125 153.166,317.479 152.873 C 317.862 152.555,318.012 151.618,317.971 149.804 C 317.938 148.367,317.841 147.724,317.754 148.374 C 317.668 149.025,317.355 150.355,317.058 151.330 C 316.762 152.305,316.406 154.216,316.269 155.575 C 316.131 156.935,315.788 158.708,315.507 159.516 C 315.226 160.324,314.881 162.247,314.741 163.789 C 314.602 165.331,314.220 167.232,313.894 168.013 C 313.567 168.794,313.300 170.025,313.300 170.749 C 313.300 173.617,313.438 173.582,301.446 173.713 C 292.979 173.805,290.641 173.722,290.386 173.319 C 289.873 172.512,289.995 170.350,290.640 168.806 C 290.966 168.028,291.232 166.654,291.232 165.752 C 291.232 164.850,291.503 163.143,291.835 161.958 C 292.167 160.773,292.601 158.524,292.799 156.961 C 292.998 155.398,293.436 153.308,293.772 152.317 C 294.109 151.326,294.384 149.746,294.384 148.806 C 294.384 147.866,294.739 145.988,295.172 144.631 C 295.606 143.274,295.968 141.344,295.978 140.343 C 295.987 139.341,296.251 137.813,296.563 136.946 C 297.456 134.467,296.869 132.980,295.951 135.395 M319.291 139.598 C 319.248 140.623,318.931 142.164,318.587 143.023 C 317.737 145.148,317.974 146.430,318.947 144.969 C 319.498 144.142,319.613 143.290,319.506 140.831 C 319.429 139.069,319.336 138.538,319.291 139.598 M259.766 142.069 C 259.713 143.153,259.414 144.749,259.102 145.616 C 258.223 148.056,258.346 149.065,259.334 147.522 C 260.001 146.481,260.111 145.765,259.998 143.187 C 259.903 141.009,259.835 140.680,259.766 142.069 M258.206 150.632 C 258.163 151.658,257.845 153.203,257.500 154.067 C 256.708 156.044,256.951 157.019,257.881 155.600 C 258.406 154.798,258.528 153.914,258.422 151.667 C 258.332 149.777,258.257 149.417,258.206 150.632 M91.156 155.546 C 89.681 155.833,88.358 158.662,88.045 162.199 C 87.893 163.916,87.528 165.670,87.234 166.098 C 86.547 167.096,86.499 173.041,87.172 173.714 C 87.532 174.074,95.284 174.187,119.656 174.187 L 151.667 174.187 152.484 173.149 C 152.933 172.578,153.300 171.749,153.300 171.308 C 153.300 170.867,153.559 170.220,153.875 169.870 C 154.224 169.485,154.558 167.924,154.724 165.898 C 154.875 164.063,155.247 162.179,155.550 161.712 C 156.514 160.225,156.079 156.385,154.877 155.779 C 153.931 155.302,93.547 155.082,91.156 155.546 M154.495 157.172 C 155.321 157.841,155.353 158.025,154.951 159.832 C 154.714 160.900,154.412 162.571,154.280 163.547 C 153.799 167.121,152.454 172.032,151.825 172.512 C 150.982 173.156,89.447 173.238,88.250 172.597 C 87.385 172.134,87.251 170.453,87.865 167.761 C 88.072 166.852,88.521 164.601,88.863 162.759 C 89.644 158.553,90.155 157.257,91.196 156.836 C 93.093 156.069,153.529 156.390,154.495 157.172 M256.552 159.361 C 256.552 160.093,256.309 161.290,256.013 162.021 C 255.716 162.752,255.362 164.611,255.227 166.153 C 255.091 167.696,254.736 169.558,254.438 170.291 C 254.141 171.025,253.782 172.928,253.642 174.520 C 253.501 176.112,253.186 177.789,252.941 178.247 C 252.697 178.704,252.351 180.513,252.173 182.266 C 251.996 184.019,251.578 186.105,251.245 186.901 C 250.913 187.698,250.633 189.286,250.623 190.431 C 250.614 191.576,250.342 193.222,250.020 194.089 C 249.698 194.956,249.271 197.143,249.073 198.949 C 248.874 200.756,248.525 202.458,248.297 202.733 C 248.069 203.008,247.731 204.730,247.545 206.560 C 247.360 208.390,247.005 210.267,246.757 210.731 C 245.978 212.185,246.143 213.533,246.995 212.681 C 247.520 212.156,247.717 211.172,247.822 208.558 C 247.921 206.071,248.139 204.922,248.610 204.393 C 249.084 203.861,249.299 202.709,249.399 200.156 C 249.475 198.228,249.679 196.650,249.853 196.650 C 250.467 196.650,251.034 194.135,251.034 191.413 C 251.034 189.344,251.191 188.544,251.665 188.198 C 252.129 187.858,252.349 186.810,252.502 184.213 C 252.631 182.035,252.920 180.449,253.260 180.059 C 253.580 179.691,253.913 178.047,254.060 176.118 C 254.198 174.297,254.534 172.453,254.806 172.020 C 255.079 171.586,255.430 169.643,255.586 167.702 C 255.756 165.593,256.087 163.955,256.408 163.634 C 256.915 163.128,257.225 158.030,256.749 158.030 C 256.640 158.030,256.552 158.629,256.552 159.361 M226.108 166.163 C 225.632 167.100,225.419 168.441,225.419 170.496 C 225.419 172.875,225.261 173.673,224.631 174.474 C 224.001 175.274,223.842 176.072,223.842 178.446 C 223.842 180.684,223.678 181.598,223.175 182.153 C 222.683 182.697,222.462 183.845,222.334 186.515 C 222.207 189.170,221.999 190.256,221.554 190.581 C 221.114 190.903,220.900 191.983,220.774 194.527 C 220.659 196.840,220.402 198.254,220.018 198.691 C 219.655 199.104,219.354 200.581,219.215 202.632 C 219.093 204.435,218.762 206.267,218.479 206.703 C 218.197 207.138,217.842 209.000,217.690 210.841 C 217.539 212.681,217.197 214.542,216.932 214.975 C 216.666 215.409,216.343 217.234,216.215 219.031 C 216.077 220.978,215.739 222.646,215.381 223.158 C 214.955 223.765,214.794 224.889,214.832 226.984 L 214.886 229.951 215.158 227.586 C 215.308 226.286,215.616 224.867,215.842 224.433 C 216.068 224.000,216.378 222.329,216.531 220.720 C 216.685 219.111,217.047 217.160,217.338 216.385 C 217.628 215.610,217.975 213.767,218.109 212.289 C 218.243 210.812,218.597 208.950,218.896 208.151 C 219.195 207.353,219.541 205.547,219.664 204.138 C 219.787 202.729,220.149 200.867,220.469 200.000 C 220.788 199.133,221.057 197.604,221.066 196.603 C 221.076 195.602,221.438 193.672,221.872 192.315 C 222.305 190.958,222.660 189.079,222.660 188.140 C 222.660 187.200,222.934 185.624,223.269 184.637 C 223.604 183.650,224.044 181.472,224.246 179.796 C 224.447 178.120,224.875 176.039,225.195 175.172 C 225.516 174.305,225.786 172.760,225.796 171.738 C 225.805 170.716,226.090 169.064,226.428 168.068 C 227.263 165.607,227.047 164.317,226.108 166.163 M245.989 215.615 C 245.946 216.401,245.645 217.798,245.320 218.719 C 244.370 221.412,244.509 222.861,245.535 220.949 C 246.171 219.760,246.311 218.895,246.203 216.816 C 246.127 215.370,246.031 214.830,245.989 215.615 M78.954 218.501 C 78.266 218.801,77.592 219.455,77.445 219.965 C 77.298 220.472,76.938 221.422,76.644 222.077 C 76.349 222.731,75.983 224.682,75.830 226.411 C 75.677 228.141,75.311 229.906,75.017 230.334 C 74.135 231.616,74.323 235.398,75.312 236.294 C 76.121 237.025,77.727 237.044,138.204 237.044 L 200.265 237.044 201.216 235.939 C 201.889 235.157,202.167 234.357,202.167 233.211 C 202.167 232.319,202.426 231.303,202.742 230.954 C 203.092 230.568,203.423 229.012,203.588 226.982 C 203.737 225.147,204.099 223.296,204.393 222.868 C 205.148 221.768,205.054 220.147,204.173 219.058 L 203.419 218.128 141.808 218.043 C 90.206 217.972,79.995 218.046,78.954 218.501 M203.114 219.978 C 204.038 221.242,201.863 233.829,200.522 234.975 C 199.363 235.966,76.875 236.057,76.054 235.067 C 74.743 233.489,77.504 220.472,79.338 219.579 C 80.995 218.773,202.519 219.165,203.114 219.978 M244.335 224.187 C 244.335 224.810,244.095 226.007,243.803 226.847 C 243.510 227.687,243.151 229.560,243.006 231.008 C 242.861 232.457,242.506 234.319,242.219 235.146 C 241.931 235.974,241.577 237.953,241.432 239.545 C 241.288 241.137,240.970 242.814,240.725 243.271 C 240.480 243.729,240.134 245.537,239.957 247.290 C 239.779 249.044,239.361 251.130,239.029 251.926 C 238.696 252.722,238.424 254.154,238.424 255.108 C 238.424 256.063,238.069 257.953,237.635 259.310 C 237.202 260.667,236.847 262.647,236.847 263.709 C 236.847 264.772,236.581 266.278,236.256 267.056 C 235.384 269.144,235.434 270.351,236.355 269.430 C 236.880 268.905,237.077 267.921,237.182 265.306 C 237.281 262.820,237.498 261.670,237.970 261.141 C 238.444 260.610,238.658 259.458,238.758 256.905 C 238.834 254.977,239.048 253.399,239.233 253.399 C 239.775 253.399,240.390 250.626,240.392 248.163 C 240.393 246.791,240.632 245.520,240.993 244.969 C 241.339 244.441,241.694 242.659,241.834 240.747 C 241.967 238.927,242.301 237.172,242.576 236.847 C 242.851 236.522,243.206 234.668,243.365 232.726 C 243.537 230.624,243.871 228.979,244.191 228.659 C 244.698 228.152,245.008 223.054,244.532 223.054 C 244.424 223.054,244.335 223.564,244.335 224.187 M213.990 230.734 C 213.580 231.231,213.379 232.490,213.332 234.839 C 213.269 238.030,213.282 238.089,213.560 235.862 C 213.722 234.562,214.073 233.089,214.341 232.591 C 215.072 231.228,214.794 229.759,213.990 230.734 M212.414 239.014 C 212.019 239.489,211.777 240.853,211.685 243.114 C 211.587 245.557,211.367 246.706,210.897 247.233 C 210.423 247.765,210.209 248.916,210.109 251.469 C 210.033 253.398,209.819 254.975,209.634 254.975 C 209.087 254.975,208.477 257.756,208.475 260.265 C 208.474 261.822,208.269 262.824,207.859 263.276 C 207.443 263.736,207.170 265.116,207.012 267.544 C 206.864 269.830,206.586 271.294,206.247 271.576 C 205.954 271.819,205.714 272.528,205.714 273.152 L 205.714 274.286 195.293 274.286 C 182.617 274.286,182.893 274.183,182.564 279.035 C 182.455 280.649,182.139 282.236,181.861 282.562 C 181.584 282.887,181.227 284.741,181.068 286.683 C 180.910 288.624,180.564 290.429,180.300 290.693 C 180.035 290.957,179.725 292.679,179.610 294.519 C 179.476 296.670,179.174 298.189,178.765 298.774 C 178.057 299.785,177.943 301.363,178.514 302.266 C 178.945 302.948,252.301 303.373,253.354 302.699 C 253.660 302.504,253.985 301.421,254.092 300.239 C 254.198 299.078,254.509 297.862,254.785 297.537 C 255.060 297.212,255.415 295.438,255.573 293.596 C 255.731 291.754,256.105 289.897,256.403 289.469 C 256.746 288.978,256.926 287.743,256.893 286.119 C 256.842 283.615,256.833 283.594,256.554 285.320 C 256.396 286.296,256.079 287.626,255.850 288.276 C 255.621 288.926,255.327 290.642,255.196 292.089 C 255.066 293.536,254.697 295.348,254.376 296.116 C 254.056 296.884,253.793 298.187,253.793 299.013 C 253.793 299.839,253.517 300.908,253.180 301.390 L 252.566 302.266 216.431 302.260 C 196.556 302.257,180.056 302.102,179.763 301.916 C 179.149 301.528,179.720 295.616,180.679 292.414 C 180.972 291.438,181.319 289.576,181.451 288.276 C 181.583 286.975,181.938 285.113,182.239 284.138 C 182.540 283.163,182.892 281.220,183.021 279.822 C 183.209 277.791,183.468 277.058,184.312 276.177 L 185.369 275.074 195.532 275.074 L 205.694 275.074 206.354 273.798 C 206.717 273.097,207.163 271.048,207.345 269.247 C 207.528 267.446,207.882 265.589,208.132 265.122 C 208.383 264.654,208.733 262.837,208.910 261.084 C 209.088 259.331,209.506 257.245,209.838 256.449 C 210.171 255.652,210.443 254.220,210.443 253.266 C 210.443 252.312,210.798 250.421,211.232 249.064 C 211.665 247.707,212.020 245.737,212.020 244.686 C 212.020 243.635,212.301 242.072,212.644 241.214 C 213.441 239.221,213.307 237.937,212.414 239.014 M235.431 272.512 L 235.468 274.877 246.493 275.074 L 257.519 275.271 257.908 276.378 C 258.200 277.210,258.129 277.958,257.621 279.386 C 257.250 280.432,256.966 281.796,256.992 282.417 C 257.025 283.256,257.088 283.344,257.236 282.759 C 257.345 282.325,257.679 281.621,257.978 281.193 C 258.870 279.918,258.712 275.203,257.760 274.694 C 257.288 274.441,252.937 274.286,246.352 274.286 L 235.706 274.286 235.550 272.217 C 235.400 270.229,235.396 270.240,235.431 272.512 M66.587 286.404 C 65.563 287.322,65.346 287.849,65.169 289.852 C 65.054 291.153,64.710 292.749,64.405 293.399 C 63.498 295.332,62.998 302.272,63.688 303.350 L 64.255 304.236 114.645 304.236 C 171.595 304.236,166.526 304.542,166.982 301.080 C 167.111 300.107,167.436 298.956,167.705 298.522 C 167.975 298.089,168.318 296.349,168.468 294.656 C 168.619 292.963,168.990 291.101,169.295 290.518 C 170.129 288.919,169.980 287.383,168.885 286.288 L 167.918 285.320 117.857 285.320 L 67.796 285.320 66.587 286.404 M167.886 287.215 C 168.738 287.905,168.752 288.022,168.297 290.861 C 167.257 297.364,166.174 301.675,165.408 302.365 C 164.430 303.245,65.586 303.458,64.709 302.581 C 63.249 301.121,65.853 287.989,67.798 287.005 C 69.597 286.095,166.755 286.299,167.886 287.215 " stroke="none" fill="#dadada" fill-rule="evenodd"></path><path id="path4" d="M0.000 197.044 L 0.000 394.089 200.000 394.089 L 400.000 394.089 400.000 197.044 L 400.000 0.000 200.000 0.000 L 0.000 0.000 0.000 197.044 M379.399 1.675 C 379.818 2.054,380.634 2.365,381.213 2.365 C 381.792 2.365,382.621 2.719,383.054 3.153 C 383.488 3.586,384.102 3.941,384.420 3.941 C 384.737 3.941,385.187 4.296,385.419 4.729 C 385.651 5.163,386.187 5.517,386.612 5.517 C 387.036 5.517,387.604 5.872,387.875 6.305 C 388.145 6.739,388.526 7.094,388.720 7.094 C 389.159 7.094,390.976 8.991,391.551 10.049 C 392.711 12.187,393.159 12.840,393.793 13.318 C 394.172 13.604,394.483 14.296,394.483 14.856 C 394.483 15.416,394.793 16.101,395.172 16.378 C 396.334 17.227,396.433 376.443,395.272 378.014 C 394.838 378.601,394.483 379.416,394.483 379.824 C 394.483 380.233,394.128 380.888,393.695 381.281 C 393.261 381.673,392.906 382.231,392.906 382.521 C 392.906 382.810,392.552 383.269,392.118 383.540 C 391.685 383.810,391.330 384.247,391.330 384.510 C 391.330 385.061,389.496 386.995,388.974 386.995 C 388.782 386.995,388.512 387.350,388.374 387.783 C 388.237 388.217,387.824 388.571,387.457 388.571 C 387.091 388.571,386.569 388.926,386.298 389.360 C 386.028 389.793,385.623 390.148,385.399 390.148 C 385.175 390.148,384.611 390.502,384.146 390.936 C 383.680 391.369,383.037 391.724,382.715 391.724 C 382.394 391.724,381.788 392.034,381.369 392.414 C 380.234 393.441,20.235 393.494,19.056 392.467 C 18.654 392.117,17.837 391.714,17.241 391.573 C 16.645 391.431,16.158 391.052,16.158 390.731 C 16.158 390.410,15.830 390.148,15.431 390.148 C 15.031 390.148,14.382 389.793,13.990 389.360 C 13.598 388.926,13.045 388.571,12.761 388.571 C 12.477 388.571,12.055 388.217,11.823 387.783 C 11.591 387.350,11.141 386.995,10.824 386.995 C 10.506 386.995,10.246 386.723,10.246 386.392 C 10.246 386.060,9.985 385.688,9.665 385.565 C 9.345 385.442,8.813 384.827,8.483 384.198 C 8.152 383.569,7.611 382.539,7.281 381.910 C 6.951 381.281,6.418 380.666,6.099 380.543 C 5.755 380.412,5.517 379.809,5.517 379.071 C 5.517 378.335,5.233 377.613,4.828 377.317 C 3.754 376.531,3.754 18.288,4.828 17.687 C 5.277 17.435,5.517 16.826,5.517 15.941 C 5.517 15.107,5.822 14.277,6.305 13.793 C 6.739 13.360,7.094 12.838,7.094 12.633 C 7.094 12.429,7.420 12.030,7.818 11.746 C 8.217 11.463,8.663 10.744,8.811 10.148 C 8.958 9.552,9.257 9.064,9.475 9.064 C 9.693 9.064,10.040 8.621,10.246 8.079 C 10.452 7.537,10.864 7.094,11.161 7.094 C 11.458 7.094,12.021 6.739,12.414 6.305 C 12.806 5.872,13.412 5.517,13.759 5.517 C 14.107 5.517,14.613 5.163,14.884 4.729 C 15.155 4.296,15.568 3.941,15.803 3.941 C 16.038 3.941,16.681 3.586,17.232 3.153 C 17.783 2.719,18.812 2.365,19.518 2.365 C 20.265 2.365,20.892 2.130,21.017 1.804 C 21.375 0.873,17.397 0.892,200.845 0.940 C 369.580 0.983,378.675 1.020,379.399 1.675 M28.617 17.927 C 28.208 18.237,27.118 18.603,26.193 18.742 C 24.200 19.041,22.404 20.720,21.693 22.950 C 21.435 23.760,21.059 24.524,20.858 24.648 C 19.990 25.185,20.410 368.932,21.281 370.640 C 21.714 371.491,22.069 372.406,22.069 372.674 C 22.069 373.269,23.783 375.172,24.319 375.172 C 24.532 375.172,25.026 375.527,25.419 375.961 C 26.547 377.207,374.302 377.207,375.081 375.961 C 375.352 375.527,375.793 375.171,376.062 375.170 C 376.332 375.168,376.993 374.503,377.533 373.692 C 378.073 372.881,378.738 372.075,379.011 371.902 C 379.999 371.274,379.709 23.829,378.719 22.571 C 378.286 22.019,377.931 21.326,377.931 21.031 C 377.931 20.735,377.671 20.493,377.354 20.493 C 377.036 20.493,376.587 20.138,376.355 19.704 C 376.090 19.209,375.530 18.916,374.848 18.916 C 374.251 18.916,373.067 18.562,372.217 18.128 C 370.161 17.080,29.998 16.881,28.617 17.927 M167.825 93.044 C 169.154 93.507,169.855 94.999,169.152 95.867 C 168.935 96.135,168.630 98.002,168.474 100.015 C 168.298 102.276,167.980 103.885,167.642 104.223 C 167.340 104.525,167.094 105.382,167.094 106.129 C 167.094 111.951,169.809 111.527,132.493 111.527 L 100.940 111.527 100.160 110.431 C 99.676 109.752,99.497 109.115,99.688 108.756 C 99.858 108.438,100.120 106.581,100.270 104.631 C 100.419 102.680,100.772 100.729,101.052 100.296 C 101.333 99.862,101.646 98.490,101.749 97.247 C 101.942 94.913,102.701 93.612,104.236 92.983 C 105.492 92.469,166.343 92.528,167.825 93.044 M327.908 93.019 C 328.812 93.503,328.900 94.915,328.091 95.984 C 327.773 96.405,327.497 97.547,327.477 98.522 C 327.425 101.057,326.879 104.077,326.418 104.375 C 326.202 104.516,325.930 106.184,325.814 108.082 C 325.690 110.118,325.367 111.895,325.026 112.417 C 324.689 112.931,324.369 114.657,324.259 116.547 C 324.134 118.717,323.867 120.023,323.454 120.488 C 323.019 120.976,322.795 122.215,322.699 124.662 C 322.594 127.322,322.409 128.254,321.914 128.616 C 321.417 128.979,321.235 129.920,321.126 132.681 C 321.019 135.406,320.819 136.457,320.296 137.035 C 319.759 137.627,319.606 138.500,319.606 140.963 C 319.606 143.533,319.457 144.319,318.818 145.132 C 318.179 145.944,318.030 146.731,318.030 149.275 C 318.030 151.483,317.866 152.552,317.479 152.873 C 317.125 153.166,316.829 154.627,316.649 156.960 C 316.495 158.957,316.146 160.857,315.872 161.182 C 315.599 161.507,315.260 163.360,315.118 165.298 C 314.968 167.345,314.637 169.080,314.328 169.436 C 314.035 169.773,313.703 170.914,313.591 171.970 C 313.306 174.642,313.579 174.587,301.084 174.480 L 289.852 174.384 289.736 171.287 C 289.651 169.004,289.780 167.947,290.229 167.262 C 290.564 166.751,290.845 165.485,290.855 164.447 C 290.876 162.054,291.423 159.190,291.919 158.868 C 292.129 158.732,292.396 157.060,292.512 155.152 C 292.649 152.895,292.929 151.449,293.312 151.014 C 293.702 150.570,293.957 149.187,294.071 146.908 C 294.189 144.526,294.433 143.256,294.865 142.770 C 295.307 142.274,295.529 141.051,295.626 138.589 C 295.731 135.929,295.916 134.997,296.411 134.636 C 296.909 134.271,297.090 133.330,297.199 130.546 C 297.313 127.620,297.476 126.831,298.052 126.410 C 298.628 125.988,298.741 125.441,298.643 123.536 L 298.522 121.182 281.582 121.182 C 264.952 121.182,264.639 121.197,264.497 121.970 C 264.417 122.404,264.125 123.025,263.847 123.350 C 263.553 123.693,263.268 125.409,263.167 127.443 C 263.039 130.011,262.829 131.066,262.378 131.396 C 261.925 131.726,261.725 132.742,261.620 135.241 C 261.514 137.776,261.303 138.830,260.788 139.399 C 260.254 139.989,260.098 140.865,260.096 143.282 C 260.094 145.735,259.925 146.657,259.310 147.586 C 258.702 148.505,258.527 149.438,258.525 151.770 C 258.523 154.171,258.365 154.971,257.734 155.773 C 257.095 156.585,256.946 157.371,256.946 159.935 C 256.946 162.080,256.773 163.269,256.408 163.634 C 256.087 163.955,255.756 165.593,255.586 167.702 C 255.430 169.643,255.079 171.586,254.806 172.020 C 254.534 172.453,254.198 174.297,254.060 176.118 C 253.913 178.047,253.580 179.691,253.260 180.059 C 252.920 180.449,252.631 182.035,252.502 184.213 C 252.349 186.810,252.129 187.858,251.665 188.198 C 251.191 188.544,251.034 189.344,251.034 191.413 C 251.034 194.135,250.467 196.650,249.853 196.650 C 249.679 196.650,249.475 198.228,249.399 200.156 C 249.299 202.709,249.084 203.861,248.610 204.393 C 248.140 204.920,247.921 206.069,247.822 208.530 C 247.719 211.082,247.511 212.129,246.995 212.699 C 246.464 213.286,246.305 214.158,246.305 216.486 C 246.305 218.757,246.109 219.876,245.517 220.981 C 244.938 222.061,244.729 223.204,244.729 225.286 C 244.729 227.155,244.546 228.304,244.191 228.659 C 243.871 228.979,243.537 230.624,243.365 232.726 C 243.206 234.668,242.851 236.522,242.576 236.847 C 242.301 237.172,241.967 238.927,241.834 240.747 C 241.694 242.659,241.339 244.441,240.993 244.969 C 240.632 245.520,240.393 246.791,240.392 248.163 C 240.390 250.626,239.775 253.399,239.233 253.399 C 239.048 253.399,238.834 254.977,238.758 256.905 C 238.658 259.458,238.444 260.610,237.970 261.141 C 237.500 261.669,237.281 262.818,237.182 265.279 C 237.079 267.830,236.871 268.878,236.355 269.448 C 235.885 269.967,235.665 270.860,235.665 272.248 L 235.665 274.286 246.331 274.286 C 252.930 274.286,257.288 274.441,257.760 274.694 C 258.783 275.241,258.865 279.926,257.876 281.338 C 257.461 281.931,257.143 283.490,256.987 285.703 C 256.853 287.597,256.542 289.394,256.297 289.696 C 256.052 289.999,255.724 291.754,255.568 293.596 C 255.413 295.438,255.060 297.212,254.785 297.537 C 254.509 297.862,254.198 299.078,254.092 300.239 C 253.985 301.421,253.660 302.504,253.354 302.699 C 252.301 303.373,178.945 302.948,178.514 302.266 C 177.943 301.363,178.057 299.785,178.765 298.774 C 179.174 298.189,179.476 296.670,179.610 294.519 C 179.725 292.679,180.035 290.957,180.300 290.693 C 180.564 290.429,180.910 288.624,181.068 286.683 C 181.227 284.741,181.584 282.887,181.861 282.562 C 182.139 282.236,182.455 280.649,182.564 279.035 C 182.893 274.183,182.617 274.286,195.293 274.286 L 205.714 274.286 205.714 273.152 C 205.714 272.528,205.954 271.819,206.247 271.576 C 206.586 271.294,206.864 269.830,207.012 267.544 C 207.170 265.116,207.443 263.736,207.859 263.276 C 208.269 262.824,208.474 261.822,208.475 260.265 C 208.477 257.756,209.087 254.975,209.634 254.975 C 209.819 254.975,210.033 253.398,210.109 251.469 C 210.209 248.916,210.423 247.765,210.897 247.233 C 211.367 246.705,211.586 245.556,211.685 243.095 C 211.785 240.635,212.003 239.485,212.474 238.957 C 212.944 238.430,213.163 237.280,213.262 234.819 C 213.365 232.268,213.572 231.221,214.089 230.650 C 214.616 230.068,214.778 229.196,214.778 226.953 C 214.778 224.958,214.971 223.742,215.381 223.158 C 215.739 222.646,216.077 220.978,216.215 219.031 C 216.343 217.234,216.666 215.409,216.932 214.975 C 217.197 214.542,217.539 212.681,217.690 210.841 C 217.842 209.000,218.197 207.138,218.479 206.703 C 218.762 206.267,219.093 204.435,219.215 202.632 C 219.354 200.581,219.655 199.104,220.018 198.691 C 220.402 198.254,220.659 196.840,220.774 194.527 C 220.900 191.983,221.114 190.903,221.554 190.581 C 221.999 190.256,222.207 189.170,222.334 186.515 C 222.462 183.845,222.683 182.697,223.175 182.153 C 223.678 181.598,223.842 180.684,223.842 178.446 C 223.842 176.072,224.001 175.274,224.631 174.474 C 225.262 173.671,225.419 172.875,225.419 170.478 C 225.419 168.238,225.617 167.115,226.207 166.014 C 226.781 164.943,226.995 163.791,226.995 161.768 C 226.995 159.951,227.197 158.705,227.581 158.157 C 227.921 157.670,228.277 155.888,228.430 153.899 C 228.574 152.017,228.904 150.266,229.162 150.008 C 229.420 149.750,229.760 147.947,229.918 146.001 C 230.075 144.055,230.434 142.197,230.715 141.872 C 231.002 141.539,231.328 139.751,231.459 137.782 C 231.614 135.459,231.897 134.059,232.300 133.613 C 232.701 133.169,232.907 132.155,232.909 130.609 C 232.911 128.029,233.525 125.320,234.107 125.320 C 234.314 125.320,234.483 124.345,234.483 123.153 L 234.483 120.985 217.611 120.985 L 200.739 120.985 199.877 122.152 C 199.175 123.101,199.015 123.853,199.015 126.197 C 199.015 128.323,198.809 129.460,198.227 130.546 C 197.645 131.631,197.438 132.770,197.438 134.886 C 197.438 136.805,197.242 138.037,196.845 138.603 C 196.510 139.081,196.146 140.797,196.010 142.533 C 195.877 144.229,195.548 145.971,195.279 146.405 C 195.010 146.839,194.660 148.749,194.501 150.649 C 194.326 152.750,193.996 154.322,193.659 154.660 C 193.326 154.992,193.097 156.054,193.086 157.312 C 193.065 159.899,192.534 162.771,192.016 163.102 C 191.803 163.238,191.549 164.896,191.452 166.787 C 191.325 169.263,191.090 170.428,190.613 170.956 C 190.249 171.358,189.951 171.996,189.951 172.372 C 189.951 174.606,190.087 174.581,177.996 174.581 C 169.858 174.581,166.730 174.454,166.384 174.108 C 165.633 173.357,165.816 170.028,166.700 168.379 C 167.277 167.302,167.488 166.155,167.488 164.093 C 167.488 162.178,167.662 161.134,168.033 160.826 C 168.383 160.536,168.677 159.047,168.856 156.659 C 169.038 154.232,169.327 152.784,169.691 152.483 C 170.032 152.200,170.253 151.241,170.263 150.001 C 170.286 147.343,170.851 144.495,171.391 144.315 C 171.646 144.230,171.824 143.094,171.825 141.544 C 171.827 138.802,172.413 135.961,172.975 135.961 C 173.155 135.961,173.380 134.342,173.475 132.364 C 173.608 129.583,173.797 128.656,174.311 128.281 C 174.838 127.895,174.975 127.144,174.975 124.640 C 174.975 122.082,175.124 121.296,175.764 120.484 C 176.399 119.676,176.552 118.882,176.554 116.391 C 176.556 113.970,176.726 113.044,177.340 112.118 C 177.946 111.203,178.123 110.267,178.125 107.969 C 178.127 105.879,178.316 104.734,178.765 104.094 C 179.173 103.511,179.476 101.994,179.608 99.870 C 179.739 97.780,180.013 96.392,180.351 96.112 C 180.646 95.867,180.887 95.322,180.887 94.901 C 180.887 94.480,181.070 93.792,181.295 93.373 C 181.769 92.486,326.260 92.137,327.908 93.019 M154.877 155.779 C 156.079 156.385,156.514 160.225,155.550 161.712 C 155.247 162.179,154.875 164.063,154.724 165.898 C 154.558 167.924,154.224 169.485,153.875 169.870 C 153.559 170.220,153.300 170.867,153.300 171.308 C 153.300 171.749,152.933 172.578,152.484 173.149 L 151.667 174.187 119.656 174.187 C 95.284 174.187,87.532 174.074,87.172 173.714 C 86.499 173.041,86.547 167.096,87.234 166.098 C 87.528 165.670,87.893 163.916,88.045 162.199 C 88.358 158.662,89.681 155.833,91.156 155.546 C 93.547 155.082,153.931 155.302,154.877 155.779 M204.173 219.058 C 205.054 220.147,205.148 221.768,204.393 222.868 C 204.099 223.296,203.737 225.147,203.588 226.982 C 203.423 229.012,203.092 230.568,202.742 230.954 C 202.426 231.303,202.167 232.319,202.167 233.211 C 202.167 234.357,201.889 235.157,201.216 235.939 L 200.265 237.044 138.204 237.044 C 77.727 237.044,76.121 237.025,75.312 236.294 C 74.323 235.398,74.135 231.616,75.017 230.334 C 75.311 229.906,75.677 228.141,75.830 226.411 C 75.983 224.682,76.349 222.731,76.644 222.077 C 76.938 221.422,77.298 220.472,77.445 219.965 C 78.049 217.871,75.366 217.951,141.808 218.043 L 203.419 218.128 204.173 219.058 M168.885 286.288 C 169.980 287.383,170.129 288.919,169.295 290.518 C 168.990 291.101,168.619 292.963,168.468 294.656 C 168.318 296.349,167.975 298.089,167.705 298.522 C 167.436 298.956,167.111 300.107,166.982 301.080 C 166.526 304.542,171.595 304.236,114.645 304.236 L 64.255 304.236 63.688 303.350 C 62.998 302.272,63.498 295.332,64.405 293.399 C 64.710 292.749,65.054 291.153,65.169 289.852 C 65.346 287.849,65.563 287.322,66.587 286.404 L 67.796 285.320 117.857 285.320 L 167.918 285.320 168.885 286.288 " stroke="none" fill="#ffffff" fill-rule="evenodd"></path></g></svg>